<?xml version="1.0" standalone="no"?>
<!DOCTYPE svg PUBLIC "-//W3C//DTD SVG 1.1//EN" "http://www.w3.org/Graphics/SVG/1.1/DTD/svg11.dtd" >
<svg xmlns="http://www.w3.org/2000/svg" xmlns:xlink="http://www.w3.org/1999/xlink" version="1.1">
<metadata>
Created by FontForge 20170731 at Wed Jul 29 06:11:36 2020
 By Aleksey,,,
Copyright (c) 2019 by Reza Bakhtiarifard. All rights reserved.
</metadata>
<defs>
<font id="YekanBakhFaNum-Hairline" horiz-adv-x="0" >
  <font-face 
    font-family="Yekan Bakh FaNum Hairline"
    font-weight="100"
    font-stretch="normal"
    units-per-em="1000"
    panose-1="1 0 5 4 0 0 0 2 0 4"
    ascent="800"
    descent="-200"
    x-height="455"
    cap-height="640"
    bbox="-193 -483 1327 930"
    underline-thickness="25"
    underline-position="-154"
    unicode-range="U+000A-FFFC"
  />
<missing-glyph horiz-adv-x="528" 
d="M462 0h-396v610h396v-610zM94 583v-555h341v555h-341z" />
    <glyph glyph-name="allah" unicode="&#x627;&#xfedf;&#xfee0;&#xfeea;" horiz-adv-x="1208" arabic-form="isolated" 
d="M363 462h28v-308q0 -27 4.5 -50t16 -40t30.5 -26.5t48 -9.5h76q50 0 77.5 25.5t27.5 67.5v270h27v-270q0 -27 9 -44.5t23 -28.5t31 -15.5t34 -4.5h41q46 0 75.5 25.5t29.5 67.5v363h27v-357q0 -58 -37 -92.5t-95 -34.5h-41q-35 0 -65.5 14.5t-47.5 53.5
q-21 -39 -52 -53.5t-64 -14.5h-76q-42 0 -75.5 21t-47.5 81q-12 -18 -31.5 -29t-41.5 -17.5t-44.5 -9t-40.5 -2.5q-75 0 -114.5 35t-39.5 114q0 37 10.5 72.5t31.5 63.5t53 45t76 17h137v71zM220 363q-63 0 -100.5 -45t-37.5 -120q0 -37 9 -61.5t26.5 -39t42 -20.5t55.5 -6
q33 0 60 7t46.5 19t30.5 28t11 34v204h-143zM676 930h22v-171h-22v171zM698 687v-159h59q32 0 53 18t21 64v77h22v-62q0 -39 -10 -62.5t-25 -36t-31.5 -16.5t-29.5 -4h-42q-8 0 -14 2t-14 9q-8 -7 -13.5 -9t-13.5 -2h-42q-13 0 -29.5 4t-31.5 16.5t-25 36t-10 62.5v62h22
v-77q0 -46 21 -64t53 -18h58v159h22zM1105 620h28v-620h-28v620z" />
    <glyph glyph-name="la.aa" unicode="&#xfedf;&#xfe82;" horiz-adv-x="486" arabic-form="isolated" 
d="M75 495h28v-467h175q46 0 75.5 25.5t29.5 67.5v499h28v-493q0 -58 -37.5 -92.5t-95.5 -34.5h-203v495zM52 612q-17 0 -29.5 -3.5t-21.5 -23.5l-20 -45l-21 9l21 47q7 16 14.5 25t16 13.5t18.5 5t22 0.5h165v-28h-165z" />
    <glyph glyph-name="la.aa.fina" unicode="&#xfee0;&#xfe82;" horiz-adv-x="521" arabic-form="final" 
d="M75 0v495h28v-467h175q50 0 77.5 25.5t27.5 67.5v499h28v-499q0 -27 9 -44.5t23 -28.5t31.5 -15.5t35.5 -4.5h11q12 0 16.5 -4t4.5 -10q0 -7 -4.5 -10.5t-16.5 -3.5h-11q-38 0 -68.5 14.5t-47.5 53.5q-20 -39 -51.5 -53.5t-64.5 -14.5h-203zM54 612q-17 0 -29.5 -3.5
t-21.5 -23.5l-20 -45l-21 9l21 47q7 16 14.5 25t16 13.5t18.5 5t22 0.5h165v-28h-165z" />
    <glyph glyph-name="la.thmz" unicode="&#xfedf;&#xfe84;" horiz-adv-x="486" arabic-form="isolated" 
d="M75 451h28v-423h175q46 0 75.5 25.5t29.5 67.5v499h28v-493q0 -58 -37.5 -92.5t-95.5 -34.5h-203v451zM203 616l-185 -94l-11 21l78 39q-20 2 -34 10.5t-23 21.5t-13.5 28t-4.5 29q0 42 25.5 68t67.5 26h47l-5 -22h-37q-36 0 -56 -21.5t-20 -50.5q0 -33 22.5 -52.5
t49.5 -19.5q17 0 39 11.5t51 25.5z" />
    <glyph glyph-name="la.thmz.fina" unicode="&#xfee0;&#xfe84;" horiz-adv-x="521" arabic-form="final" 
d="M75 0v451h28v-423h175q50 0 77.5 25.5t27.5 67.5v499h28v-499q0 -27 9 -44.5t23 -28.5t31.5 -15.5t35.5 -4.5h11q12 0 16.5 -4t4.5 -10q0 -7 -4.5 -10.5t-16.5 -3.5h-11q-38 0 -68.5 14.5t-47.5 53.5q-20 -39 -51.5 -53.5t-64.5 -14.5h-203zM203 616l-185 -94l-11 21
l78 39q-20 2 -34 10.5t-23 21.5t-13.5 28t-4.5 29q0 42 25.5 68t67.5 26h47l-5 -22h-37q-36 0 -56 -21.5t-20 -50.5q0 -33 22.5 -52.5t49.5 -19.5q17 0 39 11.5t51 25.5z" />
    <glyph glyph-name="la.bhmz" unicode="&#xfedf;&#xfe88;" horiz-adv-x="486" arabic-form="isolated" 
d="M75 620h28v-592h175q46 0 75.5 25.5t29.5 67.5v499h28v-493q0 -58 -37.5 -92.5t-95.5 -34.5h-203v620zM251 -258l-185 -94l-11 21l78 39q-20 2 -34 10.5t-23 21.5t-13.5 28t-4.5 29q0 42 25.5 68t67.5 26h47l-5 -22h-37q-36 0 -56 -21.5t-20 -50.5q0 -33 22.5 -52.5
t49.5 -19.5q17 0 39 11.5t51 25.5z" />
    <glyph glyph-name="la.bhmz.fina" unicode="&#xfee0;&#xfe88;" horiz-adv-x="521" arabic-form="final" 
d="M75 0v620h28v-592h175q50 0 77.5 25.5t27.5 67.5v499h28v-499q0 -27 9 -44.5t23 -28.5t31.5 -15.5t35.5 -4.5h11q12 0 16.5 -4t4.5 -10q0 -7 -4.5 -10.5t-16.5 -3.5h-11q-38 0 -68.5 14.5t-47.5 53.5q-20 -39 -51.5 -53.5t-64.5 -14.5h-203zM251 -258l-185 -94l-11 21
l78 39q-20 2 -34 10.5t-23 21.5t-13.5 28t-4.5 29q0 42 25.5 68t67.5 26h47l-5 -22h-37q-36 0 -56 -21.5t-20 -50.5q0 -33 22.5 -52.5t49.5 -19.5q17 0 39 11.5t51 25.5z" />
    <glyph glyph-name="la" unicode="&#xfedf;&#xfe8e;" horiz-adv-x="486" arabic-form="isolated" 
d="M75 620h28v-592h175q46 0 75.5 25.5t29.5 67.5v499h28v-493q0 -58 -37.5 -92.5t-95.5 -34.5h-203v620z" />
    <glyph glyph-name="la.fina" unicode="&#xfee0;&#xfe8e;" horiz-adv-x="521" arabic-form="final" 
d="M75 0v620h28v-592h175q50 0 77.5 25.5t27.5 67.5v499h28v-499q0 -27 9 -44.5t23 -28.5t31.5 -15.5t35.5 -4.5h11q12 0 16.5 -4t4.5 -10q0 -7 -4.5 -10.5t-16.5 -3.5h-11q-38 0 -68.5 14.5t-47.5 53.5q-20 -39 -51.5 -53.5t-64.5 -14.5h-203z" />
    <glyph glyph-name="la.tvasla" unicode="&#xfedf;&#xfb51;" horiz-adv-x="486" 
d="M75 465h28v-437h175q46 0 75.5 25.5t29.5 67.5v499h28v-493q0 -58 -37.5 -92.5t-95.5 -34.5h-203v465zM9 578q44 86 80 120t72 34q33 0 57.5 -25.5t24.5 -62.5q0 -15 -5 -31.5t-17 -30.5t-32 -23t-51 -9h-134l-17 16v103l22 5v-96zM136 572q35 0 60 17t25 55q0 25 -17 45
t-46 20q-18 0 -35 -11t-32.5 -29.5t-31 -43.5t-30.5 -53h107z" />
    <glyph glyph-name="la.tvasla.fina" unicode="&#xfee0;&#xfb51;" horiz-adv-x="521" 
d="M75 0v465h28v-437h175q50 0 77.5 25.5t27.5 67.5v499h28v-499q0 -27 9 -44.5t23 -28.5t31.5 -15.5t35.5 -4.5h11q12 0 16.5 -4t4.5 -10q0 -7 -4.5 -10.5t-16.5 -3.5h-11q-38 0 -68.5 14.5t-47.5 53.5q-20 -39 -51.5 -53.5t-64.5 -14.5h-203zM9 578q44 86 80 120t72 34
q33 0 57.5 -25.5t24.5 -62.5q0 -15 -5 -31.5t-17 -30.5t-32 -23t-51 -9h-134l-17 16v103l22 5v-96zM136 572q35 0 60 17t25 55q0 25 -17 45t-46 20q-18 0 -35 -11t-32.5 -29.5t-31 -43.5t-30.5 -53h107z" />
    <glyph glyph-name="lellah" unicode="&#xfedf;&#x650;&#xfee0;&#x654;&#xfeea;" horiz-adv-x="1034" 
d="M363 462h28v-308q0 -27 4.5 -50t16 -40t30.5 -26.5t48 -9.5h76q50 0 77.5 25.5t27.5 67.5v270h27v-270q0 -27 9 -44.5t23 -28.5t31 -15.5t34 -4.5h41q46 0 75.5 25.5t29.5 67.5v363h27v-357q0 -58 -37 -92.5t-95 -34.5h-41q-35 0 -65.5 14.5t-47.5 53.5
q-21 -39 -52 -53.5t-64 -14.5h-76q-42 0 -75.5 21t-47.5 81q-12 -18 -31.5 -29t-41.5 -17.5t-44.5 -9t-40.5 -2.5q-75 0 -114.5 35t-39.5 114q0 37 10.5 72.5t31.5 63.5t53 45t76 17h137v71zM220 363q-63 0 -100.5 -45t-37.5 -120q0 -37 9 -61.5t26.5 -39t42 -20.5t55.5 -6
q33 0 60 7t46.5 19t30.5 28t11 34v204h-143zM676 930h22v-171h-22v171zM698 687v-159h59q32 0 53 18t21 64v77h22v-62q0 -39 -10 -62.5t-25 -36t-31.5 -16.5t-29.5 -4h-42q-8 0 -14 2t-14 9q-8 -7 -13.5 -9t-13.5 -2h-42q-13 0 -29.5 4t-31.5 16.5t-25 36t-10 62.5v62h22
v-77q0 -46 21 -64t53 -18h58v159h22z" />
    <glyph glyph-name="hmz" unicode="&#x621;" horiz-adv-x="429" arabic-form="isolated" 
d="M69 20l135 68q-39 4 -67.5 17.5t-46.5 34t-26.5 45.5t-8.5 52q0 35 12.5 63.5t33 48.5t47.5 31t56 11q25 0 47.5 -7t39.5 -15l-11 -25q-12 6 -34 12.5t-42 6.5q-28 0 -50.5 -10t-38.5 -27t-24.5 -40t-8.5 -49q0 -25 9 -47t27 -38.5t43.5 -26t58.5 -9.5q25 0 58.5 14.5
t87.5 43.5l14 -26l-298 -154z" />
    <glyph glyph-name="alef.aa" unicode="&#x622;" horiz-adv-x="178" arabic-form="isolated" 
d="M75 495h28v-495h-28v495zM46 612q-17 0 -29.5 -3.5t-21.5 -23.5l-20 -45l-21 9l21 47q7 16 14.5 25t16 13.5t18.5 5t22 0.5h165v-28h-165z" />
    <glyph glyph-name="alef.thmz" unicode="&#x623;" horiz-adv-x="178" arabic-form="isolated" 
d="M75 451h28v-451h-28v451zM190 616l-185 -94l-11 21l78 39q-20 2 -34 10.5t-23 21.5t-13.5 28t-4.5 29q0 42 25.5 68t67.5 26h47l-5 -22h-37q-36 0 -56 -21.5t-20 -50.5q0 -33 22.5 -52.5t49.5 -19.5q17 0 39 11.5t51 25.5z" />
    <glyph glyph-name="vav.thmz" unicode="&#x624;" horiz-adv-x="451" arabic-form="isolated" 
d="M148 -215q50 0 89.5 17.5t67 46.5t42 68t16.5 83h-132q-51 0 -84 11t-52 31t-26.5 48.5t-7.5 63.5q0 37 10.5 71t31.5 59.5t52 41t71 15.5q33 0 62.5 -11t52.5 -34t36.5 -59.5t13.5 -88.5v-132q0 -51 -16 -98t-47 -82.5t-75 -56.5t-99 -21h-110l-6 27h110zM88 154
q0 -33 7 -57t25 -39t49 -22.5t79 -7.5h115v104q0 95 -38.5 138t-104.5 43q-63 0 -97.5 -44t-34.5 -115zM303 506l-185 -94l-11 21l78 39q-20 2 -34 10.5t-23 21.5t-13.5 28t-4.5 29q0 42 25.5 68t67.5 26h47l-5 -22h-37q-36 0 -56 -21.5t-20 -50.5q0 -33 22.5 -52.5
t49.5 -19.5q17 0 39 11.5t51 25.5z" />
    <glyph glyph-name="alef.bhmz" unicode="&#x625;" horiz-adv-x="178" arabic-form="isolated" 
d="M75 620h28v-620h-28v620zM196 -258l-185 -94l-11 21l78 39q-20 2 -34 10.5t-23 21.5t-13.5 28t-4.5 29q0 42 25.5 68t67.5 26h47l-5 -22h-37q-36 0 -56 -21.5t-20 -50.5q0 -33 22.5 -52.5t49.5 -19.5q17 0 39 11.5t51 25.5z" />
    <glyph glyph-name="ye.thmz" unicode="&#x626;" horiz-adv-x="676" arabic-form="isolated" 
d="M369 -215q43 0 83.5 14.5t72 40t50.5 59.5t19 73q0 16 -4 31.5t-15 26.5t-30 18t-50 7h-176v154q0 75 42.5 120t117.5 45h115l5 -28h-126q-23 0 -45.5 -8t-40.5 -24.5t-29.5 -41t-11.5 -56.5v-134h155q37 0 60 -9t36.5 -24t18.5 -33.5t5 -37.5q0 -45 -20 -85t-54 -70
t-79 -47.5t-94 -17.5h-83q-112 0 -174 69t-62 189v171h27v-171q0 -51 13.5 -93.5t40.5 -73t67 -47.5t94 -17h72zM258 423l-185 -94l-11 21l78 39q-20 2 -34 10.5t-23 21.5t-13.5 28t-4.5 29q0 42 25.5 68t67.5 26h47l-5 -22h-37q-36 0 -56 -21.5t-20 -50.5q0 -33 22.5 -52.5
t49.5 -19.5q17 0 39 11.5t51 25.5z" />
    <glyph glyph-name="alef" unicode="&#x627;" horiz-adv-x="178" arabic-form="isolated" 
d="M75 620h28v-620h-28v620z" />
    <glyph glyph-name="be" unicode="&#x628;" horiz-adv-x="780" arabic-form="isolated" 
d="M214 0q-41 0 -70.5 12.5t-48 33.5t-27 49t-8.5 59v126h27v-121q0 -58 31 -94.5t102 -36.5h368q45 0 74.5 25.5t29.5 67.5v159h28v-153q0 -58 -37 -92.5t-95 -34.5h-374zM407 -164h-56v44h56v-44z" />
    <glyph glyph-name="te.marbuta" unicode="&#x629;" horiz-adv-x="462" arabic-form="isolated" 
d="M55 154q0 31 8.5 59t27.5 58t49 63.5t73 76.5l-46 47l20 21q62 -62 104 -106.5t68 -79.5t37 -65t11 -63q0 -35 -13.5 -65.5t-38 -52.5t-57.5 -34.5t-72 -12.5t-71 11.5t-54 32.5t-34 49t-12 61zM380 159q0 27 -8 52t-25.5 52t-46 58t-69.5 70q-47 -46 -76.5 -80
t-45.5 -61.5t-21.5 -50t-5.5 -45.5q0 -54 38.5 -90t105.5 -36q33 0 61 10.5t48.5 28.5t32.5 41.5t12 50.5zM297 572h-54v44h54v-44zM187 572h-55v44h55v-44z" />
    <glyph glyph-name="te" unicode="&#x62a;" horiz-adv-x="780" arabic-form="isolated" 
d="M214 0q-41 0 -70.5 12.5t-48 33.5t-27 49t-8.5 59v126h27v-121q0 -58 31 -94.5t102 -36.5h368q45 0 74.5 25.5t29.5 67.5v159h28v-153q0 -58 -37 -92.5t-95 -34.5h-374zM472 374h-54v44h54v-44zM362 374h-55v44h55v-44z" />
    <glyph glyph-name="the" unicode="&#x62b;" horiz-adv-x="780" arabic-form="isolated" 
d="M214 0q-41 0 -70.5 12.5t-48 33.5t-27 49t-8.5 59v126h27v-121q0 -58 31 -94.5t102 -36.5h368q45 0 74.5 25.5t29.5 67.5v159h28v-153q0 -58 -37 -92.5t-95 -34.5h-374zM418 473h-56v44h56v-44zM472 374h-54v44h54v-44zM362 374h-55v44h55v-44z" />
    <glyph glyph-name="jim" unicode="&#x62c;" horiz-adv-x="539" arabic-form="isolated" 
d="M453 218q-8 29 -18.5 52t-27.5 38.5t-42.5 24t-62.5 8.5h-214l6 28h208q25 0 51.5 -2.5t50.5 -18t45 -49t35 -95.5l-213 -116q-51 -28 -87.5 -53.5t-60.5 -52.5t-35 -56.5t-11 -64.5q0 -91 54 -130t166 -39h187l-5 -27h-188q-68 0 -114 15t-74.5 40.5t-40.5 60.5t-12 74
q0 37 9.5 69.5t31.5 62.5t59 59t93 59zM358 -133h-56v44h56v-44z" />
    <glyph glyph-name="him" unicode="&#x62d;" horiz-adv-x="539" arabic-form="isolated" 
d="M453 218q-8 29 -18.5 52t-27.5 38.5t-42.5 24t-62.5 8.5h-214l6 28h208q25 0 51.5 -2.5t50.5 -18t45 -49t35 -95.5l-213 -116q-51 -28 -87.5 -53.5t-60.5 -52.5t-35 -56.5t-11 -64.5q0 -91 54 -130t166 -39h187l-5 -27h-188q-68 0 -114 15t-74.5 40.5t-40.5 60.5t-12 74
q0 37 9.5 69.5t31.5 62.5t59 59t93 59z" />
    <glyph glyph-name="khe" unicode="&#x62e;" horiz-adv-x="539" arabic-form="isolated" 
d="M453 218q-8 29 -18.5 52t-27.5 38.5t-42.5 24t-62.5 8.5h-214l6 28h208q25 0 51.5 -2.5t50.5 -18t45 -49t35 -95.5l-213 -116q-51 -28 -87.5 -53.5t-60.5 -52.5t-35 -56.5t-11 -64.5q0 -91 54 -130t166 -39h187l-5 -27h-188q-68 0 -114 15t-74.5 40.5t-40.5 60.5t-12 74
q0 37 9.5 69.5t31.5 62.5t59 59t93 59zM276 490h-56v44h56v-44z" />
    <glyph glyph-name="dal" unicode="&#x62f;" horiz-adv-x="539" arabic-form="isolated" 
d="M440 226q24 -28 34 -54t10 -51q0 -54 -38 -87.5t-105 -33.5h-291l-6 28h297q54 0 85 25.5t31 67.5q0 20 -10.5 44t-28.5 44l-202 228l21 20z" />
    <glyph glyph-name="zal" unicode="&#x630;" horiz-adv-x="539" arabic-form="isolated" 
d="M440 226q24 -28 34 -54t10 -51q0 -54 -38 -87.5t-105 -33.5h-291l-6 28h297q54 0 85 25.5t31 67.5q0 20 -10.5 44t-28.5 44l-202 228l21 20zM276 610h-56v44h56v-44z" />
    <glyph glyph-name="re" unicode="&#x631;" horiz-adv-x="207" arabic-form="isolated" 
d="M147 16q0 -62 -18.5 -110t-50.5 -81t-75 -50t-93 -17h-55l-5 27h55q55 0 96 19t67 51t39 74t13 87v264h27v-264v0z" />
    <glyph glyph-name="ze" unicode="&#x632;" horiz-adv-x="207" arabic-form="isolated" 
d="M147 16q0 -62 -18.5 -110t-50.5 -81t-75 -50t-93 -17h-55l-5 27h55q55 0 96 19t67 51t39 74t13 87v264h27v-264v0zM153 418h-56v44h56v-44z" />
    <glyph glyph-name="sin" unicode="&#x633;" horiz-adv-x="1127" arabic-form="isolated" 
d="M836 121q0 -27 8.5 -44.5t22.5 -28.5t32 -15.5t36 -4.5q46 0 75 25.5t29 67.5v159h28v-153q0 -58 -37 -92.5t-95 -34.5q-37 0 -67.5 14.5t-47.5 53.5q-21 -39 -55 -53.5t-72 -14.5t-64 12.5t-41 34.5v-31q0 -51 -17 -98t-48.5 -82.5t-76 -56.5t-100.5 -21h-55
q-112 0 -174 69t-62 189v171h27v-171q0 -51 13.5 -93.5t40.5 -73t67 -47.5t94 -17h44q52 0 92.5 18.5t69 49.5t43.5 72t15 86v269h27v-164q0 -38 27.5 -63t77.5 -25q54 0 85 25.5t31 67.5v159h27v-159z" />
    <glyph glyph-name="shin" unicode="&#x634;" horiz-adv-x="1127" arabic-form="isolated" 
d="M836 121q0 -27 8.5 -44.5t22.5 -28.5t32 -15.5t36 -4.5q46 0 75 25.5t29 67.5v159h28v-153q0 -58 -37 -92.5t-95 -34.5q-37 0 -67.5 14.5t-47.5 53.5q-21 -39 -55 -53.5t-72 -14.5t-64 12.5t-41 34.5v-31q0 -51 -17 -98t-48.5 -82.5t-76 -56.5t-100.5 -21h-55
q-112 0 -174 69t-62 189v171h27v-171q0 -51 13.5 -93.5t40.5 -73t67 -47.5t94 -17h44q52 0 92.5 18.5t69 49.5t43.5 72t15 86v269h27v-164q0 -38 27.5 -63t77.5 -25q54 0 85 25.5t31 67.5v159h27v-159zM853 517h-56v44h56v-44zM907 418h-54v44h54v-44zM797 418h-55v44h55
v-44z" />
    <glyph glyph-name="sad" unicode="&#x635;" horiz-adv-x="1210" arabic-form="isolated" 
d="M1127 182q0 37 -11.5 67t-31 51.5t-45.5 33.5t-54 12q-35 0 -70.5 -19t-73 -58t-77.5 -99t-84 -142h299q27 0 53.5 8.5t47.5 27t34 47.5t13 71zM654 33q52 95 96 160t84 105.5t77 58t74 17.5t68 -15.5t53.5 -41.5t35.5 -61t13 -74q0 -33 -10.5 -65.5t-32 -58.5t-55 -42
t-78.5 -16h-281q-42 0 -68.5 12.5t-41.5 34.5v-31q0 -51 -17 -98t-48.5 -82.5t-76 -56.5t-100.5 -21h-55q-112 0 -174 69t-62 189v171h27v-171q0 -51 13.5 -93.5t40.5 -73t67 -47.5t94 -17h44q52 0 92.5 18.5t69 49.5t43.5 72t15 86v269h27v-164q0 -29 18.5 -52t47.5 -31z
" />
    <glyph glyph-name="zad" unicode="&#x636;" horiz-adv-x="1210" arabic-form="isolated" 
d="M1127 182q0 37 -11.5 67t-31 51.5t-45.5 33.5t-54 12q-35 0 -70.5 -19t-73 -58t-77.5 -99t-84 -142h299q27 0 53.5 8.5t47.5 27t34 47.5t13 71zM654 33q52 95 96 160t84 105.5t77 58t74 17.5t68 -15.5t53.5 -41.5t35.5 -61t13 -74q0 -33 -10.5 -65.5t-32 -58.5t-55 -42
t-78.5 -16h-281q-42 0 -68.5 12.5t-41.5 34.5v-31q0 -51 -17 -98t-48.5 -82.5t-76 -56.5t-100.5 -21h-55q-112 0 -174 69t-62 189v171h27v-171q0 -51 13.5 -93.5t40.5 -73t67 -47.5t94 -17h44q52 0 92.5 18.5t69 49.5t43.5 72t15 86v269h27v-164q0 -29 18.5 -52t47.5 -31z
M941 479h-56v44h56v-44z" />
    <glyph glyph-name="ta" unicode="&#x637;" horiz-adv-x="704" arabic-form="isolated" 
d="M148 620h28v-334v-190q44 75 84 128t77.5 86t72.5 48.5t69 15.5q37 0 68 -15.5t53.5 -41.5t35.5 -61t13 -74q0 -33 -10.5 -65.5t-32 -58.5t-55 -42t-78.5 -16h-418l-5 28h98v592zM621 182q0 37 -11.5 67t-31 51.5t-45.5 33.5t-54 12q-71 0 -144 -76.5t-161 -241.5h299
q27 0 53.5 8.5t47.5 27t34 47.5t13 71z" />
    <glyph glyph-name="za" unicode="&#x638;" horiz-adv-x="704" arabic-form="isolated" 
d="M148 620h28v-334v-190q44 75 84 128t77.5 86t72.5 48.5t69 15.5q37 0 68 -15.5t53.5 -41.5t35.5 -61t13 -74q0 -33 -10.5 -65.5t-32 -58.5t-55 -42t-78.5 -16h-418l-5 28h98v592zM621 182q0 37 -11.5 67t-31 51.5t-45.5 33.5t-54 12q-71 0 -144 -76.5t-161 -241.5h299
q27 0 53.5 8.5t47.5 27t34 47.5t13 71zM501 506h-56v44h56v-44z" />
    <glyph glyph-name="ein" unicode="&#x639;" horiz-adv-x="513" arabic-form="isolated" 
d="M185 30q-23 15 -38 34.5t-24 40.5t-13 42.5t-4 39.5q0 34 12 64.5t33.5 52.5t51.5 35t67 13q33 0 64 -9.5t69 -34.5l-11 -22q-33 20 -63 29t-59 9q-31 0 -56 -11.5t-43 -30.5t-28 -43.5t-10 -51.5q0 -29 9.5 -55.5t25.5 -47.5t37.5 -33.5t44.5 -12.5h186l-6 -28h-187
q-39 0 -70 -14.5t-52.5 -37.5t-32.5 -53t-11 -61q0 -44 13 -73t38 -46.5t62.5 -25t85.5 -7.5h182l-5 -27h-183q-64 0 -106.5 12.5t-67.5 35.5t-35.5 56.5t-10.5 74.5q0 63 35.5 113t99.5 73z" />
    <glyph glyph-name="qein" unicode="&#x63a;" horiz-adv-x="528" arabic-form="isolated" 
d="M185 30q-23 15 -38 34.5t-24 40.5t-13 42.5t-4 39.5q0 34 12 64.5t33.5 52.5t51.5 35t67 13q33 0 64 -9.5t69 -34.5l-11 -22q-33 20 -63 29t-59 9q-31 0 -56 -11.5t-43 -30.5t-28 -43.5t-10 -51.5q0 -29 9.5 -55.5t25.5 -47.5t37.5 -33.5t44.5 -12.5h186l-6 -28h-187
q-39 0 -70 -14.5t-52.5 -37.5t-32.5 -53t-11 -61q0 -44 13 -73t38 -46.5t62.5 -25t85.5 -7.5h182l-5 -27h-183q-64 0 -106.5 12.5t-67.5 35.5t-35.5 56.5t-10.5 74.5q0 63 35.5 113t99.5 73zM303 495h-56v44h56v-44z" />
    <glyph glyph-name="fe" unicode="&#x641;" horiz-adv-x="858" arabic-form="isolated" 
d="M462 226q0 28 11 57.5t32.5 53.5t53.5 39t73 15q37 0 68 -10.5t52.5 -34t33.5 -60t12 -88.5v-39q0 -74 -46.5 -116.5t-146.5 -42.5h-396q-41 0 -70.5 12.5t-48 33.5t-27 49t-8.5 59v126h27v-121q0 -58 31 -94.5t102 -36.5h395q20 0 39 2.5t36 7.5q-78 24 -122.5 44.5
t-67 42.5t-28 46.5t-5.5 54.5zM490 231q0 -25 4.5 -45.5t26.5 -40.5t69 -41t132 -48q21 15 34.5 39t13.5 59v39q0 82 -34 126t-109 44q-31 0 -56.5 -11.5t-43.5 -30t-27.5 -42t-9.5 -48.5zM655 506h-56v44h56v-44z" />
    <glyph glyph-name="qaf" unicode="&#x642;" horiz-adv-x="714" arabic-form="isolated" 
d="M407 -215q50 0 89.5 17.5t68 46.5t44.5 68t18 83h-132q-51 0 -84.5 11t-52.5 31t-26.5 48.5t-7.5 63.5q0 37 11 71t32 59.5t52 41t71 15.5q33 0 62.5 -11t52 -34t36 -59.5t13.5 -88.5v-132q0 -51 -17 -98t-48 -82.5t-76 -56.5t-100 -21h-122q-112 0 -174 69t-62 189v171
h27v-171q0 -51 13.5 -93.5t40.5 -73t67 -47.5t94 -17h110zM352 154q0 -33 7 -57t25 -39t49 -22.5t79 -7.5h115v104q0 95 -38.5 138t-104.5 43q-62 0 -97 -44t-35 -115zM577 468h-54v44h54v-44zM467 468h-55v44h55v-44z" />
    <glyph glyph-name="kaf.arab" unicode="&#x643;" horiz-adv-x="778" arabic-form="isolated" 
d="M429 209v99q0 8 -6.5 15t-23.5 7h-125v105q0 45 27.5 71.5t77.5 26.5h39l5 -27h-44q-77 0 -77 -71v-77h110q25 0 34.5 -14t9.5 -31v-104h-27zM214 0q-41 0 -70.5 12.5t-48 33.5t-27 49t-8.5 59v126h27v-121q0 -58 31 -94.5t102 -36.5h351q46 0 75.5 25.5t29.5 67.5v499
h27v-493q0 -58 -37 -92.5t-95 -34.5h-357z" />
    <glyph glyph-name="lam" unicode="&#x644;" horiz-adv-x="663" arabic-form="isolated" 
d="M588 16q0 -51 -17 -98t-48.5 -82.5t-76 -56.5t-100.5 -21h-55q-112 0 -174 69t-62 189v171h27v-171q0 -51 13.5 -93.5t40.5 -73t67 -47.5t94 -17h44q52 0 92.5 18.5t69 49.5t43.5 72t15 86v609h27v-604z" />
    <glyph glyph-name="mim" unicode="&#x645;" horiz-adv-x="631" arabic-form="isolated" 
d="M407 0q-67 0 -108 36.5t-41 106.5v72q0 37 10 63.5t39 51.5h-60q-39 0 -69 -11.5t-50.5 -31.5t-30.5 -47t-10 -58v-424h-27v424q0 35 12.5 67t36.5 56t60 38.5t84 14.5h181q39 0 65 -11.5t42 -29.5t23 -41t7 -45v-88q0 -74 -45 -108.5t-119 -34.5zM412 28q58 0 95 26
t37 83v89q0 20 -6.5 39t-19 33.5t-32 23t-46.5 8.5h-50q-54 0 -79.5 -32.5t-25.5 -77.5v-77q0 -57 34.5 -86t92.5 -29z" />
    <glyph glyph-name="nun" unicode="&#x646;" horiz-adv-x="648" arabic-form="isolated" 
d="M588 16q0 -51 -17 -98t-48.5 -82.5t-76 -56.5t-100.5 -21h-55q-112 0 -174 69t-62 189v171h27v-171q0 -51 13.5 -93.5t40.5 -73t67 -47.5t94 -17h44q52 0 92.5 18.5t69 49.5t43.5 72t15 86v269h27v-264zM341 308h-56v44h56v-44z" />
    <glyph glyph-name="he" unicode="&#x647;" horiz-adv-x="462" arabic-form="isolated" 
d="M55 154q0 31 8.5 59t27.5 58t49 63.5t73 76.5l-46 47l20 21q62 -62 104 -106.5t68 -79.5t37 -65t11 -63q0 -35 -13.5 -65.5t-38 -52.5t-57.5 -34.5t-72 -12.5t-71 11.5t-54 32.5t-34 49t-12 61zM380 159q0 27 -8 52t-25.5 52t-46 58t-69.5 70q-47 -46 -76.5 -80
t-45.5 -61.5t-21.5 -50t-5.5 -45.5q0 -54 38.5 -90t105.5 -36q33 0 61 10.5t48.5 28.5t32.5 41.5t12 50.5z" />
    <glyph glyph-name="vav" unicode="&#x648;" horiz-adv-x="451" arabic-form="isolated" 
d="M148 -215q50 0 89.5 17.5t67 46.5t42 68t16.5 83h-132q-51 0 -84 11t-52 31t-26.5 48.5t-7.5 63.5q0 37 10.5 71t31.5 59.5t52 41t71 15.5q33 0 62.5 -11t52.5 -34t36.5 -59.5t13.5 -88.5v-132q0 -51 -16 -98t-47 -82.5t-75 -56.5t-99 -21h-110l-6 27h110zM88 154
q0 -33 7 -57t25 -39t49 -22.5t79 -7.5h115v104q0 95 -38.5 138t-104.5 43q-63 0 -97.5 -44t-34.5 -115z" />
    <glyph glyph-name="alef.maksura" unicode="&#x649;" horiz-adv-x="676" arabic-form="isolated" 
d="M369 -215q43 0 83.5 14.5t72 40t50.5 59.5t19 73q0 16 -4 31.5t-15 26.5t-30 18t-50 7h-176v154q0 75 42.5 120t117.5 45h115l5 -28h-126q-23 0 -45.5 -8t-40.5 -24.5t-29.5 -41t-11.5 -56.5v-134h155q37 0 60 -9t36.5 -24t18.5 -33.5t5 -37.5q0 -45 -20 -85t-54 -70
t-79 -47.5t-94 -17.5h-83q-112 0 -174 69t-62 189v171h27v-171q0 -51 13.5 -93.5t40.5 -73t67 -47.5t94 -17h72z" />
    <glyph glyph-name="ye.arab" unicode="&#x64a;" horiz-adv-x="676" arabic-form="isolated" 
d="M369 -215q43 0 83.5 14.5t72 40t50.5 59.5t19 73q0 16 -4 31.5t-15 26.5t-30 18t-50 7h-176v154q0 75 42.5 120t117.5 45h115l5 -28h-126q-23 0 -45.5 -8t-40.5 -24.5t-29.5 -41t-11.5 -56.5v-134h155q37 0 60 -9t36.5 -24t18.5 -33.5t5 -37.5q0 -45 -20 -85t-54 -70
t-79 -47.5t-94 -17.5h-83q-112 0 -174 69t-62 189v171h27v-171q0 -51 13.5 -93.5t40.5 -73t67 -47.5t94 -17h72zM395 -383h-49v44h49v-44zM280 -383h-50v44h50v-44z" />
    <glyph glyph-name="alef.vasla" unicode="&#x671;" horiz-adv-x="178" arabic-form="isolated" 
d="M75 465h28v-465h-28v465zM8 578q44 86 80 120t72 34q33 0 57.5 -25.5t24.5 -62.5q0 -15 -5 -31.5t-17 -30.5t-32 -23t-51 -9h-134l-17 16v103l22 5v-96zM135 572q35 0 60 17t25 55q0 25 -17 45t-46 20q-18 0 -35 -11t-32.5 -29.5t-31 -43.5t-30.5 -53h107z" />
    <glyph glyph-name="pe" unicode="&#x67e;" horiz-adv-x="780" arabic-form="isolated" 
d="M214 0q-41 0 -70.5 12.5t-48 33.5t-27 49t-8.5 59v126h27v-121q0 -58 31 -94.5t102 -36.5h368q45 0 74.5 25.5t29.5 67.5v159h28v-153q0 -58 -37 -92.5t-95 -34.5h-374zM418 -263h-56v44h56v-44zM472 -164h-54v44h54v-44zM362 -164h-55v44h55v-44z" />
    <glyph glyph-name="che" unicode="&#x686;" horiz-adv-x="539" arabic-form="isolated" 
d="M453 218q-8 29 -18.5 52t-27.5 38.5t-42.5 24t-62.5 8.5h-214l6 28h208q25 0 51.5 -2.5t50.5 -18t45 -49t35 -95.5l-213 -116q-51 -28 -87.5 -53.5t-60.5 -52.5t-35 -56.5t-11 -64.5q0 -91 54 -130t166 -39h187l-5 -27h-188q-68 0 -114 15t-74.5 40.5t-40.5 60.5t-12 74
q0 37 9.5 69.5t31.5 62.5t59 59t93 59zM363 -202h-56v44h56v-44zM417 -103h-54v44h54v-44zM307 -103h-55v44h55v-44z" />
    <glyph glyph-name="re.bv.fina" unicode="&#x695;" horiz-adv-x="257" 
d="M147 16q0 -62 -18.5 -110t-50.5 -81t-75 -50t-93 -17h-55l-5 27h55q55 0 96 19t67 51t39 74t13 87v264h27v-164q0 -38 26.5 -63t72.5 -25h11q22 0 22 -14t-22 -14h-11q-29 0 -55.5 11t-43.5 36v-31zM123 -285l19 -11l-96 -187h-18l-96 187l19 11l86 -170z" />
    <glyph glyph-name="je" unicode="&#x698;" horiz-adv-x="207" arabic-form="isolated" 
d="M147 16q0 -62 -18.5 -110t-50.5 -81t-75 -50t-93 -17h-55l-5 27h55q55 0 96 19t67 51t39 74t13 87v264h27v-264v0zM142 517h-56v44h56v-44zM196 418h-54v44h54v-44zM86 418h-55v44h55v-44z" />
    <glyph glyph-name="veh" unicode="&#x6a4;" horiz-adv-x="863" arabic-form="isolated" 
d="M467 226q0 28 11 57.5t32.5 53.5t53.5 39t73 15q37 0 68 -10.5t52.5 -34t33.5 -60t12 -88.5v-39q0 -74 -46.5 -116.5t-146.5 -42.5h-396q-41 0 -70.5 12.5t-48 33.5t-27 49t-8.5 59v126h27v-121q0 -58 31 -94.5t102 -36.5h395q20 0 39 2.5t36 7.5q-78 24 -122.5 44.5
t-67 42.5t-28 46.5t-5.5 54.5zM495 231q0 -25 4.5 -45.5t26.5 -40.5t69 -41t132 -48q21 15 34.5 39t13.5 59v39q0 82 -34 126t-109 44q-31 0 -56.5 -11.5t-43.5 -30t-27.5 -42t-9.5 -48.5zM660 605h-56v44h56v-44zM714 506h-54v44h54v-44zM604 506h-55v44h55v-44z" />
    <glyph glyph-name="kaf" unicode="&#x6a9;" horiz-adv-x="803" arabic-form="isolated" 
d="M599 28q61 0 85.5 25t24.5 63q0 20 -7.5 47.5t-42.5 62.5l-243 243v27l332 137l10 -28l-312 -128l213 -213q25 -25 40.5 -44.5t23.5 -36.5t11 -33t3 -34q0 -59 -38 -87.5t-100 -28.5h-385q-41 0 -70.5 12.5t-48 33.5t-27 49t-8.5 59v126h27v-121q0 -58 31 -94.5
t102 -36.5h379z" />
    <glyph glyph-name="gaf" unicode="&#x6af;" horiz-adv-x="803" arabic-form="isolated" 
d="M416 617l299 128l10 -25l-309 -131v28zM599 28q61 0 85.5 25t24.5 63q0 20 -7.5 47.5t-42.5 62.5l-243 243v27l332 137l10 -28l-312 -128l213 -213q25 -25 40.5 -44.5t23.5 -36.5t11 -33t3 -34q0 -59 -38 -87.5t-100 -28.5h-385q-41 0 -70.5 12.5t-48 33.5t-27 49
t-8.5 59v126h27v-121q0 -58 31 -94.5t102 -36.5h379z" />
    <glyph glyph-name="lam.tv.init" unicode="&#x6b5;" horiz-adv-x="234" 
d="M28 28q45 0 74.5 25.5t29.5 67.5v330h27v-324q0 -58 -36.5 -92.5t-94.5 -34.5h-28q-13 0 -17.5 3.5t-4.5 9.5q0 7 4.5 11t17.5 4h28zM229 704l19 -11l-96 -187h-18l-96 187l19 11l86 -170z" />
    <glyph glyph-name="lam.tvmedi" unicode="&#x6b5;" horiz-adv-x="269" 
d="M28 28q50 0 77 25.5t27 67.5v330h27v-330q0 -27 9 -44.5t23 -28.5t31 -15.5t34 -4.5h13q13 0 17.5 -4t4.5 -10q0 -7 -4.5 -10.5t-17.5 -3.5h-13q-35 0 -65.5 14.5t-47.5 53.5q-20 -39 -51.5 -53.5t-63.5 -14.5h-28q-13 0 -17.5 3.5t-4.5 9.5q0 7 4.5 11t17.5 4h28z
M229 704l19 -11l-96 -187h-18l-96 187l19 11l86 -170z" />
    <glyph glyph-name="lam.tv.fina" unicode="&#x6b5;" horiz-adv-x="698" 
d="M687 0q-29 0 -55.5 11t-43.5 36v-31q0 -51 -17 -98t-48.5 -82.5t-76 -56.5t-100.5 -21h-55q-112 0 -174 69t-62 189v171h27v-171q0 -51 13.5 -93.5t40.5 -73t67 -47.5t94 -17h44q52 0 92.5 18.5t69 49.5t43.5 72t15 86v609h27v-504q0 -38 27 -63t72 -25h11q23 0 23 -14
t-23 -14h-11zM438 616l19 -11l-96 -187h-18l-96 187l19 11l86 -170z" />
    <glyph glyph-name="he.thmz" unicode="&#x6c0;" horiz-adv-x="462" arabic-form="isolated" 
d="M170 583q-41 0 -58.5 20.5t-17.5 45.5q0 8 1.5 17t6.5 21.5t14.5 29.5t26.5 42h115l-5 -27h-96q-19 -29 -27.5 -47.5t-8.5 -32.5q0 -15 11 -28.5t44 -13.5h201l-3 -27h-204zM55 154q0 31 8.5 59t27.5 58t49 63.5t73 76.5l-46 47l20 21q62 -62 104 -106.5t68 -79.5t37 -65
t11 -63q0 -35 -13.5 -65.5t-38 -52.5t-57.5 -34.5t-72 -12.5t-71 11.5t-54 32.5t-34 49t-12 61zM380 159q0 27 -8 52t-25.5 52t-46 58t-69.5 70q-47 -46 -76.5 -80t-45.5 -61.5t-21.5 -50t-5.5 -45.5q0 -54 38.5 -90t105.5 -36q33 0 61 10.5t48.5 28.5t32.5 41.5t12 50.5z
" />
    <glyph glyph-name="he.thmz.goal.fina" unicode="&#x6c2;" horiz-adv-x="501" 
d="M215 81q33 0 60 7t46.5 19t30.5 28t11 34v194h-143q-63 0 -100.5 -42t-37.5 -113q0 -70 35 -98.5t98 -28.5zM391 154q0 -27 4.5 -50t16 -40t30.5 -26.5t48 -9.5h11q12 0 16.5 -4t4.5 -10q0 -7 -4.5 -10.5t-16.5 -3.5h-11q-21 0 -41 5t-36.5 17.5t-28.5 34t-17 55.5
q-12 -18 -31.5 -29t-41.5 -17.5t-44.5 -9t-40.5 -2.5q-75 0 -114.5 37.5t-39.5 111.5q0 35 10.5 68.5t31.5 60t53 43t76 16.5h137v71h28v-308zM385 643l-185 -94l-11 21l78 39q-20 2 -34 10.5t-23 21.5t-13.5 28t-4.5 29q0 42 25.5 68t67.5 26h47l-5 -22h-37
q-36 0 -56 -21.5t-20 -50.5q0 -33 22.5 -52.5t49.5 -19.5q17 0 39 11.5t51 25.5z" />
    <glyph glyph-name="vav.tv" unicode="&#x6c6;" horiz-adv-x="451" arabic-form="isolated" 
d="M148 -215q50 0 89.5 17.5t67 46.5t42 68t16.5 83h-132q-51 0 -84 11t-52 31t-26.5 48.5t-7.5 63.5q0 37 10.5 71t31.5 59.5t52 41t71 15.5q33 0 62.5 -11t52.5 -34t36.5 -59.5t13.5 -88.5v-132q0 -51 -16 -98t-47 -82.5t-75 -56.5t-99 -21h-110l-6 27h110zM88 154
q0 -33 7 -57t25 -39t49 -22.5t79 -7.5h115v104q0 95 -38.5 138t-104.5 43q-63 0 -97.5 -44t-34.5 -115zM317 616l19 -11l-96 -187h-18l-96 187l19 11l86 -170z" />
    <glyph glyph-name="vav.t2p.fina" unicode="&#x6ca;" horiz-adv-x="501" 
d="M148 -215q50 0 89.5 17.5t67 46.5t42 68t16.5 83h-132q-51 0 -84 11t-52 31t-26.5 48.5t-7.5 63.5q0 37 10.5 71t31.5 59.5t52 41t71 15.5q33 0 62.5 -11t52.5 -34t36.5 -59.5t13.5 -88.5v-120h110q12 0 16.5 -4t4.5 -10q0 -7 -4.5 -10.5t-16.5 -3.5h-112q-2 -49 -19 -93
t-47.5 -77t-73 -52.5t-95.5 -19.5h-110l-6 27h110zM88 154q0 -33 7 -57t25 -39t49 -22.5t79 -7.5h115v104q0 95 -38.5 138t-104.5 43q-63 0 -97.5 -44t-34.5 -115zM313 468h-54v44h54v-44zM203 468h-55v44h55v-44z" />
    <glyph glyph-name="ye" unicode="&#x6cc;" horiz-adv-x="676" arabic-form="isolated" 
d="M369 -215q43 0 83.5 14.5t72 40t50.5 59.5t19 73q0 16 -4 31.5t-15 26.5t-30 18t-50 7h-176v154q0 75 42.5 120t117.5 45h115l5 -28h-126q-23 0 -45.5 -8t-40.5 -24.5t-29.5 -41t-11.5 -56.5v-134h155q37 0 60 -9t36.5 -24t18.5 -33.5t5 -37.5q0 -45 -20 -85t-54 -70
t-79 -47.5t-94 -17.5h-83q-112 0 -174 69t-62 189v171h27v-171q0 -51 13.5 -93.5t40.5 -73t67 -47.5t94 -17h72z" />
    <glyph glyph-name="ye.tv.init" unicode="&#x6ce;" horiz-adv-x="280" 
d="M88 28q45 0 75 25.5t30 67.5v159h27v-153q0 -58 -37 -92.5t-95 -34.5h-88q-13 0 -17.5 3.5t-4.5 9.5q0 7 4.5 11t17.5 4h88zM181 -164h-49v44h49v-44zM66 -164h-50v44h50v-44zM196 567l19 -11l-96 -187h-18l-96 187l19 11l86 -170z" />
    <glyph glyph-name="ye.tv.medi" unicode="&#x6ce;" horiz-adv-x="346" 
d="M82 28q50 0 77.5 25.5t27.5 67.5v159h28v-159q0 -27 9 -44.5t22.5 -28.5t30.5 -15.5t34 -4.5h35q23 0 23 -14t-23 -14h-35q-35 0 -65.5 14.5t-47.5 53.5q-21 -39 -51.5 -53.5t-64.5 -14.5h-82q-13 0 -17.5 3.5t-4.5 9.5q0 7 4.5 11t17.5 4h82zM247 -164h-49v44h49v-44z
M132 -164h-50v44h50v-44zM284 567l19 -11l-96 -187h-18l-96 187l19 11l86 -170z" />
    <glyph glyph-name="ye.tv.fina" unicode="&#x6ce;" horiz-adv-x="710" 
d="M380 -215q57 0 98 14t66.5 35.5t37.5 48t12 51.5q0 29 -14 47.5t-47 18.5h-192l5 28h364q22 0 22 -14t-22 -14h-111q13 -13 17.5 -28.5t4.5 -32.5q0 -27 -11.5 -58.5t-38.5 -58.5t-72.5 -45.5t-113.5 -18.5h-94q-112 0 -174 69t-62 189v171h27v-171q0 -51 13.5 -93.5
t40.5 -73t67 -47.5t94 -17h83zM383 385l19 -11l-96 -187h-18l-96 187l19 11l86 -170z" />
    <glyph glyph-name="ae.fina" unicode="&#x6d5;" horiz-adv-x="501" 
d="M215 81q33 0 60 7t46.5 19t30.5 28t11 34v194h-143q-63 0 -100.5 -42t-37.5 -113q0 -70 35 -98.5t98 -28.5zM391 154q0 -27 4.5 -50t16 -40t30.5 -26.5t48 -9.5h11q12 0 16.5 -4t4.5 -10q0 -7 -4.5 -10.5t-16.5 -3.5h-11q-21 0 -41 5t-36.5 17.5t-28.5 34t-17 55.5
q-12 -18 -31.5 -29t-41.5 -17.5t-44.5 -9t-40.5 -2.5q-75 0 -114.5 37.5t-39.5 111.5q0 35 10.5 68.5t31.5 60t53 43t76 16.5h137v71h28v-308z" />
    <glyph glyph-name="alef.vasla.fina" unicode="&#x671;" horiz-adv-x="213" arabic-form="final" 
d="M202 0q-25 0 -48 7.5t-40.5 25.5t-28 47.5t-10.5 73.5v311h28v-311q0 -26 5.5 -49t17 -40t30.5 -27t46 -10h11q22 0 22 -14t-22 -14h-11zM8 578q44 86 80 120t72 34q33 0 57.5 -25.5t24.5 -62.5q0 -15 -5 -31.5t-17 -30.5t-32 -23t-51 -9h-134l-17 16v103l22 5v-96z
M135 572q35 0 60 17t25 55q0 25 -17 45t-46 20q-18 0 -35 -11t-32.5 -29.5t-31 -43.5t-30.5 -53h107z" />
    <glyph glyph-name="pe.fina" unicode="&#x67e;" horiz-adv-x="830" arabic-form="final" 
d="M588 28q50 0 77 25.5t27 67.5v159h28v-159q0 -27 9 -44.5t23 -28.5t31 -15.5t34 -4.5h13q13 0 17.5 -4t4.5 -10q0 -7 -4.5 -10.5t-17.5 -3.5h-13q-35 0 -66 14.5t-48 53.5q-20 -39 -51 -53.5t-64 -14.5h-374q-41 0 -70.5 12.5t-48 33.5t-27 49t-8.5 59v126h27v-121
q0 -58 31 -94.5t102 -36.5h368zM418 -263h-56v44h56v-44zM472 -164h-54v44h54v-44zM362 -164h-55v44h55v-44z" />
    <glyph glyph-name="pe.init" unicode="&#x67e;" horiz-adv-x="280" arabic-form="initial" 
d="M88 28q45 0 75 25.5t30 67.5v159h27v-153q0 -58 -37 -92.5t-95 -34.5h-88q-13 0 -17.5 3.5t-4.5 9.5q0 7 4.5 11t17.5 4h88zM133 -263h-56v44h56v-44zM187 -164h-54v44h54v-44zM77 -164h-55v44h55v-44z" />
    <glyph glyph-name="pe.medi" unicode="&#x67e;" horiz-adv-x="346" arabic-form="medial" 
d="M82 28q50 0 77.5 25.5t27.5 67.5v159h28v-159q0 -27 9 -44.5t22.5 -28.5t30.5 -15.5t34 -4.5h35q23 0 23 -14t-23 -14h-35q-35 0 -65.5 14.5t-47.5 53.5q-21 -39 -51.5 -53.5t-64.5 -14.5h-82q-13 0 -17.5 3.5t-4.5 9.5q0 7 4.5 11t17.5 4h82zM187 -263h-56v44h56v-44z
M241 -164h-54v44h54v-44zM131 -164h-55v44h55v-44z" />
    <glyph glyph-name="veh.fina" unicode="&#x6a4;" horiz-adv-x="902" arabic-form="final" 
d="M632 352q-33 0 -59.5 -11.5t-45 -31t-28.5 -45.5t-10 -55q0 -35 15.5 -63t38.5 -49t50 -35.5t50 -23.5q16 9 39 23.5t43.5 35t35 47.5t14.5 60t-10 60t-28.5 46.5t-45 30.5t-59.5 11zM637 380q42 0 73 -14.5t51.5 -37.5t31 -52.5t10.5 -60.5q0 -54 -30.5 -102t-96.5 -85
h226q22 0 22 -14t-22 -14h-121q-46 0 -82 1.5t-56 9.5q-15 -4 -35.5 -6.5t-42 -3.5t-42 -1h-34.5h-275q-41 0 -70.5 12.5t-48 33.5t-27 49t-8.5 59v126h27v-121q0 -58 31 -94.5t102 -36.5h384q-62 25 -102 72t-40 109q0 33 12 64t34.5 54.5t55 38t73.5 14.5zM660 594h-56v44
h56v-44zM714 495h-54v44h54v-44zM604 495h-55v44h55v-44z" />
    <glyph glyph-name="veh.init" unicode="&#x6a4;" horiz-adv-x="495" arabic-form="initial" 
d="M248 28q19 0 38 2.5t36 7.5q-78 24 -122.5 44.5t-67 42.5t-28 46.5t-5.5 54.5q0 28 11 57.5t32.5 53.5t53.5 39t73 15q37 0 68 -10.5t52.5 -34t33.5 -60t12 -88.5v-39q0 -74 -46.5 -116.5t-146.5 -42.5h-242q-13 0 -17.5 3.5t-4.5 9.5q0 7 4.5 11t17.5 4h248zM264 363
q-31 0 -56 -11.5t-43 -30t-28 -42t-10 -48.5t4.5 -45.5t26.5 -40.5t69 -41t132 -48q21 15 34.5 39t13.5 59v39q0 82 -34 126t-109 44zM297 605h-56v44h56v-44zM351 506h-54v44h54v-44zM241 506h-55v44h55v-44z" />
    <glyph glyph-name="veh.medi" unicode="&#x6a4;" horiz-adv-x="539" arabic-form="medial" 
d="M242 28q-63 25 -103 72t-40 109q0 33 12 64t34.5 54.5t55.5 38t74 14.5t72 -14.5t51.5 -37.5t31 -52.5t10.5 -60.5q0 -54 -30 -102t-97 -85h226q22 0 22 -14t-22 -14h-121q-45 0 -81 1.5t-57 9.5q-14 -4 -34.5 -6.5t-42 -3.5t-42 -1h-34.5h-127q-13 0 -17.5 3.5t-4.5 9.5
q0 7 4.5 11t17.5 4h242zM269 352q-33 0 -59 -11.5t-44.5 -31t-28.5 -45.5t-10 -55q0 -35 15.5 -63t38.5 -49t49.5 -35.5t49.5 -23.5q16 9 39 23.5t44 35t35.5 47.5t14.5 60q0 66 -38.5 107t-105.5 41zM308 594h-56v44h56v-44zM362 495h-54v44h54v-44zM252 495h-55v44h55v-44
z" />
    <glyph glyph-name="che.fina" unicode="&#x686;" horiz-adv-x="566" arabic-form="final" 
d="M453 218q-8 29 -18.5 52t-27.5 38.5t-42.5 24t-62.5 8.5h-214l6 28h208q25 0 51.5 -2.5t50.5 -18t45 -49t35 -95.5l-97 -53q12 -35 24 -59t26 -38t32.5 -20t42.5 -6h54q13 0 17.5 -4t4.5 -10q0 -7 -4.5 -10.5t-17.5 -3.5h-60q-32 0 -53.5 10t-37 28.5t-26.5 44t-22 57.5
l-96 -52q-51 -28 -87.5 -53.5t-60.5 -52.5t-35 -56.5t-11 -64.5q0 -91 54 -130t166 -39h187l-5 -27h-188q-68 0 -114 15t-74.5 40.5t-40.5 60.5t-12 74q0 37 9.5 69.5t31.5 62.5t59 59t93 59zM328 -217h-56v44h56v-44zM382 -118h-54v44h54v-44zM272 -118h-55v44h55v-44z" />
    <glyph glyph-name="che.init" unicode="&#x686;" horiz-adv-x="577" arabic-form="initial" 
d="M291 61q-24 -15 -46.5 -26t-49 -19t-59 -12t-75.5 -4h-61q-13 0 -17.5 3.5t-4.5 9.5q0 7 4.5 11t17.5 4h61q39 0 69 3.5t55.5 11t48 18.5t46.5 25l212 123q-9 29 -20.5 53t-29.5 41.5t-44 27.5t-63 10h-236l6 28h230q25 0 52 -4t52.5 -21.5t47 -51.5t35.5 -94zM314 -263
h-56v44h56v-44zM368 -164h-54v44h54v-44zM258 -164h-55v44h55v-44z" />
    <glyph glyph-name="che.medi" unicode="&#x686;" horiz-adv-x="621" arabic-form="medial" 
d="M426 141q20 -62 45.5 -87.5t72.5 -25.5h77q13 0 17.5 -4t4.5 -10q0 -7 -4.5 -10.5t-17.5 -3.5h-82q-32 0 -53.5 10t-36.5 27t-25 40.5t-20 50.5l-113 -67q-24 -14 -46.5 -25.5t-49 -19.5t-59 -12t-75.5 -4h-61q-13 0 -17.5 3.5t-4.5 9.5q0 7 4.5 11t17.5 4h61
q39 0 69 3.5t55.5 11t48 18.5t46.5 25l212 123q-9 29 -20.5 53t-29.5 41.5t-44 27.5t-63 10h-236l6 28h230q25 0 52 -4t52.5 -21.5t47 -51.5t35.5 -94zM314 -263h-56v44h56v-44zM368 -164h-54v44h54v-44zM258 -164h-55v44h55v-44z" />
    <glyph glyph-name="je.fina" unicode="&#x698;" horiz-adv-x="257" arabic-form="final" 
d="M147 16q0 -62 -18.5 -110t-50.5 -81t-75 -50t-93 -17h-55l-5 27h55q55 0 96 19t67 51t39 74t13 87v264h27v-164q0 -38 26.5 -63t72.5 -25h11q22 0 22 -14t-22 -14h-11q-29 0 -55.5 11t-43.5 36v-31zM142 517h-56v44h56v-44zM196 418h-54v44h54v-44zM86 418h-55v44h55v-44
z" />
    <glyph glyph-name="kaf.fina" unicode="&#x6a9;" horiz-adv-x="951" arabic-form="final" 
d="M416 469v27l332 137l10 -28l-312 -128l213 -213q56 -56 96 -95.5t68 -66t46 -41.5t32 -22t25 -9t25 -2q13 0 17.5 -4t4.5 -10q0 -7 -4.5 -10.5t-17.5 -3.5q-26 0 -46.5 7.5t-43.5 25t-53.5 47t-75.5 73.5q9 -39 2 -68t-26 -48t-47 -28t-62 -9h-385q-41 0 -70.5 12.5
t-48 33.5t-27 49t-8.5 59v126h27v-121q0 -59 31.5 -95t101.5 -36h379q61 0 85.5 25t24.5 63q0 20 -7.5 47.5t-42.5 62.5z" />
    <glyph glyph-name="kaf.init" unicode="&#x6a9;" horiz-adv-x="484" arabic-form="initial" 
d="M280 28q62 0 86.5 25t24.5 63q0 20 -7.5 47.5t-42.5 62.5l-243 243v27l332 137l10 -28l-312 -128l213 -213q25 -25 40 -44t23 -36t11 -33.5t3 -34.5q0 -59 -37.5 -87.5t-100.5 -28.5h-280q-13 0 -17.5 3.5t-4.5 9.5q0 7 4.5 11t17.5 4h280z" />
    <glyph glyph-name="kaf.medi" unicode="&#x6a9;" horiz-adv-x="632" arabic-form="medial" 
d="M280 28q62 0 86.5 25t24.5 63q0 20 -7.5 47.5t-42.5 62.5l-243 243v27l332 137l10 -28l-312 -128l213 -213l95.5 -95.5t67.5 -66t46.5 -41.5t32 -22t24.5 -9t25 -2q13 0 17.5 -4t4.5 -10q0 -7 -4.5 -10.5t-17.5 -3.5q-26 0 -46 7.5t-43.5 25t-53.5 47t-75 73.5
q9 -39 1.5 -68t-26 -48t-47 -28t-62.5 -9h-280q-13 0 -17.5 3.5t-4.5 9.5q0 7 4.5 11t17.5 4h280z" />
    <glyph glyph-name="gaf.fina" unicode="&#x6af;" horiz-adv-x="951" arabic-form="final" 
d="M416 617l299 128l10 -25l-309 -131v28zM416 469v27l332 137l10 -28l-312 -128l213 -213q56 -56 96 -95.5t68 -66t46 -41.5t32 -22t25 -9t25 -2q13 0 17.5 -4t4.5 -10q0 -7 -4.5 -10.5t-17.5 -3.5q-26 0 -46.5 7.5t-43.5 25t-53.5 47t-75.5 73.5q9 -39 2 -68t-26 -48
t-47 -28t-62 -9h-385q-41 0 -70.5 12.5t-48 33.5t-27 49t-8.5 59v126h27v-121q0 -59 31.5 -95t101.5 -36h379q61 0 85.5 25t24.5 63q0 20 -7.5 47.5t-42.5 62.5z" />
    <glyph glyph-name="gaf.init" unicode="&#x6af;" horiz-adv-x="484" arabic-form="initial" 
d="M98 617l299 128l10 -25l-309 -131v28zM280 28q62 0 86.5 25t24.5 63q0 20 -7.5 47.5t-42.5 62.5l-243 243v27l332 137l10 -28l-312 -128l213 -213q25 -25 40 -44t23 -36t11 -33.5t3 -34.5q0 -59 -37.5 -87.5t-100.5 -28.5h-280q-13 0 -17.5 3.5t-4.5 9.5q0 7 4.5 11
t17.5 4h280z" />
    <glyph glyph-name="gaf.medi" unicode="&#x6af;" horiz-adv-x="632" arabic-form="medial" 
d="M98 617l299 128l10 -25l-309 -131v28zM280 28q62 0 86.5 25t24.5 63q0 20 -7.5 47.5t-42.5 62.5l-243 243v27l332 137l10 -28l-312 -128l213 -213l95.5 -95.5t67.5 -66t46.5 -41.5t32 -22t24.5 -9t25 -2q13 0 17.5 -4t4.5 -10q0 -7 -4.5 -10.5t-17.5 -3.5q-26 0 -46 7.5
t-43.5 25t-53.5 47t-75 73.5q9 -39 1.5 -68t-26 -48t-47 -28t-62.5 -9h-280q-13 0 -17.5 3.5t-4.5 9.5q0 7 4.5 11t17.5 4h280z" />
    <glyph glyph-name="he.thmz.fina" unicode="&#x6c0;" horiz-adv-x="506" arabic-form="final" 
d="M181 522q-41 0 -59 20.5t-18 45.5q0 8 1.5 17t7 21.5t15 29.5t25.5 42h116l-6 -27h-95q-20 -29 -28 -47t-8 -32q0 -15 10.5 -28.5t44.5 -13.5h201l-3 -28h-204zM220 71q33 0 60 7t46.5 19t30.5 28t11 34v204h-143q-63 0 -100.5 -45t-37.5 -120q0 -37 9 -61.5t26.5 -39
t42 -20.5t55.5 -6zM396 154q0 -27 4.5 -50t16 -40t30.5 -26.5t48 -9.5h11q12 0 16.5 -4t4.5 -10q0 -7 -4.5 -10.5t-16.5 -3.5h-11q-42 0 -75.5 21t-47.5 81q-12 -18 -31.5 -29t-41.5 -17.5t-44.5 -9t-40.5 -2.5q-75 0 -114.5 35t-39.5 114q0 37 10.5 72.5t31.5 63.5t53 45
t76 17h165v-237z" />
    <glyph glyph-name="he.dochashmi.fina" unicode="&#x6be;" horiz-adv-x="627" arabic-form="final" 
d="M355 -227q-76 0 -118.5 33t-43.5 118q-35 -17 -73 -33.5t-76 -33.5l-11 27q42 19 82 37t78 36v208q0 35 8 71t26.5 65.5t49 48.5t75.5 19q37 0 65 -12t46.5 -32.5t28 -48.5t9.5 -61q0 -42 -21.5 -79t-59 -71.5t-89 -66t-111.5 -61.5q0 -39 8 -65t23.5 -41.5t38.5 -22.5
t53 -8l80 128q20 31 39 51t42.5 30.5t53 14.5t69.5 4q13 0 17.5 -4t4.5 -10q0 -7 -4.5 -10.5t-17.5 -3.5q-41 0 -68.5 -3.5t-48.5 -14t-38.5 -30t-37.5 -51.5zM220 -30q56 28 102.5 56.5t80 58t52 60.5t18.5 64q0 58 -29 95t-92 37t-97.5 -46.5t-34.5 -129.5v-195z" />
    <glyph glyph-name="he.dochashmi.init" unicode="&#x6be;" horiz-adv-x="726" arabic-form="initial" 
d="M269 341q-33 0 -59 -11.5t-44.5 -31t-28.5 -45.5t-10 -55q0 -35 15.5 -61t38.5 -45t49.5 -32t49.5 -22q16 9 39 21.5t44 31.5t35.5 44t14.5 58q0 66 -38.5 107t-105.5 41zM0 0q-13 0 -17.5 3.5t-4.5 9.5q0 7 4.5 11t17.5 4h236q-60 23 -98.5 65.5t-38.5 104.5q0 33 12 64
t34.5 54.5t55.5 38t74 14.5t72 -14.5t51.5 -37.5t31 -52.5t10.5 -60.5q0 -54 -30 -96.5t-97 -79.5h215q54 0 84.5 25.5t30.5 67.5q0 20 -9 42.5t-29 45.5l-197 217l21 20l198 -220q25 -28 34.5 -54t9.5 -51q0 -54 -38 -87.5t-105 -33.5h-110q-45 0 -81 1.5t-57 9.5
q-14 -4 -34.5 -6.5t-42 -3.5t-42 -1h-34.5h-127z" />
    <glyph glyph-name="he.dochashmi.medi" unicode="&#x6be;" horiz-adv-x="544" arabic-form="medial" 
d="M110 28v137q0 46 11 83.5t31 64.5t49.5 41.5t67.5 14.5q37 0 65 -12t47 -32.5t28 -48.5t9 -61q0 -44 -21 -83t-58.5 -68t-89 -46.5t-112.5 -17.5v-73q0 -71 31.5 -99t91.5 -28l80 128q20 31 39 51t42.5 30.5t53 14.5t69.5 4q13 0 17.5 -4t4.5 -10q0 -7 -4.5 -10.5
t-17.5 -3.5q-41 0 -68.5 -3.5t-48.5 -14t-38.5 -30t-37.5 -51.5l-79 -128q-38 0 -68 7.5t-51 25.5t-32 47.5t-11 73.5v73h-110q-13 0 -17.5 3.5t-4.5 9.5q0 7 4.5 11t17.5 4h110zM137 28q62 0 109.5 16t79.5 41.5t48.5 58t16.5 65.5q0 58 -29.5 95t-92.5 37q-62 0 -97 -46.5
t-35 -129.5v-137z" />
    <glyph glyph-name="vav.tv.fina" unicode="&#x6c6;" horiz-adv-x="501" arabic-form="final" 
d="M148 -215q50 0 89.5 17.5t67 46.5t42 68t16.5 83h-132q-51 0 -84 11t-52 31t-26.5 48.5t-7.5 63.5q0 37 10.5 71t31.5 59.5t52 41t71 15.5q33 0 62.5 -11t52.5 -34t36.5 -59.5t13.5 -88.5v-120h110q12 0 16.5 -4t4.5 -10q0 -7 -4.5 -10.5t-16.5 -3.5h-112q-2 -49 -19 -93
t-47.5 -77t-73 -52.5t-95.5 -19.5h-110l-6 27h110zM88 154q0 -33 7 -57t25 -39t49 -22.5t79 -7.5h115v104q0 95 -38.5 138t-104.5 43q-63 0 -97.5 -44t-34.5 -115zM317 616l19 -11l-96 -187h-18l-96 187l19 11l86 -170z" />
    <glyph glyph-name="alef.maksura.init" unicode="&#x649;" horiz-adv-x="280" arabic-form="initial" 
d="M88 28q45 0 75 25.5t30 67.5v159h27v-153q0 -58 -37 -92.5t-95 -34.5h-88q-13 0 -17.5 3.5t-4.5 9.5q0 7 4.5 11t17.5 4h88z" />
    <glyph glyph-name="alef.maksura.medi" unicode="&#x649;" horiz-adv-x="346" arabic-form="medial" 
d="M82 28q50 0 77.5 25.5t27.5 67.5v159h28v-159q0 -27 9 -44.5t22.5 -28.5t30.5 -15.5t34 -4.5h35q23 0 23 -14t-23 -14h-35q-35 0 -65.5 14.5t-47.5 53.5q-21 -39 -51.5 -53.5t-64.5 -14.5h-82q-13 0 -17.5 3.5t-4.5 9.5q0 7 4.5 11t17.5 4h82z" />
    <glyph glyph-name="ye.fina" unicode="&#x6cc;" horiz-adv-x="710" arabic-form="final" 
d="M380 -215q57 0 98 14t66.5 35.5t37.5 48t12 51.5q0 29 -14 47.5t-47 18.5h-192l5 28h364q22 0 22 -14t-22 -14h-111q13 -13 17.5 -28.5t4.5 -32.5q0 -27 -11.5 -58.5t-38.5 -58.5t-72.5 -45.5t-113.5 -18.5h-94q-112 0 -174 69t-62 189v171h27v-171q0 -51 13.5 -93.5
t40.5 -73t67 -47.5t94 -17h83z" />
    <glyph glyph-name="ye.init" unicode="&#x6cc;" horiz-adv-x="280" arabic-form="initial" 
d="M88 28q45 0 75 25.5t30 67.5v159h27v-153q0 -58 -37 -92.5t-95 -34.5h-88q-13 0 -17.5 3.5t-4.5 9.5q0 7 4.5 11t17.5 4h88zM181 -164h-49v44h49v-44zM66 -164h-50v44h50v-44z" />
    <glyph glyph-name="ye.medi" unicode="&#x6cc;" horiz-adv-x="346" arabic-form="medial" 
d="M82 28q50 0 77.5 25.5t27.5 67.5v159h28v-159q0 -27 9 -44.5t22.5 -28.5t30.5 -15.5t34 -4.5h35q23 0 23 -14t-23 -14h-35q-35 0 -65.5 14.5t-47.5 53.5q-21 -39 -51.5 -53.5t-64.5 -14.5h-82q-13 0 -17.5 3.5t-4.5 9.5q0 7 4.5 11t17.5 4h82zM247 -164h-49v44h49v-44z
M132 -164h-50v44h50v-44z" />
    <glyph glyph-name=".shdd.on" unicode="&#xfc5e;" arabic-form="isolated" 
d="M13 305q-38 20 -52.5 46.5t-14.5 49.5q0 19 7 36.5t19.5 31.5t30.5 22.5t40 8.5q42 0 68.5 -27.5t26.5 -66.5q0 -32 -20 -60.5t-76 -51.5l-149 -63l-9 21v100q0 22 -19 22h-47v22h49q17 0 28 -9.5t11 -34.5v-91zM-32 403q0 -27 19.5 -50.5t49.5 -35.5q14 5 28 13
t25.5 18.5t18.5 23.5t7 29q0 29 -19 53.5t-54 24.5q-19 0 -33 -7t-23.5 -18t-14 -24.5t-4.5 -26.5zM0 11q-8 -7 -14 -9t-14 -2h-25q-13 0 -29.5 4t-31.5 16.5t-25 36t-10 62.5v63h22v-77q0 -47 21 -65t53 -18h42v160h22v-160h42q32 0 53 18t21 65v77h21v-63q0 -39 -10 -62.5
t-24.5 -36t-31 -16.5t-29.5 -4h-25q-9 0 -14.5 2t-13.5 9z" />
    <glyph glyph-name=".shdd.en" unicode="&#xfc5f;" arabic-form="isolated" 
d="M0 330q-8 -7 -14 -9t-14 -2h-25q-13 0 -29.5 4t-31.5 16.5t-25 36t-10 62.5v63h22v-77q0 -47 21 -65t53 -18h42v160h22v-160h42q32 0 53 18t21 65v77h21v-63q0 -39 -10 -62.5t-24.5 -36t-31 -16.5t-29.5 -4h-25q-9 0 -14.5 2t-13.5 9zM107 116l9 -21l-223 -95l-9 21z
M107 237l9 -21l-223 -95l-9 21z" />
    <glyph glyph-name=".shdd.a" unicode="&#xfc60;" arabic-form="isolated" 
d="M107 347l9 -21l-223 -95l-9 21zM0 11q-8 -7 -14 -9t-14 -2h-25q-13 0 -29.5 4t-31.5 16.5t-25 36t-10 62.5v63h22v-77q0 -47 21 -65t53 -18h42v160h22v-160h42q32 0 53 18t21 65v77h21v-63q0 -39 -10 -62.5t-24.5 -36t-31 -16.5t-29.5 -4h-25q-9 0 -14.5 2t-13.5 9z" />
    <glyph glyph-name=".shdd.o" unicode="&#xfc61;" arabic-form="isolated" 
d="M-127 252l129 53q-38 20 -52.5 46.5t-14.5 49.5q0 19 7 36.5t19.5 31.5t30.5 22.5t40 8.5q42 0 68.5 -27.5t26.5 -66.5q0 -32 -20 -60.5t-76 -51.5l-149 -63zM-43 403q0 -27 19.5 -50.5t49.5 -35.5q14 5 28 13t25.5 18.5t18.5 23.5t7 29q0 29 -19 53.5t-54 24.5
q-19 0 -33 -7t-23.5 -18t-14 -24.5t-4.5 -26.5zM0 11q-8 -7 -14 -9t-14 -2h-25q-13 0 -29.5 4t-31.5 16.5t-25 36t-10 62.5v63h22v-77q0 -47 21 -65t53 -18h42v160h22v-160h42q32 0 53 18t21 65v77h21v-63q0 -39 -10 -62.5t-24.5 -36t-31 -16.5t-29.5 -4h-25q-9 0 -14.5 2
t-13.5 9z" />
    <glyph glyph-name=".shdd.e" unicode="&#xfc62;" arabic-form="isolated" 
d="M0 187q-8 -7 -14 -9t-14 -2h-25q-13 0 -29.5 4t-31.5 16.5t-25 36t-10 62.5v63h22v-77q0 -47 21 -65t53 -18h42v160h22v-160h42q32 0 53 18t21 65v77h21v-63q0 -39 -10 -62.5t-24.5 -36t-31 -16.5t-29.5 -4h-25q-9 0 -14.5 2t-13.5 9zM107 116l9 -21l-223 -95l-9 21z" />
    <glyph glyph-name=".shdd.aa" unicode="&#xfc63;" arabic-form="isolated" 
d="M1 11q-8 -7 -14 -9t-14 -2h-25q-13 0 -29.5 4t-31.5 16.5t-25 36t-10 62.5v63h22v-77q0 -47 21 -65t53 -18h42v160h22v-160h42q32 0 53 18t21 65v77h21v-63q0 -39 -10 -62.5t-24.5 -36t-31 -16.5t-29.5 -4h-25q-9 0 -14.5 2t-13.5 9zM-11 423h22v-170h-22v170z" />
    <glyph glyph-name="rial" unicode="&#xfdfc;" horiz-adv-x="1319" arabic-form="isolated" 
d="M992 -215h25q55 0 96 19t67 51t39 74t13 87v264h27v-264q0 -62 -18.5 -110t-50.5 -81t-75 -50t-93 -17h-25zM946 28q45 0 75 25.5t30 67.5v159h27v-153q0 -58 -37 -92.5t-95 -34.5h-88q-13 0 -17.5 3.5t-4.5 9.5q0 7 4.5 11t17.5 4h88zM907 -241h-49v44h49v-44zM792 -241
h-50v44h50v-44zM847 0q-25 0 -48 7.5t-40.5 25.5t-28 47.5t-10.5 73.5v466h28v-466q0 -26 5.5 -49t17 -40t30.5 -27t46 -10h11q22 0 22 -14t-22 -14h-11zM588 16q0 -51 -17 -98t-48.5 -82.5t-76 -56.5t-100.5 -21h-55q-112 0 -174 69t-62 189v171h27v-171q0 -51 13.5 -93.5
t40.5 -73t67 -47.5t94 -17h44q52 0 92.5 18.5t69 49.5t43.5 72t15 86v609h27v-604z" />
    <glyph glyph-name="alef.aa.fina" unicode="&#x622;" horiz-adv-x="213" arabic-form="final" 
d="M202 0q-25 0 -48 7.5t-40.5 25.5t-28 47.5t-10.5 73.5v341h28v-341q0 -26 5.5 -49t17 -40t30.5 -27t46 -10h11q22 0 22 -14t-22 -14h-11zM46 612q-17 0 -29.5 -3.5t-21.5 -23.5l-20 -45l-21 9l21 47q7 16 14.5 25t16 13.5t18.5 5t22 0.5h165v-28h-165z" />
    <glyph glyph-name="alef.thmz.fina" unicode="&#x623;" horiz-adv-x="213" arabic-form="final" 
d="M202 0q-25 0 -48 7.5t-40.5 25.5t-28 47.5t-10.5 73.5v297h28v-297q0 -26 5.5 -49t17 -40t30.5 -27t46 -10h11q22 0 22 -14t-22 -14h-11zM190 616l-185 -94l-11 21l78 39q-20 2 -34 10.5t-23 21.5t-13.5 28t-4.5 29q0 42 25.5 68t67.5 26h47l-5 -22h-37q-36 0 -56 -21.5
t-20 -50.5q0 -33 22.5 -52.5t49.5 -19.5q17 0 39 11.5t51 25.5z" />
    <glyph glyph-name="vav.thmz.fina" unicode="&#x624;" horiz-adv-x="501" arabic-form="final" 
d="M148 -215q50 0 89.5 17.5t67 46.5t42 68t16.5 83h-132q-51 0 -84 11t-52 31t-26.5 48.5t-7.5 63.5q0 37 10.5 71t31.5 59.5t52 41t71 15.5q33 0 62.5 -11t52.5 -34t36.5 -59.5t13.5 -88.5v-120h110q12 0 16.5 -4t4.5 -10q0 -7 -4.5 -10.5t-16.5 -3.5h-112q-2 -49 -19 -93
t-47.5 -77t-73 -52.5t-95.5 -19.5h-110l-6 27h110zM88 154q0 -33 7 -57t25 -39t49 -22.5t79 -7.5h115v104q0 95 -38.5 138t-104.5 43q-63 0 -97.5 -44t-34.5 -115zM303 506l-185 -94l-11 21l78 39q-20 2 -34 10.5t-23 21.5t-13.5 28t-4.5 29q0 42 25.5 68t67.5 26h47l-5 -22
h-37q-36 0 -56 -21.5t-20 -50.5q0 -33 22.5 -52.5t49.5 -19.5q17 0 39 11.5t51 25.5z" />
    <glyph glyph-name="alef.bhmz.fina" unicode="&#x625;" horiz-adv-x="213" arabic-form="final" 
d="M202 0q-25 0 -48 7.5t-40.5 25.5t-28 47.5t-10.5 73.5v466h28v-466q0 -26 5.5 -49t17 -40t30.5 -27t46 -10h11q22 0 22 -14t-22 -14h-11zM240 -258l-185 -94l-11 21l78 39q-20 2 -34 10.5t-23 21.5t-13.5 28t-4.5 29q0 42 25.5 68t67.5 26h47l-5 -22h-37q-36 0 -56 -21.5
t-20 -50.5q0 -33 22.5 -52.5t49.5 -19.5q17 0 39 11.5t51 25.5z" />
    <glyph glyph-name="ye.thmz.fina" unicode="&#x626;" horiz-adv-x="710" arabic-form="final" 
d="M380 -215q57 0 98 14t66.5 35.5t37.5 48t12 51.5q0 29 -14 47.5t-47 18.5h-192l5 28h364q22 0 22 -14t-22 -14h-111q13 -13 17.5 -28.5t4.5 -32.5q0 -27 -11.5 -58.5t-38.5 -58.5t-72.5 -45.5t-113.5 -18.5h-94q-112 0 -174 69t-62 189v171h27v-171q0 -51 13.5 -93.5
t40.5 -73t67 -47.5t94 -17h83zM429 258l-185 -94l-11 21l78 39q-20 2 -34 10.5t-23 21.5t-13.5 28t-4.5 29q0 42 25.5 68t67.5 26h47l-5 -22h-37q-36 0 -56 -21.5t-20 -50.5q0 -33 22.5 -52.5t49.5 -19.5q17 0 39 11.5t51 25.5z" />
    <glyph glyph-name="ye.thmz.init" unicode="&#x626;" horiz-adv-x="280" arabic-form="initial" 
d="M88 28q45 0 75 25.5t30 67.5v159h27v-153q0 -58 -37 -92.5t-95 -34.5h-88q-13 0 -17.5 3.5t-4.5 9.5q0 7 4.5 11t17.5 4h88zM275 462l-185 -94l-11 21l78 39q-20 2 -34 10.5t-23 21.5t-13.5 28t-4.5 29q0 42 25.5 68t67.5 26h47l-5 -22h-37q-36 0 -56 -21.5t-20 -50.5
q0 -33 22.5 -52.5t49.5 -19.5q17 0 39 11.5t51 25.5z" />
    <glyph glyph-name="ye.thmz.medi" unicode="&#x626;" horiz-adv-x="346" arabic-form="medial" 
d="M82 28q50 0 77.5 25.5t27.5 67.5v159h28v-159q0 -27 9 -44.5t22.5 -28.5t30.5 -15.5t34 -4.5h35q23 0 23 -14t-23 -14h-35q-35 0 -65.5 14.5t-47.5 53.5q-21 -39 -51.5 -53.5t-64.5 -14.5h-82q-13 0 -17.5 3.5t-4.5 9.5q0 7 4.5 11t17.5 4h82zM281 462l-185 -94l-11 21
l78 39q-20 2 -34 10.5t-23 21.5t-13.5 28t-4.5 29q0 42 25.5 68t67.5 26h47l-5 -22h-37q-36 0 -56 -21.5t-20 -50.5q0 -33 22.5 -52.5t49.5 -19.5q17 0 39 11.5t51 25.5z" />
    <glyph glyph-name="alef.fina" unicode="&#x627;" horiz-adv-x="213" arabic-form="final" 
d="M202 0q-25 0 -48 7.5t-40.5 25.5t-28 47.5t-10.5 73.5v466h28v-466q0 -26 5.5 -49t17 -40t30.5 -27t46 -10h11q22 0 22 -14t-22 -14h-11z" />
    <glyph glyph-name="be.fina" unicode="&#x628;" horiz-adv-x="830" arabic-form="final" 
d="M588 28q50 0 77 25.5t27 67.5v159h28v-159q0 -27 9 -44.5t23 -28.5t31 -15.5t34 -4.5h13q13 0 17.5 -4t4.5 -10q0 -7 -4.5 -10.5t-17.5 -3.5h-13q-35 0 -66 14.5t-48 53.5q-20 -39 -51 -53.5t-64 -14.5h-374q-41 0 -70.5 12.5t-48 33.5t-27 49t-8.5 59v126h27v-121
q0 -58 31 -94.5t102 -36.5h368zM407 -164h-56v44h56v-44z" />
    <glyph glyph-name="be.init" unicode="&#x628;" horiz-adv-x="280" arabic-form="initial" 
d="M88 28q45 0 75 25.5t30 67.5v159h27v-153q0 -58 -37 -92.5t-95 -34.5h-88q-13 0 -17.5 3.5t-4.5 9.5q0 7 4.5 11t17.5 4h88zM116 -164h-56v44h56v-44z" />
    <glyph glyph-name="be.medi" unicode="&#x628;" horiz-adv-x="346" arabic-form="medial" 
d="M82 28q50 0 77.5 25.5t27.5 67.5v159h28v-159q0 -27 9 -44.5t22.5 -28.5t30.5 -15.5t34 -4.5h35q23 0 23 -14t-23 -14h-35q-35 0 -65.5 14.5t-47.5 53.5q-21 -39 -51.5 -53.5t-64.5 -14.5h-82q-13 0 -17.5 3.5t-4.5 9.5q0 7 4.5 11t17.5 4h82zM204 -164h-56v44h56v-44z
" />
    <glyph glyph-name="te.marbuta.fina" unicode="&#x629;" horiz-adv-x="501" arabic-form="final" 
d="M215 81q33 0 60 7t46.5 19t30.5 28t11 34v194h-143q-63 0 -100.5 -42t-37.5 -113q0 -70 35 -98.5t98 -28.5zM391 154q0 -27 4.5 -50t16 -40t30.5 -26.5t48 -9.5h11q12 0 16.5 -4t4.5 -10q0 -7 -4.5 -10.5t-16.5 -3.5h-11q-21 0 -41 5t-36.5 17.5t-28.5 34t-17 55.5
q-12 -18 -31.5 -29t-41.5 -17.5t-44.5 -9t-40.5 -2.5q-75 0 -114.5 37.5t-39.5 111.5q0 35 10.5 68.5t31.5 60t53 43t76 16.5h137v71h28v-308zM368 555h-54v44h54v-44zM258 555h-55v44h55v-44z" />
    <glyph glyph-name="te.fina" unicode="&#x62a;" horiz-adv-x="830" arabic-form="final" 
d="M588 28q50 0 77 25.5t27 67.5v159h28v-159q0 -27 9 -44.5t23 -28.5t31 -15.5t34 -4.5h13q13 0 17.5 -4t4.5 -10q0 -7 -4.5 -10.5t-17.5 -3.5h-13q-35 0 -66 14.5t-48 53.5q-20 -39 -51 -53.5t-64 -14.5h-374q-41 0 -70.5 12.5t-48 33.5t-27 49t-8.5 59v126h27v-121
q0 -58 31 -94.5t102 -36.5h368zM472 374h-54v44h54v-44zM362 374h-55v44h55v-44z" />
    <glyph glyph-name="te.init" unicode="&#x62a;" horiz-adv-x="280" arabic-form="initial" 
d="M88 28q45 0 75 25.5t30 67.5v159h27v-153q0 -58 -37 -92.5t-95 -34.5h-88q-13 0 -17.5 3.5t-4.5 9.5q0 7 4.5 11t17.5 4h88zM236 418h-54v44h54v-44zM126 418h-55v44h55v-44z" />
    <glyph glyph-name="te.medi" unicode="&#x62a;" horiz-adv-x="346" arabic-form="medial" 
d="M82 28q50 0 77.5 25.5t27.5 67.5v159h28v-159q0 -27 9 -44.5t22.5 -28.5t30.5 -15.5t34 -4.5h35q23 0 23 -14t-23 -14h-35q-35 0 -65.5 14.5t-47.5 53.5q-21 -39 -51.5 -53.5t-64.5 -14.5h-82q-13 0 -17.5 3.5t-4.5 9.5q0 7 4.5 11t17.5 4h82zM275 418h-54v44h54v-44z
M165 418h-55v44h55v-44z" />
    <glyph glyph-name="the.fina" unicode="&#x62b;" horiz-adv-x="830" arabic-form="final" 
d="M588 28q50 0 77 25.5t27 67.5v159h28v-159q0 -27 9 -44.5t23 -28.5t31 -15.5t34 -4.5h13q13 0 17.5 -4t4.5 -10q0 -7 -4.5 -10.5t-17.5 -3.5h-13q-35 0 -66 14.5t-48 53.5q-20 -39 -51 -53.5t-64 -14.5h-374q-41 0 -70.5 12.5t-48 33.5t-27 49t-8.5 59v126h27v-121
q0 -58 31 -94.5t102 -36.5h368zM418 473h-56v44h56v-44zM472 374h-54v44h54v-44zM362 374h-55v44h55v-44z" />
    <glyph glyph-name="the.init" unicode="&#x62b;" horiz-adv-x="280" arabic-form="initial" 
d="M88 28q45 0 75 25.5t30 67.5v159h27v-153q0 -58 -37 -92.5t-95 -34.5h-88q-13 0 -17.5 3.5t-4.5 9.5q0 7 4.5 11t17.5 4h88zM182 517h-56v44h56v-44zM236 418h-54v44h54v-44zM126 418h-55v44h55v-44z" />
    <glyph glyph-name="the.medi" unicode="&#x62b;" horiz-adv-x="346" arabic-form="medial" 
d="M82 28q50 0 77.5 25.5t27.5 67.5v159h28v-159q0 -27 9 -44.5t22.5 -28.5t30.5 -15.5t34 -4.5h35q23 0 23 -14t-23 -14h-35q-35 0 -65.5 14.5t-47.5 53.5q-21 -39 -51.5 -53.5t-64.5 -14.5h-82q-13 0 -17.5 3.5t-4.5 9.5q0 7 4.5 11t17.5 4h82zM221 517h-56v44h56v-44z
M275 418h-54v44h54v-44zM165 418h-55v44h55v-44z" />
    <glyph glyph-name="jim.fina" unicode="&#x62c;" horiz-adv-x="566" arabic-form="final" 
d="M453 218q-8 29 -18.5 52t-27.5 38.5t-42.5 24t-62.5 8.5h-214l6 28h208q25 0 51.5 -2.5t50.5 -18t45 -49t35 -95.5l-97 -53q12 -35 24 -59t26 -38t32.5 -20t42.5 -6h54q13 0 17.5 -4t4.5 -10q0 -7 -4.5 -10.5t-17.5 -3.5h-60q-32 0 -53.5 10t-37 28.5t-26.5 44t-22 57.5
l-96 -52q-51 -28 -87.5 -53.5t-60.5 -52.5t-35 -56.5t-11 -64.5q0 -91 54 -130t166 -39h187l-5 -27h-188q-68 0 -114 15t-74.5 40.5t-40.5 60.5t-12 74q0 37 9.5 69.5t31.5 62.5t59 59t93 59zM333 -143h-56v44h56v-44z" />
    <glyph glyph-name="jim.init" unicode="&#x62c;" horiz-adv-x="577" arabic-form="initial" 
d="M291 61q-24 -15 -46.5 -26t-49 -19t-59 -12t-75.5 -4h-61q-13 0 -17.5 3.5t-4.5 9.5q0 7 4.5 11t17.5 4h61q39 0 69 3.5t55.5 11t48 18.5t46.5 25l212 123q-9 29 -20.5 53t-29.5 41.5t-44 27.5t-63 10h-236l6 28h230q25 0 52 -4t52.5 -21.5t47 -51.5t35.5 -94zM270 -164
h-56v44h56v-44z" />
    <glyph glyph-name="jim.medi" unicode="&#x62c;" horiz-adv-x="621" arabic-form="medial" 
d="M426 141q20 -62 45.5 -87.5t72.5 -25.5h77q13 0 17.5 -4t4.5 -10q0 -7 -4.5 -10.5t-17.5 -3.5h-82q-32 0 -53.5 10t-36.5 27t-25 40.5t-20 50.5l-113 -67q-24 -14 -46.5 -25.5t-49 -19.5t-59 -12t-75.5 -4h-61q-13 0 -17.5 3.5t-4.5 9.5q0 7 4.5 11t17.5 4h61
q39 0 69 3.5t55.5 11t48 18.5t46.5 25l212 123q-9 29 -20.5 53t-29.5 41.5t-44 27.5t-63 10h-236l6 28h230q25 0 52 -4t52.5 -21.5t47 -51.5t35.5 -94zM270 -164h-56v44h56v-44z" />
    <glyph glyph-name="him.fina" unicode="&#x62d;" horiz-adv-x="566" arabic-form="final" 
d="M453 218q-8 29 -18.5 52t-27.5 38.5t-42.5 24t-62.5 8.5h-214l6 28h208q25 0 51.5 -2.5t50.5 -18t45 -49t35 -95.5l-97 -53q12 -35 24 -59t26 -38t32.5 -20t42.5 -6h54q13 0 17.5 -4t4.5 -10q0 -7 -4.5 -10.5t-17.5 -3.5h-60q-32 0 -53.5 10t-37 28.5t-26.5 44t-22 57.5
l-96 -52q-51 -28 -87.5 -53.5t-60.5 -52.5t-35 -56.5t-11 -64.5q0 -91 54 -130t166 -39h187l-5 -27h-188q-68 0 -114 15t-74.5 40.5t-40.5 60.5t-12 74q0 37 9.5 69.5t31.5 62.5t59 59t93 59z" />
    <glyph glyph-name="him.init" unicode="&#x62d;" horiz-adv-x="577" arabic-form="initial" 
d="M291 61q-24 -15 -46.5 -26t-49 -19t-59 -12t-75.5 -4h-61q-13 0 -17.5 3.5t-4.5 9.5q0 7 4.5 11t17.5 4h61q39 0 69 3.5t55.5 11t48 18.5t46.5 25l212 123q-9 29 -20.5 53t-29.5 41.5t-44 27.5t-63 10h-236l6 28h230q25 0 52 -4t52.5 -21.5t47 -51.5t35.5 -94z" />
    <glyph glyph-name="him.medi" unicode="&#x62d;" horiz-adv-x="621" arabic-form="medial" 
d="M426 141q20 -62 45.5 -87.5t72.5 -25.5h77q13 0 17.5 -4t4.5 -10q0 -7 -4.5 -10.5t-17.5 -3.5h-82q-32 0 -53.5 10t-36.5 27t-25 40.5t-20 50.5l-113 -67q-24 -14 -46.5 -25.5t-49 -19.5t-59 -12t-75.5 -4h-61q-13 0 -17.5 3.5t-4.5 9.5q0 7 4.5 11t17.5 4h61
q39 0 69 3.5t55.5 11t48 18.5t46.5 25l212 123q-9 29 -20.5 53t-29.5 41.5t-44 27.5t-63 10h-236l6 28h230q25 0 52 -4t52.5 -21.5t47 -51.5t35.5 -94z" />
    <glyph glyph-name="khe.fina" unicode="&#x62e;" horiz-adv-x="566" arabic-form="final" 
d="M453 218q-8 29 -18.5 52t-27.5 38.5t-42.5 24t-62.5 8.5h-214l6 28h208q25 0 51.5 -2.5t50.5 -18t45 -49t35 -95.5l-97 -53q12 -35 24 -59t26 -38t32.5 -20t42.5 -6h54q13 0 17.5 -4t4.5 -10q0 -7 -4.5 -10.5t-17.5 -3.5h-60q-32 0 -53.5 10t-37 28.5t-26.5 44t-22 57.5
l-96 -52q-51 -28 -87.5 -53.5t-60.5 -52.5t-35 -56.5t-11 -64.5q0 -91 54 -130t166 -39h187l-5 -27h-188q-68 0 -114 15t-74.5 40.5t-40.5 60.5t-12 74q0 37 9.5 69.5t31.5 62.5t59 59t93 59zM276 490h-56v44h56v-44z" />
    <glyph glyph-name="khe.init" unicode="&#x62e;" horiz-adv-x="577" arabic-form="initial" 
d="M291 61q-24 -15 -46.5 -26t-49 -19t-59 -12t-75.5 -4h-61q-13 0 -17.5 3.5t-4.5 9.5q0 7 4.5 11t17.5 4h61q39 0 69 3.5t55.5 11t48 18.5t46.5 25l212 123q-9 29 -20.5 53t-29.5 41.5t-44 27.5t-63 10h-236l6 28h230q25 0 52 -4t52.5 -21.5t47 -51.5t35.5 -94zM281 490
h-56v44h56v-44z" />
    <glyph glyph-name="khe.medi" unicode="&#x62e;" horiz-adv-x="621" arabic-form="medial" 
d="M426 141q20 -62 45.5 -87.5t72.5 -25.5h77q13 0 17.5 -4t4.5 -10q0 -7 -4.5 -10.5t-17.5 -3.5h-82q-32 0 -53.5 10t-36.5 27t-25 40.5t-20 50.5l-113 -67q-24 -14 -46.5 -25.5t-49 -19.5t-59 -12t-75.5 -4h-61q-13 0 -17.5 3.5t-4.5 9.5q0 7 4.5 11t17.5 4h61
q39 0 69 3.5t55.5 11t48 18.5t46.5 25l212 123q-9 29 -20.5 53t-29.5 41.5t-44 27.5t-63 10h-236l6 28h230q25 0 52 -4t52.5 -21.5t47 -51.5t35.5 -94zM281 490h-56v44h56v-44z" />
    <glyph glyph-name="dal.fina" unicode="&#x62f;" horiz-adv-x="517" arabic-form="final" 
d="M264 28q27 0 45.5 7t30.5 18t17.5 23t5.5 23q0 12 -5 33t-17 59t-33.5 98t-54.5 151l27 11l111 -324q18 -54 43 -76.5t67 -22.5h16q22 0 22 -14t-22 -14h-16q-33 0 -62 13t-54 58q-20 -45 -52 -58t-69 -13h-214l-6 28h220z" />
    <glyph glyph-name="zal.fina" unicode="&#x630;" horiz-adv-x="517" arabic-form="final" 
d="M264 28q27 0 45.5 7t30.5 18t17.5 23t5.5 23q0 12 -5 33t-17 59t-33.5 98t-54.5 151l27 11l111 -324q18 -54 43 -76.5t67 -22.5h16q22 0 22 -14t-22 -14h-16q-33 0 -62 13t-54 58q-20 -45 -52 -58t-69 -13h-214l-6 28h220zM297 610h-56v44h56v-44z" />
    <glyph glyph-name="re.fina" unicode="&#x631;" horiz-adv-x="257" arabic-form="final" 
d="M147 16q0 -62 -18.5 -110t-50.5 -81t-75 -50t-93 -17h-55l-5 27h55q55 0 96 19t67 51t39 74t13 87v264h27v-164q0 -38 26.5 -63t72.5 -25h11q22 0 22 -14t-22 -14h-11q-29 0 -55.5 11t-43.5 36v-31z" />
    <glyph glyph-name="ze.fina" unicode="&#x632;" horiz-adv-x="257" arabic-form="final" 
d="M147 16q0 -62 -18.5 -110t-50.5 -81t-75 -50t-93 -17h-55l-5 27h55q55 0 96 19t67 51t39 74t13 87v264h27v-164q0 -38 26.5 -63t72.5 -25h11q22 0 22 -14t-22 -14h-11q-29 0 -55.5 11t-43.5 36v-31zM153 418h-56v44h56v-44z" />
    <glyph glyph-name="sin.fina" unicode="&#x633;" horiz-adv-x="1177" arabic-form="final" 
d="M588 116q0 -38 27.5 -63t77.5 -25q54 0 85 25.5t31 67.5v159h27v-159q0 -27 8.5 -44.5t22.5 -28.5t32 -15.5t36 -4.5q50 0 77 25.5t27 67.5v159h28v-159q0 -27 9 -44.5t23 -28.5t31 -15.5t34 -4.5h13q22 0 22 -14t-22 -14h-13q-36 0 -66.5 14.5t-47.5 53.5
q-20 -39 -51 -53.5t-64 -14.5q-37 0 -67.5 14.5t-47.5 53.5q-21 -39 -55 -53.5t-72 -14.5t-64 12.5t-41 34.5v-31q0 -51 -17 -98t-48.5 -82.5t-76 -56.5t-100.5 -21h-55q-112 0 -174 69t-62 189v171h27v-171q0 -51 13.5 -93.5t40.5 -73t67 -47.5t94 -17h44q52 0 92.5 18.5
t69 49.5t43.5 72t15 86v269h27v-164z" />
    <glyph glyph-name="sin.init" unicode="&#x633;" horiz-adv-x="703" arabic-form="initial" 
d="M28 28q50 0 79.5 25.5t29.5 67.5v159h28v-159q0 -27 9.5 -44.5t24.5 -28.5t33.5 -15.5t36.5 -4.5q54 0 85 25.5t31 67.5v159h28v-159q0 -27 8.5 -44.5t22.5 -28.5t31.5 -15.5t36.5 -4.5q45 0 74.5 25.5t29.5 67.5v159h27v-153q0 -58 -37 -92.5t-94 -34.5
q-38 0 -68.5 14.5t-47.5 53.5q-20 -39 -54.5 -53.5t-72.5 -14.5q-41 0 -72.5 14.5t-48.5 53.5q-20 -39 -54.5 -53.5t-71.5 -14.5h-22q-13 0 -17.5 3.5t-4.5 9.5q0 7 4.5 11t17.5 4h28z" />
    <glyph glyph-name="sin.medi" unicode="&#x633;" horiz-adv-x="754" arabic-form="medial" 
d="M28 28q50 0 79.5 25.5t29.5 67.5v159h28v-159q0 -27 9.5 -44.5t24.5 -28.5t33.5 -15.5t36.5 -4.5q54 0 85 25.5t31 67.5v159h28v-159q0 -27 8.5 -44.5t22.5 -28.5t31.5 -15.5t36.5 -4.5q49 0 76.5 25.5t27.5 67.5v159h27v-159q0 -27 9 -44.5t23 -28.5t31 -15.5t34 -4.5
h14q22 0 22 -14t-22 -14h-14q-35 0 -65.5 14.5t-47.5 53.5q-21 -39 -52 -53.5t-63 -14.5q-38 0 -68.5 14.5t-47.5 53.5q-20 -39 -54.5 -53.5t-72.5 -14.5q-41 0 -72.5 14.5t-48.5 53.5q-20 -39 -54.5 -53.5t-71.5 -14.5h-22q-13 0 -17.5 3.5t-4.5 9.5q0 7 4.5 11t17.5 4h28z
" />
    <glyph glyph-name="shin.fina" unicode="&#x634;" horiz-adv-x="1177" arabic-form="final" 
d="M588 116q0 -38 27.5 -63t77.5 -25q54 0 85 25.5t31 67.5v159h27v-159q0 -27 8.5 -44.5t22.5 -28.5t32 -15.5t36 -4.5q50 0 77 25.5t27 67.5v159h28v-159q0 -27 9 -44.5t23 -28.5t31 -15.5t34 -4.5h13q22 0 22 -14t-22 -14h-13q-36 0 -66.5 14.5t-47.5 53.5
q-20 -39 -51 -53.5t-64 -14.5q-37 0 -67.5 14.5t-47.5 53.5q-21 -39 -55 -53.5t-72 -14.5t-64 12.5t-41 34.5v-31q0 -51 -17 -98t-48.5 -82.5t-76 -56.5t-100.5 -21h-55q-112 0 -174 69t-62 189v171h27v-171q0 -51 13.5 -93.5t40.5 -73t67 -47.5t94 -17h44q52 0 92.5 18.5
t69 49.5t43.5 72t15 86v269h27v-164zM853 517h-56v44h56v-44zM907 418h-54v44h54v-44zM797 418h-55v44h55v-44z" />
    <glyph glyph-name="shin.init" unicode="&#x634;" horiz-adv-x="703" arabic-form="initial" 
d="M28 28q50 0 79.5 25.5t29.5 67.5v159h28v-159q0 -27 9.5 -44.5t24.5 -28.5t33.5 -15.5t36.5 -4.5q54 0 85 25.5t31 67.5v159h28v-159q0 -27 8.5 -44.5t22.5 -28.5t31.5 -15.5t36.5 -4.5q45 0 74.5 25.5t29.5 67.5v159h27v-153q0 -58 -37 -92.5t-94 -34.5
q-38 0 -68.5 14.5t-47.5 53.5q-20 -39 -54.5 -53.5t-72.5 -14.5q-41 0 -72.5 14.5t-48.5 53.5q-20 -39 -54.5 -53.5t-71.5 -14.5h-22q-13 0 -17.5 3.5t-4.5 9.5q0 7 4.5 11t17.5 4h28zM430 517h-56v44h56v-44zM484 418h-54v44h54v-44zM374 418h-55v44h55v-44z" />
    <glyph glyph-name="shin.medi" unicode="&#x634;" horiz-adv-x="754" arabic-form="medial" 
d="M28 28q50 0 79.5 25.5t29.5 67.5v159h28v-159q0 -27 9.5 -44.5t24.5 -28.5t33.5 -15.5t36.5 -4.5q54 0 85 25.5t31 67.5v159h28v-159q0 -27 8.5 -44.5t22.5 -28.5t31.5 -15.5t36.5 -4.5q49 0 76.5 25.5t27.5 67.5v159h27v-159q0 -27 9 -44.5t23 -28.5t31 -15.5t34 -4.5
h14q22 0 22 -14t-22 -14h-14q-35 0 -65.5 14.5t-47.5 53.5q-21 -39 -52 -53.5t-63 -14.5q-38 0 -68.5 14.5t-47.5 53.5q-20 -39 -54.5 -53.5t-72.5 -14.5q-41 0 -72.5 14.5t-48.5 53.5q-20 -39 -54.5 -53.5t-71.5 -14.5h-22q-13 0 -17.5 3.5t-4.5 9.5q0 7 4.5 11t17.5 4h28z
M430 517h-56v44h56v-44zM484 418h-54v44h54v-44zM374 418h-55v44h55v-44z" />
    <glyph glyph-name="sad.fina" unicode="&#x635;" horiz-adv-x="1254" arabic-form="final" 
d="M654 33q52 95 96 160t84 105.5t77 58t74 17.5t68 -15.5t53.5 -41.5t35.5 -61t13 -74q0 -31 -9 -61t-27 -55q20 -26 48 -32t70 -6h17q22 0 22 -14t-22 -14h-17q-18 0 -36 0.5t-35.5 5t-33.5 14t-30 26.5q-21 -20 -51.5 -33t-71.5 -13h-281q-42 0 -68.5 12.5t-41.5 34.5
v-31q0 -51 -17 -98t-48.5 -82.5t-76 -56.5t-100.5 -21h-55q-112 0 -174 69t-62 189v171h27v-171q0 -51 13.5 -93.5t40.5 -73t67 -47.5t94 -17h44q52 0 92.5 18.5t69 49.5t43.5 72t15 86v269h27v-164q0 -29 18.5 -52t47.5 -31zM1127 182q0 37 -11.5 67t-31 51.5t-45.5 33.5
t-54 12q-35 0 -70.5 -19t-73 -58t-77.5 -99t-84 -142h299q27 0 53.5 8.5t47.5 27t34 47.5t13 71z" />
    <glyph glyph-name="sad.init" unicode="&#x635;" horiz-adv-x="787" arabic-form="initial" 
d="M231 33q52 95 96 160t83.5 105.5t76.5 58t74 17.5t68.5 -15.5t54 -41.5t35.5 -61t13 -74q0 -33 -10.5 -65.5t-32.5 -58.5t-55.5 -42t-78.5 -16h-286q-41 0 -72.5 14.5t-48.5 53.5q-20 -39 -54.5 -53.5t-71.5 -14.5h-22q-13 0 -17.5 3.5t-4.5 9.5q0 7 4.5 11t17.5 4h28
q50 0 79.5 25.5t29.5 67.5v159h28v-159q0 -33 18.5 -56.5t47.5 -31.5zM704 182q0 37 -11.5 67t-31 51.5t-45.5 33.5t-55 12q-70 0 -143.5 -76.5t-161.5 -241.5h299q27 0 53.5 8.5t48 27t34.5 47.5t13 71z" />
    <glyph glyph-name="sad.medi" unicode="&#x635;" horiz-adv-x="831" arabic-form="medial" 
d="M231 33q52 95 96 160t83.5 105.5t76.5 58t74 17.5t68.5 -15.5t54 -41.5t35.5 -61t13 -74q0 -31 -9.5 -61t-27.5 -55q20 -26 48.5 -32t70.5 -6h17q22 0 22 -14t-22 -14h-17q-18 0 -36 0.5t-35.5 5t-33.5 14t-30 26.5q-22 -20 -52.5 -33t-71.5 -13h-286q-41 0 -72.5 14.5
t-48.5 53.5q-20 -39 -54.5 -53.5t-71.5 -14.5h-22q-13 0 -17.5 3.5t-4.5 9.5q0 7 4.5 11t17.5 4h28q50 0 79.5 25.5t29.5 67.5v159h28v-159q0 -33 18.5 -56.5t47.5 -31.5zM704 182q0 37 -11.5 67t-31 51.5t-45.5 33.5t-55 12q-70 0 -143.5 -76.5t-161.5 -241.5h299
q27 0 53.5 8.5t48 27t34.5 47.5t13 71z" />
    <glyph glyph-name="zad.fina" unicode="&#x636;" horiz-adv-x="1254" arabic-form="final" 
d="M654 33q52 95 96 160t84 105.5t77 58t74 17.5t68 -15.5t53.5 -41.5t35.5 -61t13 -74q0 -31 -9 -61t-27 -55q20 -26 48 -32t70 -6h17q22 0 22 -14t-22 -14h-17q-18 0 -36 0.5t-35.5 5t-33.5 14t-30 26.5q-21 -20 -51.5 -33t-71.5 -13h-281q-42 0 -68.5 12.5t-41.5 34.5
v-31q0 -51 -17 -98t-48.5 -82.5t-76 -56.5t-100.5 -21h-55q-112 0 -174 69t-62 189v171h27v-171q0 -51 13.5 -93.5t40.5 -73t67 -47.5t94 -17h44q52 0 92.5 18.5t69 49.5t43.5 72t15 86v269h27v-164q0 -29 18.5 -52t47.5 -31zM1127 182q0 37 -11.5 67t-31 51.5t-45.5 33.5
t-54 12q-35 0 -70.5 -19t-73 -58t-77.5 -99t-84 -142h299q27 0 53.5 8.5t47.5 27t34 47.5t13 71zM941 479h-56v44h56v-44z" />
    <glyph glyph-name="zad.init" unicode="&#x636;" horiz-adv-x="787" arabic-form="initial" 
d="M231 33q52 95 96 160t83.5 105.5t76.5 58t74 17.5t68.5 -15.5t54 -41.5t35.5 -61t13 -74q0 -33 -10.5 -65.5t-32.5 -58.5t-55.5 -42t-78.5 -16h-286q-41 0 -72.5 14.5t-48.5 53.5q-20 -39 -54.5 -53.5t-71.5 -14.5h-22q-13 0 -17.5 3.5t-4.5 9.5q0 7 4.5 11t17.5 4h28
q50 0 79.5 25.5t29.5 67.5v159h28v-159q0 -33 18.5 -56.5t47.5 -31.5zM704 182q0 37 -11.5 67t-31 51.5t-45.5 33.5t-55 12q-70 0 -143.5 -76.5t-161.5 -241.5h299q27 0 53.5 8.5t48 27t34.5 47.5t13 71zM518 479h-56v44h56v-44z" />
    <glyph glyph-name="zad.medi" unicode="&#x636;" horiz-adv-x="831" arabic-form="medial" 
d="M231 33q52 95 96 160t83.5 105.5t76.5 58t74 17.5t68.5 -15.5t54 -41.5t35.5 -61t13 -74q0 -31 -9.5 -61t-27.5 -55q20 -26 48.5 -32t70.5 -6h17q22 0 22 -14t-22 -14h-17q-18 0 -36 0.5t-35.5 5t-33.5 14t-30 26.5q-22 -20 -52.5 -33t-71.5 -13h-286q-41 0 -72.5 14.5
t-48.5 53.5q-20 -39 -54.5 -53.5t-71.5 -14.5h-22q-13 0 -17.5 3.5t-4.5 9.5q0 7 4.5 11t17.5 4h28q50 0 79.5 25.5t29.5 67.5v159h28v-159q0 -33 18.5 -56.5t47.5 -31.5zM704 182q0 37 -11.5 67t-31 51.5t-45.5 33.5t-55 12q-70 0 -143.5 -76.5t-161.5 -241.5h299
q27 0 53.5 8.5t48 27t34.5 47.5t13 71zM518 479h-56v44h56v-44z" />
    <glyph glyph-name="ta.fina" unicode="&#x637;" horiz-adv-x="748" arabic-form="final" 
d="M148 620h28v-334v-190q44 75 84 128t77.5 86t72.5 48.5t69 15.5q37 0 68 -15.5t53.5 -41.5t35.5 -61t13 -74q0 -31 -9 -61t-27 -55q20 -26 48.5 -32t70.5 -6h16q13 0 17.5 -4t4.5 -10q0 -7 -4.5 -10.5t-17.5 -3.5h-16q-18 0 -36.5 0.5t-35.5 5t-33.5 14t-30.5 26.5
q-21 -20 -51.5 -33t-71.5 -13h-418l-5 28h98v592zM621 182q0 37 -11.5 67t-31 51.5t-45.5 33.5t-54 12q-71 0 -144 -76.5t-161 -241.5h299q27 0 53.5 8.5t47.5 27t34 47.5t13 71z" />
    <glyph glyph-name="ta.init" unicode="&#x637;" horiz-adv-x="665" arabic-form="initial" 
d="M110 620h27v-334v-190q70 120 131 184t117 84q27 10 55 10q37 0 68.5 -15.5t54 -41.5t35 -61t12.5 -74q0 -33 -10.5 -65.5t-32 -58.5t-54.5 -42t-78 -16h-435q-13 0 -17.5 3.5t-4.5 9.5q0 7 4.5 11t17.5 4h110v592zM583 182q0 37 -11.5 67t-31 51.5t-45.5 33.5t-55 12
q-35 0 -70.5 -19t-73 -58t-77.5 -99t-84 -142h300q27 0 53.5 8.5t47.5 27t34 47.5t13 71z" />
    <glyph glyph-name="ta.medi" unicode="&#x637;" horiz-adv-x="710" arabic-form="medial" 
d="M110 620h27v-334v-190q76 128 140.5 193.5t124.5 80.5q17 4 38 4q37 0 68.5 -15.5t54 -41.5t35 -61t12.5 -74q0 -31 -9 -61t-27 -55q20 -26 48.5 -32t70.5 -6h17q22 0 22 -14t-22 -14h-17q-18 0 -36 0.5t-35.5 5t-33.5 14t-30 26.5q-22 -20 -52.5 -33t-70.5 -13h-435
q-13 0 -17.5 3.5t-4.5 9.5q0 7 4.5 11t17.5 4h110v592zM583 182q0 37 -11.5 67t-31 51.5t-45.5 33.5t-55 12q-35 0 -70.5 -19t-73 -58t-77.5 -99t-84 -142h300q27 0 53.5 8.5t47.5 27t34 47.5t13 71z" />
    <glyph glyph-name="za.fina" unicode="&#x638;" horiz-adv-x="748" arabic-form="final" 
d="M148 620h28v-334v-190q44 75 84 128t77.5 86t72.5 48.5t69 15.5q37 0 68 -15.5t53.5 -41.5t35.5 -61t13 -74q0 -31 -9 -61t-27 -55q20 -26 48.5 -32t70.5 -6h16q13 0 17.5 -4t4.5 -10q0 -7 -4.5 -10.5t-17.5 -3.5h-16q-18 0 -36.5 0.5t-35.5 5t-33.5 14t-30.5 26.5
q-21 -20 -51.5 -33t-71.5 -13h-418l-5 28h98v592zM621 182q0 37 -11.5 67t-31 51.5t-45.5 33.5t-54 12q-71 0 -144 -76.5t-161 -241.5h299q27 0 53.5 8.5t47.5 27t34 47.5t13 71zM501 506h-56v44h56v-44z" />
    <glyph glyph-name="za.init" unicode="&#x638;" horiz-adv-x="665" arabic-form="initial" 
d="M110 620h27v-334v-190q70 120 131 184t117 84q27 10 55 10q37 0 68.5 -15.5t54 -41.5t35 -61t12.5 -74q0 -33 -10.5 -65.5t-32 -58.5t-54.5 -42t-78 -16h-435q-13 0 -17.5 3.5t-4.5 9.5q0 7 4.5 11t17.5 4h110v592zM583 182q0 37 -11.5 67t-31 51.5t-45.5 33.5t-55 12
q-35 0 -70.5 -19t-73 -58t-77.5 -99t-84 -142h300q27 0 53.5 8.5t47.5 27t34 47.5t13 71zM457 506h-56v44h56v-44z" />
    <glyph glyph-name="za.medi" unicode="&#x638;" horiz-adv-x="710" arabic-form="medial" 
d="M110 620h27v-334v-190q76 128 140.5 193.5t124.5 80.5q17 4 38 4q37 0 68.5 -15.5t54 -41.5t35 -61t12.5 -74q0 -31 -9 -61t-27 -55q20 -26 48.5 -32t70.5 -6h17q22 0 22 -14t-22 -14h-17q-18 0 -36 0.5t-35.5 5t-33.5 14t-30 26.5q-22 -20 -52.5 -33t-70.5 -13h-435
q-13 0 -17.5 3.5t-4.5 9.5q0 7 4.5 11t17.5 4h110v592zM583 182q0 37 -11.5 67t-31 51.5t-45.5 33.5t-55 12q-35 0 -70.5 -19t-73 -58t-77.5 -99t-84 -142h300q27 0 53.5 8.5t47.5 27t34 47.5t13 71zM457 506h-56v44h56v-44z" />
    <glyph glyph-name="ein.fina" unicode="&#x639;" horiz-adv-x="522" arabic-form="final" 
d="M55 300l22 39h253q20 0 38.5 -4.5t33 -14t23.5 -25t9 -37.5q0 -15 -7.5 -32t-26 -39.5t-51 -52t-81.5 -68.5q15 -12 31 -19.5t37 -11.5t47.5 -5.5t61.5 -1.5h77q22 0 22 -14t-22 -14h-77q-42 0 -73.5 1.5t-56 7.5t-43.5 18.5t-37 34.5q-81 -55 -117 -104.5t-36 -108.5
q0 -80 49 -118.5t160 -38.5h178l-6 -27h-177q-68 0 -112.5 15t-71 40.5t-37 59t-10.5 69.5q0 67 40 122t119 109zM407 256q0 25 -20.5 40t-62.5 15h-242l163 -229q81 63 121.5 104t40.5 70z" />
    <glyph glyph-name="ein.init" unicode="&#x639;" horiz-adv-x="484" arabic-form="initial" 
d="M173 28q-23 19 -37 41t-22.5 43.5t-11.5 41t-3 33.5q0 34 12 64.5t33.5 52.5t52 35t67.5 13q33 0 63.5 -9.5t68.5 -34.5l-11 -22q-33 20 -62.5 29t-58.5 9q-31 0 -56 -11.5t-43 -30.5t-28 -43.5t-10 -51.5t9.5 -55t25.5 -51t36.5 -38t43.5 -15h187l-5 -28h-424
q-13 0 -17.5 3.5t-4.5 9.5q0 7 4.5 11t17.5 4h173z" />
    <glyph glyph-name="ein.medi" unicode="&#x639;" horiz-adv-x="561" arabic-form="medial" 
d="M33 28q64 0 123.5 9.5t101.5 35.5l-164 227l22 39h253q20 0 38.5 -4.5t33 -14t23.5 -25t9 -37.5q0 -15 -7.5 -32t-26 -39.5t-51 -52t-81.5 -68.5q15 -12 31 -19.5t37 -11.5t47.5 -5.5t61.5 -1.5h77q22 0 22 -14t-22 -14h-77q-41 0 -71 1t-53.5 6.5t-42.5 16.5t-38 31
q-52 -32 -110 -43.5t-136 -11.5h-33q-13 0 -17.5 3.5t-4.5 9.5q0 7 4.5 11t17.5 4h33zM446 256q0 25 -20.5 40t-62.5 15h-242l163 -229q81 63 121.5 104t40.5 70z" />
    <glyph glyph-name="qein.fina" unicode="&#x63a;" horiz-adv-x="522" arabic-form="final" 
d="M55 300l22 39h253q20 0 38.5 -4.5t33 -14t23.5 -25t9 -37.5q0 -15 -7.5 -32t-26 -39.5t-51 -52t-81.5 -68.5q15 -12 31 -19.5t37 -11.5t47.5 -5.5t61.5 -1.5h77q22 0 22 -14t-22 -14h-77q-42 0 -73.5 1.5t-56 7.5t-43.5 18.5t-37 34.5q-81 -55 -117 -104.5t-36 -108.5
q0 -80 49 -118.5t160 -38.5h178l-6 -27h-177q-68 0 -112.5 15t-71 40.5t-37 59t-10.5 69.5q0 67 40 122t119 109zM407 256q0 25 -20.5 40t-62.5 15h-242l163 -229q81 63 121.5 104t40.5 70zM281 506h-56v44h56v-44z" />
    <glyph glyph-name="qein.init" unicode="&#x63a;" horiz-adv-x="484" arabic-form="initial" 
d="M173 28q-23 19 -37 41t-22.5 43.5t-11.5 41t-3 33.5q0 34 12 64.5t33.5 52.5t52 35t67.5 13q33 0 63.5 -9.5t68.5 -34.5l-11 -22q-33 20 -62.5 29t-58.5 9q-31 0 -56 -11.5t-43 -30.5t-28 -43.5t-10 -51.5t9.5 -55t25.5 -51t36.5 -38t43.5 -15h187l-5 -28h-424
q-13 0 -17.5 3.5t-4.5 9.5q0 7 4.5 11t17.5 4h173zM265 495h-56v44h56v-44z" />
    <glyph glyph-name="qein.medi" unicode="&#x63a;" horiz-adv-x="561" arabic-form="medial" 
d="M33 28q64 0 123.5 9.5t101.5 35.5l-164 227l22 39h253q20 0 38.5 -4.5t33 -14t23.5 -25t9 -37.5q0 -15 -7.5 -32t-26 -39.5t-51 -52t-81.5 -68.5q15 -12 31 -19.5t37 -11.5t47.5 -5.5t61.5 -1.5h77q22 0 22 -14t-22 -14h-77q-41 0 -71 1t-53.5 6.5t-42.5 16.5t-38 31
q-52 -32 -110 -43.5t-136 -11.5h-33q-13 0 -17.5 3.5t-4.5 9.5q0 7 4.5 11t17.5 4h33zM446 256q0 25 -20.5 40t-62.5 15h-242l163 -229q81 63 121.5 104t40.5 70zM325 506h-56v44h56v-44z" />
    <glyph glyph-name="fe.fina" unicode="&#x641;" horiz-adv-x="897" arabic-form="final" 
d="M627 352q-33 0 -59.5 -11.5t-45 -31t-28.5 -45.5t-10 -55q0 -35 15.5 -63t38.5 -49t50 -35.5t50 -23.5q16 9 39 23.5t43.5 35t35 47.5t14.5 60t-10 60t-28.5 46.5t-45 30.5t-59.5 11zM632 380q42 0 73 -14.5t51.5 -37.5t31 -52.5t10.5 -60.5q0 -54 -30.5 -102t-96.5 -85
h226q22 0 22 -14t-22 -14h-121q-46 0 -82 1.5t-56 9.5q-15 -4 -35.5 -6.5t-42 -3.5t-42 -1h-34.5h-275q-41 0 -70.5 12.5t-48 33.5t-27 49t-8.5 59v126h27v-121q0 -58 31 -94.5t102 -36.5h384q-62 25 -102 72t-40 109q0 33 12 64t34.5 54.5t55 38t73.5 14.5zM655 495h-56v44
h56v-44z" />
    <glyph glyph-name="fe.init" unicode="&#x641;" horiz-adv-x="495" arabic-form="initial" 
d="M248 28q19 0 38 2.5t36 7.5q-78 24 -122.5 44.5t-67 42.5t-28 46.5t-5.5 54.5q0 28 11 57.5t32.5 53.5t53.5 39t73 15q37 0 68 -10.5t52.5 -34t33.5 -60t12 -88.5v-39q0 -74 -46.5 -116.5t-146.5 -42.5h-242q-13 0 -17.5 3.5t-4.5 9.5q0 7 4.5 11t17.5 4h248zM264 363
q-31 0 -56 -11.5t-43 -30t-28 -42t-10 -48.5t4.5 -45.5t26.5 -40.5t69 -41t132 -48q21 15 34.5 39t13.5 59v39q0 82 -34 126t-109 44zM297 506h-56v44h56v-44z" />
    <glyph glyph-name="fe.medi" unicode="&#x641;" horiz-adv-x="539" arabic-form="medial" 
d="M242 28q-63 25 -103 72t-40 109q0 33 12 64t34.5 54.5t55.5 38t74 14.5t72 -14.5t51.5 -37.5t31 -52.5t10.5 -60.5q0 -54 -30 -102t-97 -85h226q22 0 22 -14t-22 -14h-121q-45 0 -81 1.5t-57 9.5q-14 -4 -34.5 -6.5t-42 -3.5t-42 -1h-34.5h-127q-13 0 -17.5 3.5t-4.5 9.5
q0 7 4.5 11t17.5 4h242zM269 352q-33 0 -59 -11.5t-44.5 -31t-28.5 -45.5t-10 -55q0 -35 15.5 -63t38.5 -49t49.5 -35.5t49.5 -23.5q16 9 39 23.5t44 35t35.5 47.5t14.5 60q0 66 -38.5 107t-105.5 41zM308 495h-56v44h56v-44z" />
    <glyph glyph-name="qaf.fina" unicode="&#x642;" horiz-adv-x="765" arabic-form="final" 
d="M653 0q-2 -49 -20 -93t-49.5 -77t-74.5 -52.5t-96 -19.5h-122q-112 0 -174 69t-62 189v171h27v-171q0 -51 13.5 -93.5t40.5 -73t67 -47.5t94 -17h110q50 0 89.5 17.5t68 46.5t44.5 68t18 83h-132q-51 0 -84.5 11t-52.5 31t-26.5 48.5t-7.5 63.5q0 37 11 71t32 59.5t52 41
t71 15.5q33 0 62.5 -11t52 -34t36 -59.5t13.5 -88.5v-120h111q22 0 22 -14t-22 -14h-112zM352 154q0 -33 7 -57t25 -39t49 -22.5t79 -7.5h115v104q0 95 -38.5 138t-104.5 43q-62 0 -97 -44t-35 -115zM577 468h-54v44h54v-44zM467 468h-55v44h55v-44z" />
    <glyph glyph-name="qaf.init" unicode="&#x642;" horiz-adv-x="495" arabic-form="initial" 
d="M248 28q19 0 38 2.5t36 7.5q-78 24 -122.5 44.5t-67 42.5t-28 46.5t-5.5 54.5q0 28 11 57.5t32.5 53.5t53.5 39t73 15q37 0 68 -10.5t52.5 -34t33.5 -60t12 -88.5v-39q0 -74 -46.5 -116.5t-146.5 -42.5h-242q-13 0 -17.5 3.5t-4.5 9.5q0 7 4.5 11t17.5 4h248zM264 363
q-31 0 -56 -11.5t-43 -30t-28 -42t-10 -48.5t4.5 -45.5t26.5 -40.5t69 -41t132 -48q21 15 34.5 39t13.5 59v39q0 82 -34 126t-109 44zM351 506h-54v44h54v-44zM241 506h-55v44h55v-44z" />
    <glyph glyph-name="qaf.medi" unicode="&#x642;" horiz-adv-x="539" arabic-form="medial" 
d="M242 28q-63 25 -103 72t-40 109q0 33 12 64t34.5 54.5t55.5 38t74 14.5t72 -14.5t51.5 -37.5t31 -52.5t10.5 -60.5q0 -54 -30 -102t-97 -85h226q22 0 22 -14t-22 -14h-121q-45 0 -81 1.5t-57 9.5q-14 -4 -34.5 -6.5t-42 -3.5t-42 -1h-34.5h-127q-13 0 -17.5 3.5t-4.5 9.5
q0 7 4.5 11t17.5 4h242zM269 352q-33 0 -59 -11.5t-44.5 -31t-28.5 -45.5t-10 -55q0 -35 15.5 -63t38.5 -49t49.5 -35.5t49.5 -23.5q16 9 39 23.5t44 35t35.5 47.5t14.5 60q0 66 -38.5 107t-105.5 41zM351 490h-54v44h54v-44zM241 490h-55v44h55v-44z" />
    <glyph glyph-name="kaf.arab.fina" unicode="&#x643;" horiz-adv-x="814" arabic-form="final" 
d="M429 209v99q0 8 -6.5 15t-23.5 7h-125v105q0 45 27.5 71.5t77.5 26.5h39l5 -27h-44q-77 0 -77 -71v-77h110q25 0 34.5 -14t9.5 -31v-104h-27zM214 0q-41 0 -70.5 12.5t-48 33.5t-27 49t-8.5 59v126h27v-121q0 -58 31 -94.5t102 -36.5h351q50 0 77.5 25.5t27.5 67.5v499
h27v-499q0 -27 9 -44.5t23 -28.5t31 -15.5t34 -4.5h14q22 0 22 -14t-22 -14h-14q-35 0 -65.5 14.5t-47.5 53.5q-21 -39 -52 -53.5t-64 -14.5h-357z" />
    <glyph glyph-name="lam.fina" unicode="&#x644;" horiz-adv-x="698" arabic-form="final" 
d="M687 0q-29 0 -55.5 11t-43.5 36v-31q0 -51 -17 -98t-48.5 -82.5t-76 -56.5t-100.5 -21h-55q-112 0 -174 69t-62 189v171h27v-171q0 -51 13.5 -93.5t40.5 -73t67 -47.5t94 -17h44q52 0 92.5 18.5t69 49.5t43.5 72t15 86v609h27v-504q0 -38 27 -63t72 -25h11q23 0 23 -14
t-23 -14h-11z" />
    <glyph glyph-name="lam.init" unicode="&#x644;" horiz-adv-x="234" arabic-form="initial" 
d="M28 28q45 0 74.5 25.5t29.5 67.5v499h27v-493q0 -58 -36.5 -92.5t-94.5 -34.5h-28q-13 0 -17.5 3.5t-4.5 9.5q0 7 4.5 11t17.5 4h28z" />
    <glyph glyph-name="lam.medi" unicode="&#x644;" horiz-adv-x="269" arabic-form="medial" 
d="M28 28q50 0 77 25.5t27 67.5v499h27v-499q0 -27 9 -44.5t23 -28.5t31 -15.5t34 -4.5h13q13 0 17.5 -4t4.5 -10q0 -7 -4.5 -10.5t-17.5 -3.5h-13q-35 0 -65.5 14.5t-47.5 53.5q-20 -39 -51.5 -53.5t-63.5 -14.5h-28q-13 0 -17.5 3.5t-4.5 9.5q0 7 4.5 11t17.5 4h28z" />
    <glyph glyph-name="mim.fina" unicode="&#x645;" horiz-adv-x="681" arabic-form="final" 
d="M571 132q0 -58 25.5 -81t62.5 -23h22q13 0 17.5 -4t4.5 -10q0 -7 -4.5 -10.5t-17.5 -3.5h-22q-33 0 -60 13t-44 58q-12 -23 -30 -36.5t-38 -21.5t-41 -10.5t-39 -2.5q-67 0 -108 36.5t-41 106.5v72q0 37 10 63.5t39 51.5h-60q-39 0 -69 -11.5t-50.5 -31.5t-30.5 -47
t-10 -58v-424h-27v424q0 35 12.5 67t36.5 56t60 38.5t84 14.5h181q39 0 65 -11.5t42 -29.5t23 -41t7 -45v-99zM412 28q58 0 95 26t37 83v89q0 20 -6.5 39t-19 33.5t-32 23t-46.5 8.5h-50q-54 0 -79.5 -32.5t-25.5 -77.5v-77q0 -57 34.5 -86t92.5 -29z" />
    <glyph glyph-name="mim.init" unicode="&#x645;" horiz-adv-x="495" arabic-form="initial" 
d="M22 28q45 0 66.5 24.5t21.5 57.5v55q0 91 43 139t122 48q82 0 121 -49t39 -127q0 -83 -43.5 -129.5t-122.5 -46.5q-41 0 -77.5 15.5t-61.5 61.5q-9 -27 -22 -42.5t-27 -23t-29 -9.5t-30 -2h-22q-13 0 -17.5 3.5t-4.5 9.5q0 7 4.5 11t17.5 4h22zM407 169q0 71 -31 113
t-104 42q-65 0 -101 -39.5t-36 -121.5q0 -33 10.5 -58t28.5 -42.5t42.5 -26t52.5 -8.5q68 0 103 37t35 104z" />
    <glyph glyph-name="mim.medi" unicode="&#x645;" horiz-adv-x="544" arabic-form="medial" 
d="M22 28q45 0 66.5 24.5t21.5 57.5v55q0 91 43 139t122 48q82 0 121 -49t39 -127v-44q0 -58 23 -81t64 -23h22q13 0 17.5 -4t4.5 -10q0 -7 -4.5 -10.5t-17.5 -3.5h-22q-16 0 -32 3t-30 11.5t-26 24.5t-19 43q-13 -25 -30 -41t-35.5 -25t-39 -12.5t-41.5 -3.5
q-41 0 -77.5 15.5t-61.5 61.5q-9 -27 -22 -42.5t-27 -23t-29 -9.5t-30 -2h-22q-13 0 -17.5 3.5t-4.5 9.5q0 7 4.5 11t17.5 4h22zM407 169q0 71 -31 113t-104 42q-65 0 -101 -39.5t-36 -121.5q0 -33 10.5 -58t28.5 -42.5t42.5 -26t52.5 -8.5q68 0 103 37t35 104z" />
    <glyph glyph-name="nun.fina" unicode="&#x646;" horiz-adv-x="698" arabic-form="final" 
d="M687 0q-29 0 -55.5 11t-43.5 36v-31q0 -51 -17 -98t-48.5 -82.5t-76 -56.5t-100.5 -21h-55q-112 0 -174 69t-62 189v171h27v-171q0 -51 13.5 -93.5t40.5 -73t67 -47.5t94 -17h44q52 0 92.5 18.5t69 49.5t43.5 72t15 86v269h27v-164q0 -38 27 -63t72 -25h11q23 0 23 -14
t-23 -14h-11zM341 308h-56v44h56v-44z" />
    <glyph glyph-name="nun.init" unicode="&#x646;" horiz-adv-x="280" arabic-form="initial" 
d="M88 28q45 0 75 25.5t30 67.5v159h27v-153q0 -58 -37 -92.5t-95 -34.5h-88q-13 0 -17.5 3.5t-4.5 9.5q0 7 4.5 11t17.5 4h88zM198 418h-56v44h56v-44z" />
    <glyph glyph-name="nun.medi" unicode="&#x646;" horiz-adv-x="346" arabic-form="medial" 
d="M82 28q50 0 77.5 25.5t27.5 67.5v159h28v-159q0 -27 9 -44.5t22.5 -28.5t30.5 -15.5t34 -4.5h35q23 0 23 -14t-23 -14h-35q-35 0 -65.5 14.5t-47.5 53.5q-21 -39 -51.5 -53.5t-64.5 -14.5h-82q-13 0 -17.5 3.5t-4.5 9.5q0 7 4.5 11t17.5 4h82zM221 418h-56v44h56v-44z
" />
    <glyph glyph-name="he.fina" unicode="&#x647;" horiz-adv-x="501" arabic-form="final" 
d="M215 81q33 0 60 7t46.5 19t30.5 28t11 34v194h-143q-63 0 -100.5 -42t-37.5 -113q0 -70 35 -98.5t98 -28.5zM391 154q0 -27 4.5 -50t16 -40t30.5 -26.5t48 -9.5h11q12 0 16.5 -4t4.5 -10q0 -7 -4.5 -10.5t-16.5 -3.5h-11q-21 0 -41 5t-36.5 17.5t-28.5 34t-17 55.5
q-12 -18 -31.5 -29t-41.5 -17.5t-44.5 -9t-40.5 -2.5q-75 0 -114.5 37.5t-39.5 111.5q0 35 10.5 68.5t31.5 60t53 43t76 16.5h137v71h28v-308z" />
    <glyph glyph-name="he.init" unicode="&#x647;" horiz-adv-x="726" arabic-form="initial" 
d="M269 341q-33 0 -59 -11.5t-44.5 -31t-28.5 -45.5t-10 -55q0 -35 15.5 -61t38.5 -45t49.5 -32t49.5 -22q16 9 39 21.5t44 31.5t35.5 44t14.5 58q0 66 -38.5 107t-105.5 41zM0 0q-13 0 -17.5 3.5t-4.5 9.5q0 7 4.5 11t17.5 4h236q-60 23 -98.5 65.5t-38.5 104.5q0 33 12 64
t34.5 54.5t55.5 38t74 14.5t72 -14.5t51.5 -37.5t31 -52.5t10.5 -60.5q0 -54 -30 -96.5t-97 -79.5h215q54 0 84.5 25.5t30.5 67.5q0 20 -9 42.5t-29 45.5l-197 217l21 20l198 -220q25 -28 34.5 -54t9.5 -51q0 -54 -38 -87.5t-105 -33.5h-110q-45 0 -81 1.5t-57 9.5
q-14 -4 -34.5 -6.5t-42 -3.5t-42 -1h-34.5h-127z" />
    <glyph glyph-name="he.medi" unicode="&#x647;" horiz-adv-x="544" arabic-form="medial" 
d="M110 28v137q0 46 11 83.5t31 64.5t49.5 41.5t67.5 14.5q37 0 65 -12t47 -32.5t28 -48.5t9 -61q0 -44 -21 -83t-58.5 -68t-89 -46.5t-112.5 -17.5v-73q0 -71 31.5 -99t91.5 -28l80 128q20 31 39 51t42.5 30.5t53 14.5t69.5 4q13 0 17.5 -4t4.5 -10q0 -7 -4.5 -10.5
t-17.5 -3.5q-41 0 -68.5 -3.5t-48.5 -14t-38.5 -30t-37.5 -51.5l-79 -128q-38 0 -68 7.5t-51 25.5t-32 47.5t-11 73.5v73h-110q-13 0 -17.5 3.5t-4.5 9.5q0 7 4.5 11t17.5 4h110zM137 28q62 0 109.5 16t79.5 41.5t48.5 58t16.5 65.5q0 58 -29.5 95t-92.5 37q-62 0 -97 -46.5
t-35 -129.5v-137z" />
    <glyph glyph-name="vav.fina" unicode="&#x648;" horiz-adv-x="501" arabic-form="final" 
d="M148 -215q50 0 89.5 17.5t67 46.5t42 68t16.5 83h-132q-51 0 -84 11t-52 31t-26.5 48.5t-7.5 63.5q0 37 10.5 71t31.5 59.5t52 41t71 15.5q33 0 62.5 -11t52.5 -34t36.5 -59.5t13.5 -88.5v-120h110q12 0 16.5 -4t4.5 -10q0 -7 -4.5 -10.5t-16.5 -3.5h-112q-2 -49 -19 -93
t-47.5 -77t-73 -52.5t-95.5 -19.5h-110l-6 27h110zM88 154q0 -33 7 -57t25 -39t49 -22.5t79 -7.5h115v104q0 95 -38.5 138t-104.5 43q-63 0 -97.5 -44t-34.5 -115z" />
    <glyph glyph-name="alef.maksura.fina" unicode="&#x649;" horiz-adv-x="710" arabic-form="final" 
d="M380 -215q57 0 98 14t66.5 35.5t37.5 48t12 51.5q0 29 -14 47.5t-47 18.5h-192l5 28h364q22 0 22 -14t-22 -14h-111q13 -13 17.5 -28.5t4.5 -32.5q0 -27 -11.5 -58.5t-38.5 -58.5t-72.5 -45.5t-113.5 -18.5h-94q-112 0 -174 69t-62 189v171h27v-171q0 -51 13.5 -93.5
t40.5 -73t67 -47.5t94 -17h83z" />
    <glyph glyph-name="ye.arab.fina" unicode="&#x64a;" horiz-adv-x="710" arabic-form="final" 
d="M380 -215q57 0 98 14t66.5 35.5t37.5 48t12 51.5q0 29 -14 47.5t-47 18.5h-192l5 28h364q22 0 22 -14t-22 -14h-111q13 -13 17.5 -28.5t4.5 -32.5q0 -27 -11.5 -58.5t-38.5 -58.5t-72.5 -45.5t-113.5 -18.5h-94q-112 0 -174 69t-62 189v171h27v-171q0 -51 13.5 -93.5
t40.5 -73t67 -47.5t94 -17h83zM395 -383h-49v44h49v-44zM280 -383h-50v44h50v-44z" />
    <glyph glyph-name=".notdef" horiz-adv-x="528" 
d="M462 0h-396v610h396v-610zM94 583v-555h341v555h-341z" />
    <glyph glyph-name=".null" horiz-adv-x="957" 
 />
    <glyph glyph-name="nonmarkingreturn" horiz-adv-x="957" 
 />
    <glyph glyph-name="line_feed" unicode="&#xa;" 
 />
    <glyph glyph-name="carriage_return" unicode="&#xd;" 
 />
    <glyph glyph-name="space" unicode=" " horiz-adv-x="165" 
 />
    <glyph glyph-name="exclam" unicode="!" horiz-adv-x="187" 
d="M108 468v-88.5t-0.5 -67t-2 -60t-3.5 -67.5h-16q-2 38 -3.5 67.5t-2 60t-0.5 67v88.5v126h28v-126zM94 0q-17 0 -22.5 8.5t-5.5 26.5q0 20 5.5 28t22.5 8t22 -8t5 -28q0 -18 -5 -26.5t-22 -8.5z" />
    <glyph glyph-name="quotedbl" unicode="&#x22;" horiz-adv-x="258" 
d="M66 610h28v-236h-28v236zM165 610h28v-236h-28v236z" />
    <glyph glyph-name="numbersign" unicode="#" horiz-adv-x="698" 
d="M246 402h-169v27h173l30 170l22 -3l-28 -167h195l32 170l21 -3l-29 -167h150v-27h-155l-36 -204h169v-28h-172l-31 -170l-22 3l29 167h-195l-32 -170l-22 3l30 167h-151v28h155zM429 198l35 204h-195l-35 -204h195z" />
    <glyph glyph-name="dollar" unicode="$" horiz-adv-x="535" 
d="M269 13q81 5 125.5 49.5t44.5 112.5q0 35 -13.5 58t-35.5 38.5t-50.5 26t-58.5 19.5zM277 626q-38 -1 -66 -12.5t-47.5 -30.5t-29 -44t-9.5 -52q0 -32 11.5 -54.5t31 -38t45 -26.5t53.5 -20zM282 342q33 -11 65 -22.5t57.5 -28.5t41 -43.5t15.5 -66.5q0 -80 -50 -132
t-143 -56l-4 -106q0 -11 -9 -11h-9l5 117q-62 0 -105 22.5t-75 61.5l6 8l4 4t4 1q6 0 16.5 -12t30 -26t48.5 -26t72 -13l13 310q-31 10 -60 22t-52 30t-37 45t-14 66q0 31 11.5 59.5t34 51t55 36t75.5 14.5l2 83q0 10 10 10h9l-3 -93q46 -2 80.5 -18t64.5 -48l-4 -8
q-3 -5 -9 -5q-5 0 -13.5 8.5t-24 19t-39 20t-57.5 10.5z" />
    <glyph glyph-name="percent" unicode="%" horiz-adv-x="709" 
d="M314 488q0 -41 -10.5 -71.5t-28.5 -51t-42 -30.5t-50 -10q-28 0 -52.5 10t-43 30.5t-29 51t-10.5 71.5q0 42 10.5 73t29 51t43 30t52.5 10q27 0 50.5 -10t41.5 -30t28.5 -51t10.5 -73zM293 488q0 76 -32.5 111.5t-77.5 35.5q-24 0 -44.5 -8.5t-36 -26.5t-24.5 -46t-9 -66
q0 -39 9 -66t24.5 -44.5t36 -25.5t44.5 -8q22 0 42 8t35 25.5t24 44.5t9 66zM564 636q3 4 10 4h16l-454 -635q-5 -5 -11 -5h-17zM660 154q0 -41 -10.5 -71t-28.5 -50t-42 -30t-51 -10t-51.5 10t-42.5 30t-28.5 50t-10.5 71q0 42 10.5 72.5t28.5 51t42.5 30t51.5 9.5t51 -9.5
t42 -30t28.5 -51t10.5 -72.5zM639 154q0 76 -32.5 111.5t-78.5 35.5q-47 0 -79.5 -35.5t-32.5 -111.5q0 -75 32.5 -110t79.5 -35q46 0 78.5 35t32.5 110z" />
    <glyph glyph-name="ampersand" unicode="&#x26;" horiz-adv-x="633" 
d="M230 343q-33 -12 -61 -31t-48 -43t-31 -51.5t-11 -57.5q0 -39 15 -67t38 -46t51.5 -26.5t55.5 -8.5q73 0 124.5 33t86.5 82zM614 0h-21q-5 0 -9 1t-9 6l-110 106q-39 -51 -95.5 -85.5t-132.5 -34.5q-34 0 -66.5 10.5t-58.5 31t-42 51t-16 71.5q0 34 12.5 65t34.5 57
t51.5 45.5t64.5 31.5q-36 38 -53.5 70.5t-17.5 74.5q0 31 11.5 58t32 46.5t49 30.5t63.5 11q29 0 55.5 -10.5t46.5 -27.5t32 -40t13 -48l-12 -2q-2 0 -5.5 2t-4.5 7q-2 12 -10 29t-23.5 32.5t-38 26.5t-53.5 11q-59 0 -96 -35t-37 -91q0 -42 20.5 -76t65.5 -76l208 -203
q23 35 35.5 71.5t17.5 70.5q2 4 3 6.5t5 2.5h14q-2 -38 -16.5 -81t-43.5 -85z" />
    <glyph glyph-name="quotesingle" unicode="'" horiz-adv-x="159" 
d="M66 610h28v-236h-28v236z" />
    <glyph glyph-name="parenleft" unicode="(" horiz-adv-x="280" 
d="M82 215q0 -68 8.5 -122t26.5 -99t45 -83.5t64 -75.5l-17 -17q-35 35 -63.5 73.5t-48.5 85t-31 103.5t-11 129t11 129t31 103.5t48.5 84.5t63.5 73l17 -16q-37 -37 -64 -75.5t-45 -82t-26.5 -95t-8.5 -115.5z" />
    <glyph glyph-name="parenright" unicode=")" horiz-adv-x="280" 
d="M198.005 203.013q0 67.9961 -8.49902 121.993q-8.5 53.9961 -26.499 98.9941q-17.999 44.9971 -44.9971 83.4941q-26.998 38.498 -63.9961 75.4961l16.999 16.999q34.998 -34.998 63.4961 -73.4961q28.498 -38.4971 48.4971 -84.9941q19.999 -46.498 30.998 -103.494
t10.999 -128.992q0 -71.9951 -10.999 -128.992q-10.999 -56.9961 -30.998 -103.493q-19.999 -46.498 -48.4971 -84.4951q-28.498 -37.998 -63.4961 -72.9961l-16.999 15.999q36.998 36.998 63.9961 75.4961q26.998 38.4971 44.9971 81.9951q17.999 43.4971 26.499 94.9941
q8.49902 51.4961 8.49902 115.492z" />
    <glyph glyph-name="asterisk" unicode="*" horiz-adv-x="393" 
d="M226 529q-6 -5 -10.5 -6t-12.5 -3q31 -7 58.5 -25.5t54.5 -34.5l-6 -14l-77 45q-11 5 -18.5 10t-15.5 15q2 -8 3.5 -13t1.5 -12v-101h-16v85v19.5t5 19.5q-6 -6 -9.5 -8l-10.5 -6l-90 -53l-6 13l74 45q11 5 18.5 9t19.5 7q-9 2 -13.5 2.5t-9.5 5.5l-91 53l7 12l78 -43
q10 -6 16 -11t17 -14q-3 9 -4 13.5t-1 11.5v101h16v-85v-20.5t-5 -20.5l9.5 9.5t9.5 6.5l91 52l7 -12z" />
    <glyph glyph-name="plus" unicode="+" horiz-adv-x="512" 
d="M55 182v27h190v182h27v-182h185v-27h-185v-182h-27v182h-190z" />
    <glyph glyph-name="comma" unicode="," horiz-adv-x="198" 
d="M69 -108q-2 0 -2 4l2 4q4 5 12 14.5t15.5 22.5t13.5 29.5t8 35.5q-8 -5 -19 -5q-14 0 -23 9t-9 24q0 14 9.5 23t23.5 9q15 0 24.5 -10.5t9.5 -30.5q0 -36 -16.5 -72t-45.5 -62z" />
    <glyph glyph-name="hyphen_minus" unicode="-" horiz-adv-x="512" 
d="M55 182v27h402v-27h-402z" />
    <glyph glyph-name="period" unicode="." horiz-adv-x="187" 
d="M94 0q-17 0 -22.5 8.5t-5.5 26.5q0 20 5.5 28t22.5 8t22 -8t5 -28q0 -18 -5 -26.5t-22 -8.5z" />
    <glyph glyph-name="slash" unicode="/" horiz-adv-x="528" 
d="M451 566l22 -14l-396 -629l-22 14z" />
    <glyph glyph-name="zero" unicode="0" horiz-adv-x="462" 
d="M231 391q33 0 64.5 -14.5t56.5 -38t40 -54.5t15 -64t-15 -63.5t-40 -54.5t-56.5 -38t-64.5 -14t-64.5 14t-56.5 38t-40 54.5t-15 63.5t15 64t40 54.5t56.5 38t64.5 14.5zM231 77q27 0 53.5 11.5t47.5 31t34.5 45.5t13.5 55q0 27 -13.5 52.5t-34.5 45.5t-47.5 32.5
t-53.5 12.5t-53.5 -12.5t-48 -32.5t-34.5 -45.5t-13 -52.5q0 -29 13 -55t34.5 -45.5t48 -31t53.5 -11.5z" />
    <glyph glyph-name="one" unicode="1" horiz-adv-x="187" 
d="M94 -61v243q0 60 -4 106.5t-11 86.5t-16 75t-19 72l27 11q13 -41 22.5 -78.5t15.5 -77.5t9 -86t3 -104v-248h-27z" />
    <glyph glyph-name="two" unicode="2" horiz-adv-x="402" 
d="M215 253q-29 0 -56 13t-43 42q3 -26 4 -59t1 -62v-248h-27v243q0 60 -4 106.5t-11 86.5t-16 75t-19 72l27 11q9 -31 14.5 -53.5t10 -41.5t9.5 -36.5l11 -38.5q25 -83 99 -83q18 0 36.5 6t33.5 18t24.5 29.5t9.5 40.5q0 29 -4.5 70.5t-12.5 83.5l28 5q8 -37 12 -76.5
t4 -76.5q0 -29 -10.5 -52.5t-28.5 -40t-41.5 -25.5t-50.5 -9z" />
    <glyph glyph-name="three" unicode="3" horiz-adv-x="610" 
d="M330 533q8 -37 12 -76.5t4 -76.5q0 -8 -1 -20.5t-6 -27.5q14 -23 39.5 -37.5t50.5 -14.5q19 0 36.5 7.5t31.5 20t22.5 28.5t8.5 33q0 33 -4 75t-12 84l27 5q8 -37 12 -77t4 -82q0 -25 -10.5 -47t-28 -38.5t-40 -26t-47.5 -9.5q-29 0 -54 13t-51 42q-17 -25 -44.5 -40
t-64.5 -15q-29 0 -56 13t-43 42q3 -26 4 -59t1 -62v-248h-27v243q0 60 -4 106.5t-11 86.5t-16 75t-19 72l27 11q9 -31 14.5 -53.5t10 -41.5t9.5 -36.5l11 -38.5q25 -83 99 -83q18 0 36.5 6t33.5 18t24.5 29.5t9.5 40.5q0 29 -4.5 70.5t-12.5 83.5l28 5v0z" />
    <glyph glyph-name="four" unicode="4" horiz-adv-x="522" 
d="M286 215q-49 0 -95.5 17.5t-72.5 44.5q2 -20 2.5 -42t0.5 -48v-248h-27v243q0 60 -4 106.5t-11 86.5t-16 75t-19 72l27 11q13 -44 23 -85.5t19 -95.5q2 -12 6.5 -25.5t15.5 -26.5t30 -25t50 -22q-17 14 -27 31t-15 34t-6.5 33t-1.5 29q0 33 12.5 62t35 50.5t52.5 34
t65 12.5q25 0 51 -5.5t59 -21.5l-11 -25q-33 14 -55.5 19.5t-43.5 5.5q-31 0 -56 -10.5t-43 -29.5t-28 -44t-10 -54q0 -27 9.5 -51t24.5 -42t33.5 -28.5t36.5 -10.5q46 0 87.5 12.5t72.5 28.5l11 -25q-54 -24 -97 -33.5t-85 -9.5z" />
    <glyph glyph-name="five" unicode="5" horiz-adv-x="610" 
d="M55 82q0 34 9 71.5t34.5 84.5t70.5 105.5t117 135.5l-51 45l18 20q95 -80 154 -144.5t92 -118t44.5 -98t11.5 -84.5q0 -44 -13 -75t-33.5 -51t-45.5 -29.5t-50 -9.5q-38 0 -66 14.5t-45 34.5q-20 -25 -50 -37t-59 -12q-63 0 -100.5 39t-37.5 109zM528 94q0 35 -9.5 74
t-34.5 84t-68.5 96.5t-110.5 110.5q-114 -110 -168.5 -203t-54.5 -168q0 -66 32.5 -96.5t78.5 -30.5q18 0 37.5 6.5t35.5 19t26 32.5t10 47v77h28v-77q0 -21 -4 -36t-9 -25q18 -20 42.5 -32t53.5 -12q22 0 43 8.5t37 25t25.5 41.5t9.5 58z" />
    <glyph glyph-name="six" unicode="6" horiz-adv-x="435" 
d="M308 490q-25 12 -49 17t-44 5q-29 0 -53.5 -11.5t-42 -30.5t-27.5 -44t-10 -52q0 -63 37 -94.5t96 -31.5q41 0 81.5 11.5t79.5 33.5l15 -18q-35 -31 -70.5 -72t-69.5 -86.5t-64 -94t-55 -94.5l-24 15q17 32 41.5 70t52 77.5t56 77.5t55.5 69q-29 -10 -54 -13.5t-50 -3.5
q-38 0 -67 12t-48.5 32t-29 47.5t-9.5 57.5q0 31 11.5 61.5t32.5 54.5t50.5 39t65.5 15q27 0 49.5 -5.5t54.5 -21.5z" />
    <glyph glyph-name="seven" unicode="7" horiz-adv-x="550" 
d="M275 22q27 133 84.5 267.5t135.5 254.5l22 -18q-35 -53 -69 -115.5t-64.5 -135.5t-56 -157t-41.5 -179h-22q-17 95 -41.5 179t-55 157t-65 135.5t-69.5 115.5l22 18q78 -120 135.5 -254.5t84.5 -267.5z" />
    <glyph glyph-name="eight" unicode="8" horiz-adv-x="550" 
d="M275 451q-27 -133 -84.5 -267.5t-135.5 -255.5l-22 19q35 53 69.5 115.5t65 135.5t55 156.5t41.5 178.5h22q16 -95 41.5 -178.5t56 -156.5t64.5 -135.5t69 -115.5l-22 -19q-78 121 -135.5 255.5t-84.5 267.5z" />
    <glyph glyph-name="nine" unicode="9" horiz-adv-x="446" 
d="M352 -61v306q-42 -23 -81.5 -29.5t-71.5 -6.5q-39 0 -67.5 10.5t-46.5 29t-26.5 43.5t-8.5 54q0 35 11 69.5t32 62t52 44.5t71 17q45 0 76 -19.5t50.5 -53t28.5 -78.5t9 -97v-352h-28zM352 275q0 54 -7.5 97.5t-24.5 74.5t-44 48t-66 17q-31 0 -55.5 -15t-42 -39
t-26.5 -53.5t-9 -58.5q0 -50 32.5 -79.5t95.5 -29.5q40 0 77 9t70 29z" />
    <glyph glyph-name="colon" unicode=":" horiz-adv-x="187" 
d="M94 242q-17 0 -22.5 8.5t-5.5 26.5q0 20 5.5 28t22.5 8t22 -8t5 -28q0 -18 -5 -26.5t-22 -8.5zM94 0q-17 0 -22.5 8.5t-5.5 26.5q0 20 5.5 28t22.5 8t22 -8t5 -28q0 -18 -5 -26.5t-22 -8.5z" />
    <glyph glyph-name="semicolon" unicode=";" horiz-adv-x="227" 
d="M82 -108q-1 0 -1 4v1q0 2 1 3q4 5 11.5 14.5t15.5 22.5t14 29.5t7 35.5q-6 -5 -19 -5q-14 0 -22 9t-8 24q0 14 8.5 23t23.5 9t24.5 -10.5t9.5 -30.5q0 -36 -16.5 -72t-45.5 -62zM79 406q0 16 9.5 26t24.5 10t25.5 -10t10.5 -26q0 -14 -10.5 -24t-25.5 -10t-24.5 10
t-9.5 24z" />
    <glyph glyph-name="less" unicode="&#x3c;" horiz-adv-x="454" 
d="M399 11l-13 -24l-331 180v33l331 181l13 -25l-320 -172z" />
    <glyph glyph-name="equal" unicode="=" horiz-adv-x="512" 
d="M55 95v27h402v-27h-402zM55 270v27h402v-27h-402z" />
    <glyph glyph-name="greater" unicode="&#x3e;" horiz-adv-x="454" 
d="M55.0244 11l12.999 -24l330.979 180v33l-330.979 181l-12.999 -25l319.98 -172z" />
    <glyph glyph-name="question" unicode="?" horiz-adv-x="392" 
d="M46 577q23 25 58.5 44t86.5 19q30 0 57.5 -9t48.5 -26.5t33.5 -42.5t12.5 -56q0 -35 -11.5 -60.5t-28 -45t-36.5 -34t-37.5 -27.5t-29 -26.5t-12.5 -30.5l-3 -76h-16l-2 80q-1 18 10.5 32.5t28 28t36.5 27.5t37 32t28.5 42t11.5 57q0 27 -11 48.5t-29 36.5t-41.5 23
t-48.5 8q-32 0 -55.5 -9t-39 -19.5t-24 -19.5t-11.5 -9q-5 0 -5 4zM141 26q0 16 9.5 26t25.5 10q15 0 25 -10t10 -26q0 -14 -10 -23.5t-25 -9.5q-16 0 -25.5 9.5t-9.5 23.5z" />
    <glyph glyph-name="at" unicode="@" horiz-adv-x="761" 
d="M509 396q-13 4 -25 6t-31 2q-45 0 -81.5 -18t-62 -47.5t-39.5 -65.5t-14 -72q0 -38 19.5 -66t60.5 -28q18 0 37.5 6t37.5 22t33.5 43.5t26.5 70.5zM492 249q-12 -46 -11.5 -74.5t9.5 -44t24 -21t32 -5.5q28 0 54.5 14.5t46 41t31.5 65t12 86.5q0 71 -23.5 123.5t-63.5 87
t-92.5 51.5t-110.5 17q-64 0 -122 -25t-102.5 -70t-70.5 -108t-26 -138q0 -84 26.5 -147.5t72.5 -106t107 -64.5t129 -22q133 0 234 66q9 5 11 -4l5 -10q-54 -35 -115 -53t-135 -18t-138.5 23.5t-112.5 69t-76 112.5t-28 154q0 78 27 144t73.5 113.5t108.5 74.5t132 27
q61 0 116.5 -18.5t98.5 -55.5t68.5 -93t25.5 -130q0 -51 -13 -92.5t-35.5 -71t-53 -45.5t-64.5 -16q-45 0 -63.5 26t-15.5 71q-26 -49 -59 -71t-73 -22q-50 0 -74 32t-24 79q0 39 15 78.5t43.5 71t69.5 51.5t93 20q43 0 77 -16z" />
    <glyph glyph-name="A" unicode="A" horiz-adv-x="594" 
d="M455 233l-94 222q-17 39 -34 80t-29 80q-12 -40 -30 -80.5t-35 -79.5l-94 -222h316zM579 0h-20q-5 0 -11 10.5t-12 25t-11.5 30t-8.5 24.5l-52 124h-334l-50 -124q-4 -9 -10 -24.5t-12 -30t-12 -25t-11 -10.5h-19l270 640h24z" />
    <glyph glyph-name="B" unicode="B" horiz-adv-x="576" 
d="M302 21q91 0 140.5 37.5t49.5 114.5q0 66 -49 104.5t-140 38.5h-175v-295h174zM128 622v-286h110q39 0 79.5 4.5t73 19.5t53 44t20.5 78q0 140 -185 140h-151zM279 640q105 0 157 -38t52 -118q0 -27 -10.5 -52.5t-29 -46t-44 -35.5t-56.5 -21q80 -8 125 -48.5t45 -107.5
q0 -85 -57 -129t-159 -44h-199v640h176z" />
    <glyph glyph-name="C" unicode="C" horiz-adv-x="628" 
d="M571 93q3 1 4.5 2t3.5 1q1 0 1.5 -1t2.5 -1l10 -10q-41 -42 -95.5 -66.5t-135.5 -24.5q-65 0 -120.5 21t-96 62t-63.5 101t-23 137q0 72 22 133.5t63 105.5t99 69t129 25q63 0 113 -19.5t95 -58.5q-5 -10 -8.5 -12t-5.5 -2q-3 0 -10 5q-26 19 -48.5 31.5t-44.5 20
t-44 10.5t-47 3q-68 0 -121.5 -24t-90 -66t-56 -99t-19.5 -122q0 -72 21 -127.5t58 -94t87.5 -58.5t110.5 -20q51 0 88 9.5t70 30.5q14 8 27 18t24 21z" />
    <glyph glyph-name="D" unicode="D" horiz-adv-x="701" 
d="M640 322q0 -74 -21.5 -133.5t-61 -101.5t-95.5 -64.5t-125 -22.5h-234v640h234q67 0 123 -21t96 -61.5t62 -99.5t22 -136zM614 322q0 71 -20 126.5t-56.5 94t-87.5 58.5t-113 20h-209v-600h168q61 0 118 11.5t101.5 44.5t71.5 91.5t27 153.5z" />
    <glyph glyph-name="E" unicode="E" horiz-adv-x="538" 
d="M128 619v-282h301v-21h-301v-295h359l-1 -21h-383v640h383v-21h-358z" />
    <glyph glyph-name="F" unicode="F" horiz-adv-x="521" 
d="M128 619v-294h312v-22h-312v-303h-25v640h383v-21h-358z" />
    <glyph glyph-name="G" unicode="G" horiz-adv-x="681" 
d="M448 286h168v-222q-48 -33 -102.5 -52t-125.5 -19q-76 0 -137 22.5t-103.5 65t-65.5 103t-23 136.5t22.5 136.5t64.5 103t101.5 65t133.5 22.5q75 0 125.5 -19t94.5 -58l-8 -10q-1 -6 -8 -4q-5 1 -18 12t-36.5 24t-60 23t-89.5 10q-68 0 -122.5 -20.5t-93 -59.5
t-59.5 -95.5t-21 -129.5q0 -72 21 -129t60 -96.5t95 -60.5t127 -21q64 0 111 16t94 44v193h-136q-9 0 -9 7v13z" />
    <glyph glyph-name="H" unicode="H" horiz-adv-x="694" 
d="M590 640v-640h-25v316h-437v-316h-25v640h25v-303h437v303h25z" />
    <glyph glyph-name="I" unicode="I" horiz-adv-x="231" 
d="M128 0h-25v640h25v-640z" />
    <glyph glyph-name="J" unicode="J" horiz-adv-x="379" 
d="M282 212q0 -109 -51 -164t-137 -55q-38 0 -82 14l2 12q2 2 2.5 4t5.5 2q10 0 25.5 -5.5t44.5 -5.5q77 0 120.5 48.5t43.5 148.5v429h26v-428z" />
    <glyph glyph-name="K" unicode="K" horiz-adv-x="573" 
d="M128 338h44q17 0 26 3.5t19 14.5l280 276q6 5 10.5 6.5t12.5 1.5h19l-298 -291q-8 -8 -13 -12t-14 -6q9 -2 15 -6.5t14 -12.5l319 -312h-19q-10 0 -13.5 1.5t-8.5 6.5l-299 292q-10 10 -18 14.5t-31 4.5h-45v-319h-25v640h25v-302z" />
    <glyph glyph-name="L" unicode="L" horiz-adv-x="464" 
d="M450 22v-22h-347v640h25v-618h322z" />
    <glyph glyph-name="M" unicode="M" horiz-adv-x="829" 
d="M727 640v-640h-22v586v15l-273 -473l-5.5 -5.5t-4.5 -2.5h-5q-5 0 -13 8l-280 474q1 -5 1 -9v-7v-586h-22v640h15q4 0 6.5 -0.5t4.5 -4.5l283 -473q2 -4 3 -8t3 -8q3 4 4.5 8t4.5 9l273 472q2 4 4.5 4.5t7.5 0.5h15z" />
    <glyph glyph-name="N" unicode="N" horiz-adv-x="694" 
d="M590 640v-640h-10q-5 0 -10 5l-446 595q1 -5 1 -9v-8v-583h-22v640h11q4 0 7 -0.5t5 -4.5l443 -591q0 3 -0.5 7.5t-0.5 7.5v581h22z" />
    <glyph glyph-name="O" unicode="O" horiz-adv-x="728" 
d="M668 319q0 -77 -22.5 -137.5t-63 -102.5t-96.5 -64t-124 -22q-67 0 -122.5 22t-95.5 64t-62.5 102.5t-22.5 137.5q0 76 22.5 136.5t62.5 103t95.5 65.5t122.5 23q68 0 124 -22.5t96.5 -65t63 -103.5t22.5 -137zM639 319q0 72 -20 129t-56.5 96.5t-87.5 60t-113 20.5
q-60 0 -111 -20.5t-88 -60t-57.5 -96.5t-20.5 -129t20.5 -128.5t57.5 -95.5t88 -59.5t111 -20.5q62 0 113 20.5t87.5 59.5t56.5 95.5t20 128.5z" />
    <glyph glyph-name="P" unicode="P" horiz-adv-x="523" 
d="M257 290q46 0 83 13t63 35.5t40 53.5t14 67q0 163 -200 163h-129v-332h129zM257 640q111 0 168.5 -43t57.5 -138q0 -41 -16 -76t-46 -60.5t-71.5 -39.5t-92.5 -14h-129v-269h-25v640h154z" />
    <glyph glyph-name="Q" unicode="Q" horiz-adv-x="728" 
d="M85 319q0 -72 20.5 -128.5t57.5 -95.5t88 -59.5t111 -20.5q62 0 113 20.5t87.5 59.5t56.5 95.5t20 128.5t-20 129t-56.5 96.5t-87.5 60t-113 20.5q-60 0 -111 -20.5t-88 -60t-57.5 -96.5t-20.5 -129zM692 -148h-22q-11 0 -18 7l-152 163q-61 -29 -138 -29
q-67 0 -122.5 22t-95.5 64t-62.5 102.5t-22.5 137.5q0 76 22.5 136.5t62.5 103t95.5 65.5t122.5 23q68 0 124 -22.5t96.5 -65t63 -103.5t22.5 -137q0 -103 -39 -175t-108 -110z" />
    <glyph glyph-name="R" unicode="R" horiz-adv-x="552" 
d="M252 323q92 0 145 41t53 114q0 76 -49 110t-141 34h-132v-299h124zM533 0h-21q-10 0 -15 7l-230 280q-8 9 -16 12.5t-28 3.5h-95v-303h-25v640h157q106 0 160.5 -38.5t54.5 -123.5q0 -76 -54.5 -122t-144.5 -52q4 -2 8.5 -5t7.5 -8z" />
    <glyph glyph-name="S" unicode="S" horiz-adv-x="491" 
d="M408 571q-1 -4 -6 -4t-14 9t-25.5 20t-42 20t-63.5 9t-67 -11.5t-48.5 -30.5t-29.5 -44t-10 -53q0 -48 24.5 -74t62 -42.5t80.5 -28.5t80.5 -29.5t62 -47.5t24.5 -82q0 -41 -14 -76t-40 -60t-64 -39t-86 -14q-65 0 -108 22t-77 62l7 8q2 4 3.5 4.5t4.5 0.5q5 0 15.5 -12
t30 -26t50 -26t75.5 -12q42 0 75 12.5t56.5 34t35.5 51t12 64.5q0 49 -24.5 76t-62 43t-80.5 27.5t-80.5 29.5t-62 48.5t-24.5 84.5q0 31 12 60.5t34.5 52t56 36t76.5 13.5q50 0 88 -16t70 -49z" />
    <glyph glyph-name="T" unicode="T" horiz-adv-x="529" 
d="M516 619h-238v-619h-26v619h-239v21h503v-21z" />
    <glyph glyph-name="U" unicode="U" horiz-adv-x="668" 
d="M334 15q50 0 89.5 17.5t67 48.5t42 73t14.5 90v396h26v-396q0 -53 -16.5 -98.5t-47.5 -80t-75.5 -54t-99.5 -19.5q-56 0 -100 19.5t-75.5 54t-48 80t-16.5 98.5v396h26v-395q0 -48 14.5 -90t42 -73t67 -49t90.5 -18z" />
    <glyph glyph-name="V" unicode="V" horiz-adv-x="594" 
d="M575 640l-266 -640h-22l-267 640h19q9 0 10 -7l239 -573q5 -19 10 -30q3 16 10 30l236 573q3 7 11 7h20z" />
    <glyph glyph-name="W" unicode="W" horiz-adv-x="931" 
d="M902 640l-202 -640h-23l-207 591q-1 5 -2.5 9.5t-2.5 9.5q-1 -5 -2 -9.5t-3 -9.5l-207 -591h-22l-204 640h21q10 0 11 -7l176 -568q3 -8 5 -16.5t4 -17.5q2 10 4 18l4 16l199 568q4 7 12 7h6q8 0 11 -7l199 -568q2 -8 4.5 -16t3.5 -18q3 10 4.5 18t3.5 16l179 568
q0 7 10 7h18z" />
    <glyph glyph-name="X" unicode="X" horiz-adv-x="563" 
d="M539 0h-25q-5 0 -7 2.5t-4 5.5l-223 311q-1 -7 -4 -9l-218 -302q-6 -8 -11 -8h-24l241 331l-229 309h24q5 0 7 -2l4 -4l211 -292q3 3 4 5.5t3 4.5l205 281q3 2 5 4.5t7 2.5h24l-230 -307z" />
    <glyph glyph-name="Y" unicode="Y" horiz-adv-x="535" 
d="M280 270v-270h-25v270l-241 370h21q9 0 11 -6l206 -317q4 -7 9 -14.5t7 -14.5q4 15 17 29l203 317q6 6 12 6h22z" />
    <glyph glyph-name="Z" unicode="Z" horiz-adv-x="550" 
d="M510 634q0 -6 -4 -13l-436 -600h439v-21h-474v7q0 8 4 13l437 599h-431v21h465v-6z" />
    <glyph glyph-name="bracketleft" unicode="[" horiz-adv-x="302" 
d="M248 594v-28h-154v-715h154v-27h-182v770h182z" />
    <glyph glyph-name="backslash" unicode="\" horiz-adv-x="528" 
d="M77.0273 566l-21.998 -14l395.976 -629l21.998 14z" />
    <glyph glyph-name="bracketright" unicode="]" horiz-adv-x="302" 
d="M54.0156 594v-28h153.99v-715h-153.99v-27h181.988v770h-181.988z" />
    <glyph glyph-name="underscore" unicode="_" horiz-adv-x="493" 
d="M55 28h383v-28h-383v28z" />
    <glyph glyph-name="a" unicode="a" horiz-adv-x="441" 
d="M339 229q-140 -5 -206 -35t-66 -86q0 -26 8.5 -44.5t23 -30.5t32.5 -17.5t36 -5.5q60 0 100 25t72 61v133zM67 391q35 35 72 53.5t85 18.5q72 0 105.5 -44t33.5 -120v-299h-7q-10 0 -11 9l-5 68q-19 -20 -37.5 -35.5t-39.5 -26t-45.5 -16.5t-54.5 -6q-22 0 -43 6.5
t-38 20t-27.5 35.5t-10.5 53q0 59 71 96t224 41v54q0 69 -29 106.5t-87 37.5q-35 0 -59.5 -10t-41.5 -22t-26.5 -22t-14.5 -10q-7 0 -10 5z" />
    <glyph glyph-name="b" unicode="b" horiz-adv-x="505" 
d="M105 94q29 -45 64 -63t80 -18t78.5 16.5t55 46t32.5 71t11 92.5q0 102 -40.5 153t-115.5 51q-55 0 -94.5 -26t-70.5 -73v-250zM105 367q31 45 72 70.5t98 25.5q83 0 129 -58t46 -165q0 -56 -13 -101t-38 -77.5t-62 -50t-85 -17.5q-49 0 -85.5 19.5t-62.5 57.5l-1 -63
q-2 -8 -9 -8h-13v652h24v-285z" />
    <glyph glyph-name="c" unicode="c" horiz-adv-x="432" 
d="M381 405q-3 -3 -5 -3q-4 0 -12 6.5t-22 14t-35 14t-51 6.5q-85 0 -131.5 -57.5t-46.5 -157.5q0 -104 46.5 -159.5t124.5 -55.5q35 0 59 8.5t39.5 18t23.5 18t12 8.5t7 -4l5 -6q-17 -23 -57 -42.5t-92 -19.5q-88 0 -140 61.5t-52 172.5q0 52 13.5 95.5t39 74.5t63 48
t85.5 17q43 0 76 -14t57 -35z" />
    <glyph glyph-name="d" unicode="d" horiz-adv-x="505" 
d="M400 362q-30 46 -64.5 63.5t-79.5 17.5t-78.5 -16.5t-55 -45t-32.5 -68.5t-11 -86q0 -109 40.5 -161t118.5 -52q48 0 89 25.5t73 73.5v249zM423 652v-652h-10q-10 0 -10 9l-3 81q-31 -45 -73 -70.5t-94 -25.5q-87 0 -133 57t-46 176q0 49 13 92.5t38 75t62 50t85 18.5
q49 0 84.5 -18.5t63.5 -56.5v264h23z" />
    <glyph glyph-name="e" unicode="e" horiz-adv-x="478" 
d="M408 271q0 41 -11.5 73.5t-32 55t-48.5 34t-61 11.5q-78 0 -123 -47t-53 -127h329zM78 250q-3 -43 5.5 -85.5t30.5 -76t57.5 -54t85.5 -20.5q37 0 64 8t45 18t28 18t12 8q5 0 8 -4l4 -6q-9 -12 -25 -23t-38 -19.5t-47 -14t-52 -5.5q-94 0 -148 63.5t-54 179.5
q0 50 13.5 91.5t39 71.5t62.5 46.5t85 16.5q37 0 69.5 -13t56 -38.5t37 -63.5t13.5 -87q0 -11 -7 -11h-345z" />
    <glyph glyph-name="f" unicode="f" horiz-adv-x="310" 
d="M106 0v403l-71 3q-4 1 -6.5 2t-2.5 6v9h80v64q0 79 36.5 116t94.5 37q14 0 28 -1.5t25 -6.5l-1 -11q0 -4 -3 -4t-9 1.5t-15.5 3t-22.5 1.5q-47 0 -78 -31t-31 -105v-64h157v-19h-156v-404h-25z" />
    <glyph glyph-name="g" unicode="g" horiz-adv-x="466" 
d="M224 189q66 0 100.5 35t34.5 92q0 58 -35.5 93.5t-99.5 35.5q-63 0 -98.5 -35.5t-35.5 -93.5q0 -57 35.5 -92t98.5 -35zM408 -35q0 36 -26 52t-64.5 21.5t-83 6t-81.5 7.5q-40 -14 -66 -39.5t-26 -60.5q0 -45 45 -75.5t125 -30.5q36 0 68 8.5t56.5 24.5t38.5 38t14 48z
M438 435v-8q0 -9 -10 -9l-82 -3q36 -38 36 -98q0 -66 -43 -105.5t-115 -39.5q-43 0 -76 15q-22 -12 -35 -29.5t-13 -34.5q0 -29 24.5 -40.5t61.5 -15.5t80 -4.5t80 -8.5t61.5 -27t24.5 -59q0 -27 -14 -52.5t-40.5 -45t-64 -31.5t-83.5 -12q-94 0 -142.5 36t-48.5 87
q0 37 25 64.5t70 42.5q-25 8 -40 22t-15 40q0 18 14.5 39.5t40.5 35.5q-32 19 -49.5 50t-17.5 73q0 66 42.5 106t114.5 40q32 0 56 -7t44 -21h114z" />
    <glyph glyph-name="h" unicode="h" horiz-adv-x="505" 
d="M105 369q32 43 76 68.5t96 25.5q76 0 113 -45.5t37 -126.5v-291h-23v291q0 71 -32.5 111.5t-98.5 40.5q-51 0 -92.5 -26t-75.5 -73v-344h-24v652h24v-283z" />
    <glyph glyph-name="i" unicode="i" horiz-adv-x="197" 
d="M111 455v-455h-25v455h25zM130 610q0 -14 -9.5 -22.5t-20.5 -8.5q-14 0 -23.5 8.5t-9.5 22.5q0 12 9.5 21t23.5 9q11 0 20.5 -9t9.5 -21z" />
    <glyph glyph-name="j" unicode="j" horiz-adv-x="197" 
d="M111 455v-526q0 -44 -25.5 -72.5t-73.5 -28.5q-22 0 -41 9l3 13q2 7 9 2t26 -5q39 0 58 22t19 60v526h25zM130 610q0 -14 -10 -22.5t-21 -8.5q-14 0 -23 8.5t-9 22.5q0 12 9 21t23 9q11 0 21 -9t10 -21z" />
    <glyph glyph-name="k" unicode="k" horiz-adv-x="424" 
d="M105 652v-399h22q5 0 10.5 1.5t12.5 7.5l204 184q3 4 6.5 6.5t11.5 2.5h21l-219 -198q-4 -3 -7 -5t-7 -5q7 -2 12 -6t10 -9l229 -232h-20q-6 0 -9.5 1t-8.5 6l-213 216q-8 8 -14.5 11t-20.5 3h-20v-237h-24v652h24z" />
    <glyph glyph-name="l" unicode="l" horiz-adv-x="196" 
d="M110 652v-652h-25v652h25z" />
    <glyph glyph-name="m" unicode="m" horiz-adv-x="735" 
d="M81 0v455h11q10 0 10 -9l2 -76q28 42 63.5 67.5t79.5 25.5q53 0 83.5 -31.5t40.5 -88.5q7 30 21.5 52.5t33.5 37.5t42 22.5t48 7.5q66 0 104 -44t38 -128v-291h-24v291q0 75 -31.5 113.5t-91.5 38.5q-26 0 -49.5 -9.5t-41.5 -28.5t-29 -47.5t-11 -66.5v-291h-24v291
q0 73 -29 112.5t-84 39.5q-42 0 -76.5 -26t-61.5 -71v-346h-24z" />
    <glyph glyph-name="n" unicode="n" horiz-adv-x="505" 
d="M104 367q32 45 76 70.5t97 25.5q76 0 113 -45.5t37 -126.5v-291h-23v291q0 71 -32.5 111.5t-98.5 40.5q-51 0 -92.5 -26t-75.5 -73v-344h-24v455h11q10 0 10 -9z" />
    <glyph glyph-name="o" unicode="o" horiz-adv-x="510" 
d="M255 463q48 0 86 -17t64 -47.5t39.5 -74t13.5 -96.5q0 -54 -13.5 -97t-39.5 -73.5t-64 -47t-86 -16.5t-85.5 16.5t-63 47t-39 73.5t-13.5 97q0 53 13.5 96.5t39 74t63 47.5t85.5 17zM255 14q44 0 77.5 15.5t56 43.5t34 67.5t11.5 87.5t-11.5 88t-34 68t-56 43.5
t-77.5 15.5q-89 0 -133 -59t-44 -156q0 -96 44 -155t133 -59z" />
    <glyph glyph-name="p" unicode="p" horiz-adv-x="505" 
d="M105 94q29 -45 63 -63t81 -18q44 0 77.5 16.5t55.5 45.5t33 68.5t11 86.5q0 110 -41 161.5t-119 51.5q-49 0 -89.5 -26t-71.5 -73v-250zM104 367q32 45 73.5 70.5t92.5 25.5q87 0 133.5 -57.5t46.5 -175.5q0 -49 -12.5 -92t-37.5 -75t-62 -50.5t-86 -18.5t-85 19t-62 56
v-234h-24v620h11q10 0 10 -9z" />
    <glyph glyph-name="q" unicode="q" horiz-adv-x="504" 
d="M400 362q-29 44 -64 62.5t-80 18.5t-78.5 -16.5t-55 -45t-32.5 -68.5t-11 -86q0 -109 40.5 -161t118.5 -52q48 0 89 25.5t73 73.5v249zM423 455v-620h-23v255q-32 -45 -74 -70.5t-93 -25.5q-87 0 -133 57t-46 176q0 49 13 92.5t38 75t62 50t85 18.5q96 0 148 -78l3 61
q0 9 10 9h10z" />
    <glyph glyph-name="r" unicode="r" horiz-adv-x="321" 
d="M104 334q20 62 56 95.5t94 33.5q14 0 28 -2t26 -10l-5 -13q-2 -6 -5 -6q-5 0 -15.5 4t-30.5 4q-59 0 -91.5 -35.5t-55.5 -106.5v-298h-24v455h11q10 0 10 -9z" />
    <glyph glyph-name="s" unicode="s" horiz-adv-x="390" 
d="M323 408q-3 -4 -7 -4q-5 0 -12.5 6t-20.5 13.5t-33 13.5t-49 6q-28 0 -50.5 -8t-38.5 -21.5t-24.5 -31.5t-8.5 -37q0 -31 19.5 -49t48.5 -29.5t62.5 -20.5t62.5 -23t48.5 -35.5t19.5 -58.5q0 -28 -10 -53t-29.5 -43.5t-48 -29t-65.5 -10.5q-48 0 -80.5 14.5t-60.5 39.5
l6 9q2 2 3.5 3t5.5 1t12.5 -7.5t23 -16.5t37 -16.5t54.5 -7.5q65 0 97 33t32 81q0 33 -19.5 52t-48.5 30.5t-62.5 20.5t-62.5 22.5t-48.5 34.5t-19.5 58q0 23 10.5 44.5t29 38t45.5 26.5t60 10q39 0 69.5 -11.5t57.5 -34.5z" />
    <glyph glyph-name="t" unicode="t" horiz-adv-x="309" 
d="M197 -7q-42 0 -66 23t-24 74v324h-71q-10 0 -10 6v8l81 4l6 176q2 7 9 7h9v-183h150v-18h-150v-323q0 -42 20.5 -60.5t49.5 -18.5q18 0 32 5.5t23.5 12t15.5 12t8 5.5q4 0 6 -3l6 -8q-16 -20 -42 -31.5t-53 -11.5z" />
    <glyph glyph-name="u" unicode="u" horiz-adv-x="504" 
d="M423 455v-455h-10q-10 0 -11 9l-2 80q-32 -45 -75.5 -70.5t-96.5 -25.5q-77 0 -114 45t-37 126v291h24v-291q0 -72 31.5 -112t99.5 -40q50 0 92 25.5t76 72.5v345h23z" />
    <glyph glyph-name="v" unicode="v" horiz-adv-x="457" 
d="M435 455l-197 -455h-20l-196 455h17q5 0 7.5 -3t3.5 -5l169 -393q7 -14 10 -28q1 11 8 28l168 393q4 8 12 8h18z" />
    <glyph glyph-name="w" unicode="w" horiz-adv-x="696" 
d="M669 455l-153 -455h-17q-7 0 -7 7l-138 401q-2 5 -3 10t-2 9q-1 -4 -2.5 -9t-3.5 -10l-138 -401q-3 -7 -9 -7h-13l-157 455h18q5 0 8 -3t4 -5l130 -393q2 -8 3.5 -14.5t2.5 -14.5q2 8 4 14.5t5 14.5l135 396q3 8 8 8h10q5 0 7 -8l136 -396q2 -8 3.5 -14.5t3.5 -14.5
q2 8 3.5 14.5t3.5 14.5l129 393q8 8 12 8h17z" />
    <glyph glyph-name="x" unicode="x" horiz-adv-x="419" 
d="M395 0h-23q-8 0 -12 8l-151 214q-1 -4 -2 -6t-2 -6l-147 -202q-2 -3 -4.5 -5.5t-7.5 -2.5h-21l168 232l-162 223h24q4 0 6 -2.5t4 -4.5l145 -205q2 8 6 11l139 193q2 2 4 5t7 3h22l-161 -222z" />
    <glyph glyph-name="y" unicode="y" horiz-adv-x="457" 
d="M436 455l-266 -608q-3 -5 -6 -8.5t-10 -3.5h-15l78 177l-195 443h18q6 0 9 -3l5 -5l169 -389q3 -7 4.5 -11.5t2.5 -10.5q2 5 3.5 9.5t4.5 12.5l168 389q4 8 12 8h18z" />
    <glyph glyph-name="z" unicode="z" horiz-adv-x="405" 
d="M372 446q0 -6 -5 -10l-305 -416h297v-20h-328v8q0 3 1.5 5.5t3.5 6.5l306 417h-295v18h325v-9z" />
    <glyph glyph-name="braceleft" unicode="{" horiz-adv-x="338" 
d="M55 219q30 3 47 18t25.5 40.5t10.5 60.5t2 79q0 39 3 72t15 56t35.5 36t64.5 13h25v-28h-23q-29 0 -47.5 -7.5t-28.5 -25t-13.5 -45.5t-3.5 -69q0 -45 -1.5 -79t-8.5 -59.5t-21 -44t-39 -30.5q25 -12 39 -30.5t21 -44.5t8.5 -60.5t1.5 -79.5q0 -41 3.5 -68t13.5 -43
t28.5 -22.5t47.5 -6.5h23v-27h-25q-41 0 -64.5 11.5t-35.5 33.5t-15 53.5t-3 70.5q0 44 -2 79.5t-10.5 61t-25.5 40.5t-47 17v28z" />
    <glyph glyph-name="bar" unicode="|" horiz-adv-x="159" 
d="M94 -176h-28v770h28v-770z" />
    <glyph glyph-name="braceright" unicode="}" horiz-adv-x="338" 
d="M283.003 219q-29.998 3 -46.9971 18t-25.498 40.5q-8.5 25.5 -10.499 60.5q-2 35 -2 79q0 39 -3 72t-14.999 56t-35.498 36q-23.498 13 -64.4961 13h-24.998v-28h22.998q28.998 0 47.4971 -7.5t28.499 -25q9.99902 -17.5 13.499 -45.5q3.49902 -28 3.49902 -69
q0 -45 1.5 -79t8.5 -59.5q6.99902 -25.5 20.998 -44q14 -18.5 38.998 -30.5q-24.998 -12 -38.998 -30.5q-13.999 -18.5 -20.998 -44.5q-7 -26 -8.5 -60.5t-1.5 -79.5q0 -41 -3.49902 -68q-3.5 -27 -13.499 -43q-10 -16 -28.499 -22.5t-47.4971 -6.5h-22.998v-27h24.998
q40.998 0 64.4961 11.5q23.499 11.5 35.498 33.5t14.999 53.5t3 70.5q0 44 2 79.5q1.99902 35.5 10.499 61q8.49902 25.5 25.498 40.5t46.9971 17v28z" />
    <glyph glyph-name="nonbreakingspace" unicode="&#xa0;" horiz-adv-x="165" 
 />
    <glyph glyph-name="cent" unicode="&#xa2;" horiz-adv-x="535" 
d="M300 443q-93 -2 -143.5 -59t-50.5 -156q0 -100 48 -155t131 -59zM457 56q-17 -23 -59 -41.5t-98 -20.5l-3 -105q-2 -11 -9 -11h-10l4 116q-45 2 -82 18.5t-63 46.5t-40.5 72.5t-14.5 96.5q0 105 57.5 169t161.5 66l5 102q0 10 8 10h9l-4 -113q42 -2 74 -15t55 -33l-7 -9
q0 -3 -4 -3t-12 6t-22 13t-34.5 13.5t-49.5 7.5l-18 -429q37 1 63 9t42.5 18t25.5 18t13 8t5 -4z" />
    <glyph glyph-name="sterling" unicode="&#xa3;" horiz-adv-x="535" 
d="M30 300q0 6 3.5 8.5t8.5 2.5h83v137q0 43 11.5 79.5t35 63t58 41.5t80.5 15q34 0 60.5 -8.5t46 -23t33 -33.5t22.5 -40l-10 -4q-4 -3 -7 -2.5t-8 7.5q-9 16 -19.5 31t-26.5 26.5t-38 18.5t-53 7q-79 0 -119.5 -50t-40.5 -128v-137h231v-11q0 -7 -9 -7h-222v-152
q0 -45 -19 -74t-52 -48q8 2 17.5 2h17.5h391v-9q0 -12 -13 -12h-449v17q16 7 30.5 17t26 24t18.5 33t7 45v157h-95v7z" />
    <glyph glyph-name="currency" unicode="&#xa4;" horiz-adv-x="535" 
d="M268 173q28 0 53 11t43.5 29.5t29 43.5t10.5 53t-10.5 53t-29 43.5t-43.5 29t-53 10.5t-53 -10.5t-43.5 -29t-29.5 -43.5t-11 -53t11 -53t29.5 -43.5t43.5 -29.5t53 -11zM442 123l-70 70q-21 -18 -47.5 -28.5t-56.5 -10.5q-29 0 -55.5 10.5t-47.5 28.5l-73 -71l-12 12
l72 73q-39 42 -39 103q0 29 10 55t28 48l-71 71l12 13l72 -72q44 39 104 39q30 0 56.5 -10t47.5 -28l70 72l13 -14l-71 -70q18 -22 28.5 -48t10.5 -56q0 -31 -10.5 -57.5t-28.5 -46.5l71 -71z" />
    <glyph glyph-name="yen" unicode="&#xa5;" horiz-adv-x="535" 
d="M286 279h169v-15h-176v-57h176v-18h-176v-189h-23v189h-175v18h175v57h-175v15h170l-199 361h19q9 0 11 -6l176 -324q3 -7 5.5 -11.5t4.5 -10.5q2 6 4 10.5t4 11.5l177 324q3 6 11 6h20z" />
    <glyph glyph-name="brokenbar" unicode="&#xa6;" horiz-adv-x="159" 
d="M94 280h-28v314h28v-314zM94 -176h-28v313h28v-313z" />
    <glyph glyph-name="copyright" unicode="&#xa9;" horiz-adv-x="782" 
d="M533 185h5h1l9 -10q-28 -26 -63.5 -41.5t-89.5 -15.5q-44 0 -81 13t-63.5 38t-41.5 62t-15 84q0 46 15 83.5t42.5 63.5t65.5 40t84 14q48 0 80 -13t61 -38l-7 -7l-2 -2t-4 -1t-11 6.5t-22.5 14t-37 14t-56.5 6.5q-41 0 -75 -12t-59 -35t-38.5 -56.5t-13.5 -77.5
t13.5 -77.5t37.5 -55.5t56.5 -33t71.5 -11q52 0 81.5 12t56.5 35zM59 315q0 69 26 129t71 104.5t105.5 70.5t129.5 26q68 0 128 -26t105 -70.5t71 -104.5t26 -129t-26 -128t-71 -102t-105 -67.5t-128 -24.5q-69 0 -129.5 24.5t-105.5 67.5t-71 102t-26 128zM77 315
q0 -65 24.5 -121t67 -97t99.5 -64t123 -23q65 0 122.5 23t100 64t67 97t24.5 121t-24.5 122t-67 99.5t-100 67t-122.5 24.5q-66 0 -123 -24.5t-99.5 -67t-67 -99.5t-24.5 -122z" />
    <glyph glyph-name="guillemotleft" unicode="&#xab;" horiz-adv-x="369" 
d="M82 204q0 -37 4 -70t15 -65t30.5 -65t50.5 -70l-17 -17q-35 39 -56.5 76.5t-33.5 74t-16 71.5t-4 70t4 70t16 71.5t33.5 74t56.5 76.5l17 -17q-31 -37 -50.5 -70t-30.5 -66t-15 -68t-4 -76zM214 204q0 -37 4 -70t15 -65t30.5 -65t50.5 -70l-17 -17q-35 39 -56.5 76.5
t-33.5 74t-16 71.5t-4 70t4 70t16 71.5t33.5 74t56.5 76.5l17 -17q-31 -37 -50.5 -70t-30.5 -66t-15 -68t-4 -76z" />
    <glyph glyph-name="logicalnot" unicode="&#xac;" horiz-adv-x="512" 
d="M429 294h-374v27h402v-259h-28v232z" />
    <glyph glyph-name="softHyphen" unicode="&#xad;" horiz-adv-x="451" 
d="M55 159v28h341v-28h-341z" />
    <glyph glyph-name="registered" unicode="&#xae;" horiz-adv-x="782" 
d="M373 325q58 0 89 22t31 67q0 46 -27.5 65t-86.5 19h-82v-173h76zM554 122h-21q-4 0 -9 4l-142 172q-3 4 -8.5 7.5t-18.5 3.5h-58v-187h-22v395h104q67 0 102 -24t35 -78q0 -48 -32.5 -73.5t-89.5 -29.5q5 -2 8 -6t6 -9zM59 315q0 69 26 129t71 104.5t105.5 70.5t129.5 26
q68 0 128 -26t105 -70.5t71 -104.5t26 -129t-26 -128t-71 -102t-105 -67.5t-128 -24.5q-69 0 -129.5 24.5t-105.5 67.5t-71 102t-26 128zM77 315q0 -65 24.5 -121t67 -97t99.5 -64t123 -23q65 0 122.5 23t100 64t67 97t24.5 121t-24.5 122t-67 99.5t-100 67t-122.5 24.5
q-66 0 -123 -24.5t-99.5 -67t-67 -99.5t-24.5 -122z" />
    <glyph glyph-name="degree" unicode="&#xb0;" horiz-adv-x="363" 
d="M55 473q0 26 10 49t27 40t40.5 27t49.5 10t49 -10t40 -27t27 -40t10 -49t-10 -49t-27 -40.5t-40 -27.5t-49 -10t-49.5 10t-40.5 27.5t-27 40.5t-10 49zM82 473q0 -42 29 -70.5t71 -28.5t70 28.5t28 70.5t-28 70.5t-70 28.5t-71 -28.5t-29 -70.5z" />
    <glyph glyph-name="plusminus" unicode="&#xb1;" horiz-adv-x="512" 
d="M55 1v27h402v-27h-402zM55 319v27h190v182h27v-182h185v-27h-185v-182h-27v182h-190z" />
    <glyph glyph-name="paragraph" unicode="&#xb6;" horiz-adv-x="396" 
d="M330 0h-28v566h-109v-566h-28v358q-33 0 -54 3.5t-33.5 15.5t-17.5 34.5t-5 61.5t5 63t17 36.5t33.5 17t54.5 4.5h165v-594z" />
    <glyph glyph-name="periodcentered" unicode="&#xb7;" horiz-adv-x="286" 
d="M116 198q-17 0 -22.5 8.5t-5.5 26.5q0 20 5.5 28t22.5 8t22 -8t5 -28q0 -18 -5 -26.5t-22 -8.5z" />
    <glyph glyph-name="guillemotright" unicode="&#xbb;" horiz-adv-x="369" 
d="M155.005 204q0 -37 -4 -70q-3.99902 -33 -14.999 -65q-10.999 -32 -30.498 -65t-50.4971 -70l16.999 -17q34.998 39 56.4971 76.5q21.498 37.5 33.498 74q11.999 36.5 15.999 71.5q3.99902 35 3.99902 70t-3.99902 70q-4 35 -15.999 71.5q-12 36.5 -33.498 74
q-21.499 37.5 -56.4971 76.5l-16.999 -17q30.998 -37 50.4971 -70t30.498 -66q11 -33 14.999 -68q4 -35 4 -76zM287.005 204q0 -37 -4 -70q-3.99902 -33 -14.999 -65q-10.999 -32 -30.498 -65t-50.4971 -70l16.999 -17q34.998 39 56.4971 76.5q21.498 37.5 33.498 74
q11.999 36.5 15.999 71.5q3.99902 35 3.99902 70t-3.99902 70q-4 35 -15.999 71.5q-12 36.5 -33.498 74q-21.499 37.5 -56.4971 76.5l-16.999 -17q30.998 -37 50.4971 -70t30.498 -66q11 -33 14.999 -68q4 -35 4 -76z" />
    <glyph glyph-name="multiply" unicode="&#xd7;" horiz-adv-x="452" 
d="M55 352l19 20l152 -151l150 150l18 -19l-150 -150l153 -152l-20 -20l-153 153l-150 -151l-19 19l151 150z" />
    <glyph glyph-name="divide" unicode="&#xf7;" horiz-adv-x="512" 
d="M229 55h55v-55h-55v55zM229 446h55v-55h-55v55zM55 210v27h402v-27h-402z" />
    <glyph glyph-name="darhezar" unicode="&#x609;" horiz-adv-x="1052" 
d="M870 210q25 0 48 -11t40.5 -28.5t28 -39.5t10.5 -45t-10.5 -45.5t-28 -40t-40.5 -28.5t-48 -11t-47.5 11t-40 28.5t-28 40t-10.5 45.5t10.5 45t28 39.5t40 28.5t47.5 11zM870 -11q19 0 37 8t32 21.5t22.5 31t8.5 36.5q0 18 -8.5 35.5t-22.5 31t-32 22t-37 8.5
q-18 0 -36 -8.5t-32.5 -22t-23 -31t-8.5 -35.5q0 -19 8.5 -36.5t23 -31t32.5 -21.5t36 -8zM540 210q25 0 48 -11t40.5 -28.5t28 -39.5t10.5 -45t-10.5 -45.5t-28 -40t-40.5 -28.5t-48 -11t-47.5 11t-40 28.5t-28 40t-10.5 45.5t10.5 45t28 39.5t40 28.5t47.5 11zM540 -11
q19 0 37 8t32 21.5t22.5 31t8.5 36.5q0 18 -8.5 35.5t-22.5 31t-32 22t-37 8.5q-18 0 -36 -8.5t-32.5 -22t-23 -31t-8.5 -35.5q0 -19 8.5 -36.5t23 -31t32.5 -21.5t36 -8zM182 279q-25 0 -48 11t-40.5 28.5t-28 40t-10.5 45.5t10.5 45t28 39.5t40.5 28.5t48 11t47.5 -11
t40 -28.5t28 -39.5t10.5 -45t-10.5 -45.5t-28 -40t-40 -28.5t-47.5 -11zM182 501q-19 0 -37 -8.5t-32.5 -22t-23 -31t-8.5 -35.5q0 -19 8.5 -36.5t23 -31t32.5 -21.5t37 -8q18 0 36 8t32.5 21.5t23 31t8.5 36.5q0 18 -8.5 35.5t-23 31t-32.5 22t-36 8.5zM548 566l22 -14
l-396 -629l-22 14z" />
    <glyph glyph-name="darDahezar" unicode="&#x60a;" horiz-adv-x="1382" 
d="M1200 210q25 0 48 -11t40.5 -28.5t28 -39.5t10.5 -45t-10.5 -45.5t-28 -40t-40.5 -28.5t-48 -11t-47.5 11t-40 28.5t-28 40t-10.5 45.5t10.5 45t28 39.5t40 28.5t47.5 11zM1200 -11q19 0 37 8t32 21.5t22.5 31t8.5 36.5q0 18 -8.5 35.5t-22.5 31t-32 22t-37 8.5
q-18 0 -36 -8.5t-32.5 -22t-23 -31t-8.5 -35.5q0 -19 8.5 -36.5t23 -31t32.5 -21.5t36 -8zM870 210q25 0 48 -11t40.5 -28.5t28 -39.5t10.5 -45t-10.5 -45.5t-28 -40t-40.5 -28.5t-48 -11t-47.5 11t-40 28.5t-28 40t-10.5 45.5t10.5 45t28 39.5t40 28.5t47.5 11zM870 -11
q19 0 37 8t32 21.5t22.5 31t8.5 36.5q0 18 -8.5 35.5t-22.5 31t-32 22t-37 8.5q-18 0 -36 -8.5t-32.5 -22t-23 -31t-8.5 -35.5q0 -19 8.5 -36.5t23 -31t32.5 -21.5t36 -8zM540 210q25 0 48 -11t40.5 -28.5t28 -39.5t10.5 -45t-10.5 -45.5t-28 -40t-40.5 -28.5t-48 -11
t-47.5 11t-40 28.5t-28 40t-10.5 45.5t10.5 45t28 39.5t40 28.5t47.5 11zM540 -11q19 0 37 8t32 21.5t22.5 31t8.5 36.5q0 18 -8.5 35.5t-22.5 31t-32 22t-37 8.5q-18 0 -36 -8.5t-32.5 -22t-23 -31t-8.5 -35.5q0 -19 8.5 -36.5t23 -31t32.5 -21.5t36 -8zM182 279
q-25 0 -48 11t-40.5 28.5t-28 40t-10.5 45.5t10.5 45t28 39.5t40.5 28.5t48 11t47.5 -11t40 -28.5t28 -39.5t10.5 -45t-10.5 -45.5t-28 -40t-40 -28.5t-47.5 -11zM182 501q-19 0 -37 -8.5t-32.5 -22t-23 -31t-8.5 -35.5q0 -19 8.5 -36.5t23 -31t32.5 -21.5t37 -8q18 0 36 8
t32.5 21.5t23 31t8.5 36.5q0 18 -8.5 35.5t-23 31t-32.5 22t-36 8.5zM548 566l22 -14l-396 -629l-22 14z" />
    <glyph glyph-name="virgul" unicode="&#x60c;" horiz-adv-x="187" 
d="M94 0q-17 0 -22.5 8.5t-5.5 26.5q0 42 1 67t6 39.5t16 21.5t32 13v-28q-12 -4 -19 -8t-10 -11.5t-3.5 -21t-0.5 -36.5q21 0 27 -8t6 -28q0 -18 -5 -26.5t-22 -8.5z" />
    <glyph glyph-name="tarikh.sep" unicode="&#x60d;" horiz-adv-x="385" 
d="M297 275l22 -14l-231 -371l-22 14z" />
    <glyph glyph-name="noqte_virgul" unicode="&#x61b;" horiz-adv-x="187" 
d="M94 242q-17 0 -22.5 8.5t-5.5 26.5q0 42 1 67t6 39.5t16 21.5t32 13v-28q-12 -4 -19 -8t-10 -11.5t-3.5 -21t-0.5 -36.5q21 0 27 -8t6 -28q0 -18 -5 -26.5t-22 -8.5zM94 0q-17 0 -22.5 8.5t-5.5 26.5q0 20 5.5 28t22.5 8t22 -8t5 -28q0 -18 -5 -26.5t-22 -8.5z" />
    <glyph glyph-name="soal" unicode="&#x61f;" horiz-adv-x="413" 
d="M319 424q0 29 -5.5 55.5t-19 47t-35.5 33t-55 12.5q-23 0 -43 -9t-35 -24t-23.5 -35t-8.5 -42q0 -37 17.5 -63t42.5 -51q24 -24 38 -39.5t21.5 -33t10 -40t2.5 -59.5h-28q0 33 -2 52.5t-8.5 34t-18.5 27.5t-32 34q-12 13 -24.5 26.5t-23 29.5t-17 35t-6.5 42q0 33 12 59
t31.5 44.5t44.5 28.5t50 10q74 0 108 -48.5t34 -126.5h-27zM209 0q-17 0 -22 8.5t-5 26.5q0 20 5 28t22 8t22.5 -8t5.5 -28q0 -18 -5.5 -26.5t-22.5 -8.5z" />
    <glyph glyph-name="kashidas" unicode="&#x640;" horiz-adv-x="165" 
d="M165 28q13 0 17.5 -4t4.5 -10q0 -7 -4.5 -10.5t-17.5 -3.5h-165q-13 0 -17.5 3.5t-4.5 9.5q0 7 4.5 11t17.5 4h165z" />
    <glyph glyph-name=".an" unicode="&#x64b;" 
d="M107 116l9 -21l-223 -95l-9 21zM107 237l9 -21l-223 -95l-9 21z" />
    <glyph glyph-name=".on" unicode="&#x64c;" 
d="M2 74q-38 20 -52.5 46.5t-14.5 49.5q0 19 7 36.5t19.5 31.5t30.5 22.5t40 8.5q42 0 68.5 -27.5t26.5 -66.5q0 -32 -20 -60.5t-76 -51.5l-149 -63l-9 21v100q0 22 -19 22h-47v22h49q17 0 28 -9.5t11 -34.5v-91zM-43 172q0 -27 19.5 -50.5t49.5 -35.5q14 5 28 13t25.5 18.5
t18.5 23.5t7 29q0 29 -19 53.5t-54 24.5q-19 0 -33 -7t-23.5 -18t-14 -24.5t-4.5 -26.5z" />
    <glyph glyph-name=".en" unicode="&#x64d;" 
d="M107 -120l9 -21l-223 -95l-9 21zM107 1l9 -21l-223 -95l-9 21z" />
    <glyph glyph-name=".a" unicode="&#x64e;" 
d="M107 116l9 -21l-223 -95l-9 21z" />
    <glyph glyph-name=".o" unicode="&#x64f;" 
d="M-127 21l129 53q-38 20 -52.5 46.5t-14.5 49.5q0 19 7 36.5t19.5 31.5t30.5 22.5t40 8.5q42 0 68.5 -27.5t26.5 -66.5q0 -32 -20 -60.5t-76 -51.5l-149 -63zM-43 172q0 -27 19.5 -50.5t49.5 -35.5q14 5 28 13t25.5 18.5t18.5 23.5t7 29q0 29 -19 53.5t-54 24.5
q-19 0 -33 -7t-23.5 -18t-14 -24.5t-4.5 -26.5z" />
    <glyph glyph-name=".e" unicode="&#x650;" 
d="M107 1l9 -21l-223 -95l-9 21z" />
    <glyph glyph-name=".shdd" unicode="&#x651;" 
d="M0 11q-8 -7 -14 -9t-14 -2h-25q-13 0 -29.5 4t-31.5 16.5t-25 36t-10 62.5v63h22v-77q0 -47 21 -65t53 -18h42v160h22v-160h42q32 0 53 18t21 65v77h21v-63q0 -39 -10 -62.5t-24.5 -36t-31 -16.5t-29.5 -4h-25q-9 0 -14.5 2t-13.5 9z" />
    <glyph glyph-name=".skn" unicode="&#x652;" 
d="M-105 105q0 21 8.5 40t22.5 33.5t33.5 22.5t40.5 8t40.5 -8t33.5 -22.5t22.5 -33.5t8.5 -40q0 -22 -8.5 -41t-22.5 -33.5t-33.5 -22.5t-40.5 -8t-40.5 8t-33.5 22.5t-22.5 33.5t-8.5 41zM-83 105q0 -35 24.5 -59t58.5 -24t58 24t24 59q0 34 -24 58t-58 24t-58.5 -24
t-24.5 -58z" />
    <glyph glyph-name=".mad" unicode="&#x653;" 
d="M-14 82q-19 0 -31 -2t-23.5 -10.5t-23.5 -25t-31 -44.5l-15 10q20 32 34.5 51t27.5 28.5t27 12.5t35 3h151l-5 -23h-146z" />
    <glyph glyph-name=".thmz" unicode="&#x654;" 
d="M99 88l-185 -94l-11 21l78 39q-20 2 -34 10.5t-23 21.5t-13.5 28t-4.5 29q0 42 25.5 68t67.5 26h47l-5 -22h-37q-36 0 -56 -21.5t-20 -50.5q0 -33 22.5 -52.5t49.5 -19.5q17 0 39 11.5t51 25.5z" />
    <glyph glyph-name=".bhmz" unicode="&#x655;" 
d="M99 -148l-185 -94l-11 21l78 39q-20 2 -34 10.5t-23 21.5t-13.5 28t-4.5 29q0 42 25.5 68t67.5 26h47l-5 -22h-37q-36 0 -56 -21.5t-20 -50.5q0 -33 22.5 -52.5t49.5 -19.5q17 0 39 11.5t51 25.5z" />
    <glyph glyph-name=".i" unicode="&#x656;" 
d="M-11 0h22v-170h-22v170z" />
    <glyph glyph-name="sefr.arab" unicode="&#x660;" horiz-adv-x="462" 
d="M231 391q33 0 64.5 -14.5t56.5 -38t40 -54.5t15 -64t-15 -63.5t-40 -54.5t-56.5 -38t-64.5 -14t-64.5 14t-56.5 38t-40 54.5t-15 63.5t15 64t40 54.5t56.5 38t64.5 14.5zM231 77q27 0 53.5 11.5t47.5 31t34.5 45.5t13.5 55q0 27 -13.5 52.5t-34.5 45.5t-47.5 32.5
t-53.5 12.5t-53.5 -12.5t-48 -32.5t-34.5 -45.5t-13 -52.5q0 -29 13 -55t34.5 -45.5t48 -31t53.5 -11.5z" />
    <glyph glyph-name="yek.arab" unicode="&#x661;" horiz-adv-x="187" 
d="M94 -61v243q0 60 -4 106.5t-11 86.5t-16 75t-19 72l27 11q13 -41 22.5 -78.5t15.5 -77.5t9 -86t3 -104v-248h-27z" />
    <glyph glyph-name="do.arab" unicode="&#x662;" horiz-adv-x="402" 
d="M215 253q-29 0 -56 13t-43 42q3 -26 4 -59t1 -62v-248h-27v243q0 60 -4 106.5t-11 86.5t-16 75t-19 72l27 11q9 -31 14.5 -53.5t10 -41.5t9.5 -36.5l11 -38.5q25 -83 99 -83q18 0 36.5 6t33.5 18t24.5 29.5t9.5 40.5q0 29 -4.5 70.5t-12.5 83.5l28 5q8 -37 12 -76.5
t4 -76.5q0 -29 -10.5 -52.5t-28.5 -40t-41.5 -25.5t-50.5 -9z" />
    <glyph glyph-name="se.arab" unicode="&#x663;" horiz-adv-x="610" 
d="M330 533q8 -37 12 -76.5t4 -76.5q0 -8 -1 -20.5t-6 -27.5q14 -23 39.5 -37.5t50.5 -14.5q19 0 36.5 7.5t31.5 20t22.5 28.5t8.5 33q0 33 -4 75t-12 84l27 5q8 -37 12 -77t4 -82q0 -25 -10.5 -47t-28 -38.5t-40 -26t-47.5 -9.5q-29 0 -54 13t-51 42q-17 -25 -44.5 -40
t-64.5 -15q-29 0 -56 13t-43 42q3 -26 4 -59t1 -62v-248h-27v243q0 60 -4 106.5t-11 86.5t-16 75t-19 72l27 11q9 -31 14.5 -53.5t10 -41.5t9.5 -36.5l11 -38.5q25 -83 99 -83q18 0 36.5 6t33.5 18t24.5 29.5t9.5 40.5q0 29 -4.5 70.5t-12.5 83.5l28 5v0z" />
    <glyph glyph-name="char.arab" unicode="&#x664;" horiz-adv-x="522" 
d="M286 215q-49 0 -95.5 17.5t-72.5 44.5q2 -20 2.5 -42t0.5 -48v-248h-27v243q0 60 -4 106.5t-11 86.5t-16 75t-19 72l27 11q13 -44 23 -85.5t19 -95.5q2 -12 6.5 -25.5t15.5 -26.5t30 -25t50 -22q-17 14 -27 31t-15 34t-6.5 33t-1.5 29q0 33 12.5 62t35 50.5t52.5 34
t65 12.5q25 0 51 -5.5t59 -21.5l-11 -25q-33 14 -55.5 19.5t-43.5 5.5q-31 0 -56 -10.5t-43 -29.5t-28 -44t-10 -54q0 -27 9.5 -51t24.5 -42t33.5 -28.5t36.5 -10.5q46 0 87.5 12.5t72.5 28.5l11 -25q-54 -24 -97 -33.5t-85 -9.5z" />
    <glyph glyph-name="panj.arab" unicode="&#x665;" horiz-adv-x="610" 
d="M55 82q0 34 9 71.5t34.5 84.5t70.5 105.5t117 135.5l-51 45l18 20q95 -80 154 -144.5t92 -118t44.5 -98t11.5 -84.5q0 -44 -13 -75t-33.5 -51t-45.5 -29.5t-50 -9.5q-38 0 -66 14.5t-45 34.5q-20 -25 -50 -37t-59 -12q-63 0 -100.5 39t-37.5 109zM528 94q0 35 -9.5 74
t-34.5 84t-68.5 96.5t-110.5 110.5q-114 -110 -168.5 -203t-54.5 -168q0 -66 32.5 -96.5t78.5 -30.5q18 0 37.5 6.5t35.5 19t26 32.5t10 47v77h28v-77q0 -21 -4 -36t-9 -25q18 -20 42.5 -32t53.5 -12q22 0 43 8.5t37 25t25.5 41.5t9.5 58z" />
    <glyph glyph-name="shish.arab" unicode="&#x666;" horiz-adv-x="435" 
d="M308 490q-25 12 -49 17t-44 5q-29 0 -53.5 -11.5t-42 -30.5t-27.5 -44t-10 -52q0 -63 37 -94.5t96 -31.5q41 0 81.5 11.5t79.5 33.5l15 -18q-35 -31 -70.5 -72t-69.5 -86.5t-64 -94t-55 -94.5l-24 15q17 32 41.5 70t52 77.5t56 77.5t55.5 69q-29 -10 -54 -13.5t-50 -3.5
q-38 0 -67 12t-48.5 32t-29 47.5t-9.5 57.5q0 31 11.5 61.5t32.5 54.5t50.5 39t65.5 15q27 0 49.5 -5.5t54.5 -21.5z" />
    <glyph glyph-name="haft.arab" unicode="&#x667;" horiz-adv-x="550" 
d="M275 22q27 133 84.5 267.5t135.5 254.5l22 -18q-35 -53 -69 -115.5t-64.5 -135.5t-56 -157t-41.5 -179h-22q-17 95 -41.5 179t-55 157t-65 135.5t-69.5 115.5l22 18q78 -120 135.5 -254.5t84.5 -267.5z" />
    <glyph glyph-name="hasht.arab" unicode="&#x668;" horiz-adv-x="550" 
d="M275 451q-27 -133 -84.5 -267.5t-135.5 -255.5l-22 19q35 53 69.5 115.5t65 135.5t55 156.5t41.5 178.5h22q16 -95 41.5 -178.5t56 -156.5t64.5 -135.5t69 -115.5l-22 -19q-78 121 -135.5 255.5t-84.5 267.5z" />
    <glyph glyph-name="noh.arab" unicode="&#x669;" horiz-adv-x="446" 
d="M352 -61v306q-42 -23 -81.5 -29.5t-71.5 -6.5q-39 0 -67.5 10.5t-46.5 29t-26.5 43.5t-8.5 54q0 35 11 69.5t32 62t52 44.5t71 17q45 0 76 -19.5t50.5 -53t28.5 -78.5t9 -97v-352h-28zM352 275q0 54 -7.5 97.5t-24.5 74.5t-44 48t-66 17q-31 0 -55.5 -15t-42 -39
t-26.5 -53.5t-9 -58.5q0 -50 32.5 -79.5t95.5 -29.5q40 0 77 9t70 29z" />
    <glyph glyph-name="darsad" unicode="&#x66a;" horiz-adv-x="722" 
d="M540 210q25 0 48 -11t40.5 -28.5t28 -39.5t10.5 -45t-10.5 -45.5t-28 -40t-40.5 -28.5t-48 -11t-47.5 11t-40 28.5t-28 40t-10.5 45.5t10.5 45t28 39.5t40 28.5t47.5 11zM540 -11q19 0 37 8t32 21.5t22.5 31t8.5 36.5q0 18 -8.5 35.5t-22.5 31t-32 22t-37 8.5
q-18 0 -36 -8.5t-32.5 -22t-23 -31t-8.5 -35.5q0 -19 8.5 -36.5t23 -31t32.5 -21.5t36 -8zM182 279q-25 0 -48 11t-40.5 28.5t-28 40t-10.5 45.5t10.5 45t28 39.5t40.5 28.5t48 11t47.5 -11t40 -28.5t28 -39.5t10.5 -45t-10.5 -45.5t-28 -40t-40 -28.5t-47.5 -11zM182 501
q-19 0 -37 -8.5t-32.5 -22t-23 -31t-8.5 -35.5q0 -19 8.5 -36.5t23 -31t32.5 -21.5t37 -8q18 0 36 8t32.5 21.5t23 31t8.5 36.5q0 18 -8.5 35.5t-23 31t-32.5 22t-36 8.5zM548 566l22 -14l-396 -629l-22 14z" />
    <glyph glyph-name="sad.sep" unicode="&#x66b;" horiz-adv-x="385" 
d="M297 275l22 -14l-231 -371l-22 14z" />
    <glyph glyph-name="hezar.sep" unicode="&#x66c;" horiz-adv-x="187" 
d="M93.0059 121q16.999 0 22.498 -8.49902q5.5 -8.5 5.5 -26.499q0 -41.9971 -1 -66.9961q-1 -24.998 -5.99902 -39.4971q-5 -14.499 -15.999 -21.499q-11 -6.99902 -31.998 -12.999v27.998q11.999 4 18.998 8q7 3.99902 10 11.499t3.5 20.999t0.5 36.4971
q-20.999 0 -26.999 8q-5.99902 7.99902 -5.99902 27.998q0 17.999 4.99902 26.499q5 8.49902 21.999 8.49902z" />
    <glyph glyph-name="setare" unicode="&#x66d;" horiz-adv-x="507" 
d="M144 0l-23 19l111 151l-177 61l9 27l176 -62v189h27v-189l176 62l9 -27l-177 -61l111 -151l-23 -19l-109 155z" />
    <glyph glyph-name=".aa" unicode="&#x670;" 
d="M-11 170h22v-170h-22v170z" />
    <glyph glyph-name="re.bv" unicode="&#x695;" horiz-adv-x="207" 
d="M147 16q0 -62 -18.5 -110t-50.5 -81t-75 -50t-93 -17h-55l-5 27h55q55 0 96 19t67 51t39 74t13 87v264h27v-264v0zM123 -285l19 -11l-96 -187h-18l-96 187l19 11l86 -170z" />
    <glyph glyph-name="lam.tv" unicode="&#x6b5;" horiz-adv-x="663" 
d="M588 16q0 -51 -17 -98t-48.5 -82.5t-76 -56.5t-100.5 -21h-55q-112 0 -174 69t-62 189v171h27v-171q0 -51 13.5 -93.5t40.5 -73t67 -47.5t94 -17h44q52 0 92.5 18.5t69 49.5t43.5 72t15 86v609h27v-604zM438 616l19 -11l-96 -187h-18l-96 187l19 11l86 -170z" />
    <glyph glyph-name="he.dochashmi" unicode="&#x6be;" horiz-adv-x="682" 
d="M55 198q0 33 12 64t34.5 54.5t55.5 38t74 14.5t72 -14.5t51.5 -37.5t31 -52.5t10.5 -60.5q0 -54 -28 -96.5t-82 -79.5h198q54 0 84.5 25.5t30.5 67.5q0 20 -9 42.5t-29 45.5l-197 217l21 20l198 -220q25 -28 34.5 -54t9.5 -51q0 -54 -38 -87.5t-105 -33.5h-110
q-38 0 -69.5 0.5t-51.5 4.5q-33 -29 -71.5 -59t-87.5 -62l-17 25q38 23 76 50t67 52q-39 10 -69.5 29t-52 44t-32.5 54t-11 60zM226 341q-33 0 -60 -11.5t-45.5 -31t-28.5 -45.5t-10 -55q0 -35 15 -63.5t39.5 -49.5t55 -34.5t61.5 -17.5q14 10 34 25.5t38 36t31 45t13 53.5
q0 66 -38.5 107t-104.5 41z" />
    <glyph glyph-name="he.thmz.goal" unicode="&#x6c2;" horiz-adv-x="462" 
d="M55 154q0 31 8.5 59t27.5 58t49 63.5t73 76.5l-46 47l20 21q62 -62 104 -106.5t68 -79.5t37 -65t11 -63q0 -35 -13.5 -65.5t-38 -52.5t-57.5 -34.5t-72 -12.5t-71 11.5t-54 32.5t-34 49t-12 61zM380 159q0 27 -8 52t-25.5 52t-46 58t-69.5 70q-47 -46 -76.5 -80
t-45.5 -61.5t-21.5 -50t-5.5 -45.5q0 -54 38.5 -90t105.5 -36q33 0 61 10.5t48.5 28.5t32.5 41.5t12 50.5zM314 660l-185 -94l-11 21l78 39q-20 2 -34 10.5t-23 21.5t-13.5 28t-4.5 29q0 42 25.5 68t67.5 26h47l-5 -22h-37q-36 0 -56 -21.5t-20 -50.5q0 -33 22.5 -52.5
t49.5 -19.5q17 0 39 11.5t51 25.5z" />
    <glyph glyph-name="vav.t2p" unicode="&#x6ca;" horiz-adv-x="451" 
d="M148 -215q50 0 89.5 17.5t67 46.5t42 68t16.5 83h-132q-51 0 -84 11t-52 31t-26.5 48.5t-7.5 63.5q0 37 10.5 71t31.5 59.5t52 41t71 15.5q33 0 62.5 -11t52.5 -34t36.5 -59.5t13.5 -88.5v-132q0 -51 -16 -98t-47 -82.5t-75 -56.5t-99 -21h-110l-6 27h110zM88 154
q0 -33 7 -57t25 -39t49 -22.5t79 -7.5h115v104q0 95 -38.5 138t-104.5 43q-63 0 -97.5 -44t-34.5 -115zM313 468h-54v44h54v-44zM203 468h-55v44h55v-44z" />
    <glyph glyph-name="ye.tv" unicode="&#x6ce;" horiz-adv-x="676" 
d="M369 -215q43 0 83.5 14.5t72 40t50.5 59.5t19 73q0 16 -4 31.5t-15 26.5t-30 18t-50 7h-176v154q0 75 42.5 120t117.5 45h115l5 -28h-126q-23 0 -45.5 -8t-40.5 -24.5t-29.5 -41t-11.5 -56.5v-134h155q37 0 60 -9t36.5 -24t18.5 -33.5t5 -37.5q0 -45 -20 -85t-54 -70
t-79 -47.5t-94 -17.5h-83q-112 0 -174 69t-62 189v171h27v-171q0 -51 13.5 -93.5t40.5 -73t67 -47.5t94 -17h72zM251 517l19 -11l-96 -187h-18l-96 187l19 11l86 -170z" />
    <glyph glyph-name="ae" unicode="&#x6d5;" horiz-adv-x="462" 
d="M55 154q0 31 8.5 59t27.5 58t49 63.5t73 76.5l-46 47l20 21q62 -62 104 -106.5t68 -79.5t37 -65t11 -63q0 -35 -13.5 -65.5t-38 -52.5t-57.5 -34.5t-72 -12.5t-71 11.5t-54 32.5t-34 49t-12 61zM380 159q0 27 -8 52t-25.5 52t-46 58t-69.5 70q-47 -46 -76.5 -80
t-45.5 -61.5t-21.5 -50t-5.5 -45.5q0 -54 38.5 -90t105.5 -36q33 0 61 10.5t48.5 28.5t32.5 41.5t12 50.5z" />
    <glyph glyph-name="sefr" unicode="&#x6f0;" horiz-adv-x="462" 
d="M231 391q33 0 64.5 -14.5t56.5 -38t40 -54.5t15 -64t-15 -63.5t-40 -54.5t-56.5 -38t-64.5 -14t-64.5 14t-56.5 38t-40 54.5t-15 63.5t15 64t40 54.5t56.5 38t64.5 14.5zM231 77q27 0 53.5 11.5t47.5 31t34.5 45.5t13.5 55q0 27 -13.5 52.5t-34.5 45.5t-47.5 32.5
t-53.5 12.5t-53.5 -12.5t-48 -32.5t-34.5 -45.5t-13 -52.5q0 -29 13 -55t34.5 -45.5t48 -31t53.5 -11.5z" />
    <glyph glyph-name="yek" unicode="&#x6f1;" horiz-adv-x="187" 
d="M94 -61v243q0 60 -4 106.5t-11 86.5t-16 75t-19 72l27 11q13 -41 22.5 -78.5t15.5 -77.5t9 -86t3 -104v-248h-27z" />
    <glyph glyph-name="do" unicode="&#x6f2;" horiz-adv-x="402" 
d="M215 253q-29 0 -56 13t-43 42q3 -26 4 -59t1 -62v-248h-27v243q0 60 -4 106.5t-11 86.5t-16 75t-19 72l27 11q9 -31 14.5 -53.5t10 -41.5t9.5 -36.5l11 -38.5q25 -83 99 -83q18 0 36.5 6t33.5 18t24.5 29.5t9.5 40.5q0 29 -4.5 70.5t-12.5 83.5l28 5q8 -37 12 -76.5
t4 -76.5q0 -29 -10.5 -52.5t-28.5 -40t-41.5 -25.5t-50.5 -9z" />
    <glyph glyph-name="se" unicode="&#x6f3;" horiz-adv-x="610" 
d="M330 533q8 -37 12 -76.5t4 -76.5q0 -8 -1 -20.5t-6 -27.5q14 -23 39.5 -37.5t50.5 -14.5q19 0 36.5 7.5t31.5 20t22.5 28.5t8.5 33q0 33 -4 75t-12 84l27 5q8 -37 12 -77t4 -82q0 -25 -10.5 -47t-28 -38.5t-40 -26t-47.5 -9.5q-29 0 -54 13t-51 42q-17 -25 -44.5 -40
t-64.5 -15q-29 0 -56 13t-43 42q3 -26 4 -59t1 -62v-248h-27v243q0 60 -4 106.5t-11 86.5t-16 75t-19 72l27 11q9 -31 14.5 -53.5t10 -41.5t9.5 -36.5l11 -38.5q25 -83 99 -83q18 0 36.5 6t33.5 18t24.5 29.5t9.5 40.5q0 29 -4.5 70.5t-12.5 83.5l28 5v0z" />
    <glyph glyph-name="char" unicode="&#x6f4;" horiz-adv-x="522" 
d="M286 215q-49 0 -95.5 17.5t-72.5 44.5q2 -20 2.5 -42t0.5 -48v-248h-27v243q0 60 -4 106.5t-11 86.5t-16 75t-19 72l27 11q13 -44 23 -85.5t19 -95.5q2 -12 6.5 -25.5t15.5 -26.5t30 -25t50 -22q-17 14 -27 31t-15 34t-6.5 33t-1.5 29q0 33 12.5 62t35 50.5t52.5 34
t65 12.5q25 0 51 -5.5t59 -21.5l-11 -25q-33 14 -55.5 19.5t-43.5 5.5q-31 0 -56 -10.5t-43 -29.5t-28 -44t-10 -54q0 -27 9.5 -51t24.5 -42t33.5 -28.5t36.5 -10.5q46 0 87.5 12.5t72.5 28.5l11 -25q-54 -24 -97 -33.5t-85 -9.5z" />
    <glyph glyph-name="panj" unicode="&#x6f5;" horiz-adv-x="610" 
d="M55 82q0 34 9 71.5t34.5 84.5t70.5 105.5t117 135.5l-51 45l18 20q95 -80 154 -144.5t92 -118t44.5 -98t11.5 -84.5q0 -44 -13 -75t-33.5 -51t-45.5 -29.5t-50 -9.5q-38 0 -66 14.5t-45 34.5q-20 -25 -50 -37t-59 -12q-63 0 -100.5 39t-37.5 109zM528 94q0 35 -9.5 74
t-34.5 84t-68.5 96.5t-110.5 110.5q-114 -110 -168.5 -203t-54.5 -168q0 -66 32.5 -96.5t78.5 -30.5q18 0 37.5 6.5t35.5 19t26 32.5t10 47v77h28v-77q0 -21 -4 -36t-9 -25q18 -20 42.5 -32t53.5 -12q22 0 43 8.5t37 25t25.5 41.5t9.5 58z" />
    <glyph glyph-name="shish" unicode="&#x6f6;" horiz-adv-x="435" 
d="M308 490q-25 12 -49 17t-44 5q-29 0 -53.5 -11.5t-42 -30.5t-27.5 -44t-10 -52q0 -63 37 -94.5t96 -31.5q41 0 81.5 11.5t79.5 33.5l15 -18q-35 -31 -70.5 -72t-69.5 -86.5t-64 -94t-55 -94.5l-24 15q17 32 41.5 70t52 77.5t56 77.5t55.5 69q-29 -10 -54 -13.5t-50 -3.5
q-38 0 -67 12t-48.5 32t-29 47.5t-9.5 57.5q0 31 11.5 61.5t32.5 54.5t50.5 39t65.5 15q27 0 49.5 -5.5t54.5 -21.5z" />
    <glyph glyph-name="haft" unicode="&#x6f7;" horiz-adv-x="550" 
d="M275 22q27 133 84.5 267.5t135.5 254.5l22 -18q-35 -53 -69 -115.5t-64.5 -135.5t-56 -157t-41.5 -179h-22q-17 95 -41.5 179t-55 157t-65 135.5t-69.5 115.5l22 18q78 -120 135.5 -254.5t84.5 -267.5z" />
    <glyph glyph-name="hasht" unicode="&#x6f8;" horiz-adv-x="550" 
d="M275 451q-27 -133 -84.5 -267.5t-135.5 -255.5l-22 19q35 53 69.5 115.5t65 135.5t55 156.5t41.5 178.5h22q16 -95 41.5 -178.5t56 -156.5t64.5 -135.5t69 -115.5l-22 -19q-78 121 -135.5 255.5t-84.5 267.5z" />
    <glyph glyph-name="noh" unicode="&#x6f9;" horiz-adv-x="446" 
d="M352 -61v306q-42 -23 -81.5 -29.5t-71.5 -6.5q-39 0 -67.5 10.5t-46.5 29t-26.5 43.5t-8.5 54q0 35 11 69.5t32 62t52 44.5t71 17q45 0 76 -19.5t50.5 -53t28.5 -78.5t9 -97v-352h-28zM352 275q0 54 -7.5 97.5t-24.5 74.5t-44 48t-66 17q-31 0 -55.5 -15t-42 -39
t-26.5 -53.5t-9 -58.5q0 -50 32.5 -79.5t95.5 -29.5q40 0 77 9t70 29z" />
    <glyph glyph-name="enQuad_Space" unicode="&#x2000;" horiz-adv-x="550" 
 />
    <glyph glyph-name="enQuad_Space" unicode="&#x2002;" horiz-adv-x="550" 
 />
    <glyph glyph-name="emQuad_Space" unicode="&#x2001;" horiz-adv-x="1100" 
 />
    <glyph glyph-name="emQuad_Space" unicode="&#x2003;" horiz-adv-x="1100" 
 />
    <glyph glyph-name="3_Mspace" unicode="&#x2004;" horiz-adv-x="330" 
 />
    <glyph glyph-name="4_Mspace" unicode="&#x2005;" horiz-adv-x="275" 
 />
    <glyph glyph-name="6_Mspace" unicode="&#x2006;" horiz-adv-x="165" 
 />
    <glyph glyph-name="figureSpace" unicode="&#x2007;" horiz-adv-x="605" 
 />
    <glyph glyph-name="punctuationSpace" unicode="&#x2008;" horiz-adv-x="165" 
 />
    <glyph glyph-name="thin_hairSpace" unicode="&#x2009;" horiz-adv-x="165" 
 />
    <glyph glyph-name="thin_hairSpace" unicode="&#x200a;" horiz-adv-x="165" 
 />
    <glyph glyph-name="zwspace" unicode="&#x200b;" 
 />
    <glyph glyph-name="zwNONjoiner" unicode="&#x200c;" 
d="M22 490v-600h-44v600h44z" />
    <glyph glyph-name="zwjoiner" unicode="&#x200d;" 
d="M22 -109h-44v448l-59 -60l-29 29l79 79l-79 77l31 31l79 -80l79 80l31 -31l-79 -77l79 -79l-29 -29l-59 60v-448z" />
    <glyph glyph-name="LTR_mark" unicode="&#x200e;" horiz-adv-x="385" 
d="M199.012 599l-26.999 -28l58.9971 -57h-153.991v-624h39.998v580h113.993l-58.9971 -59l26.999 -28l108.993 109z" />
    <glyph glyph-name="RTL_mark" unicode="&#x200f;" horiz-adv-x="385" 
d="M186 599l27 -28l-59 -57h154v-624h-40v580h-114l59 -59l-27 -28l-109 109z" />
    <glyph glyph-name="hyphen" unicode="&#x2010;" horiz-adv-x="451" 
d="M55 159v28h341v-28h-341z" />
    <glyph glyph-name="nb_hyphen" unicode="&#x2011;" horiz-adv-x="451" 
d="M55 159v28h341v-28h-341z" />
    <glyph glyph-name="figuredash" unicode="&#x2012;" horiz-adv-x="451" 
d="M0 159v28h451v-28h-451z" />
    <glyph glyph-name="endash" unicode="&#x2013;" horiz-adv-x="451" 
d="M0 159v28h451v-28h-451z" />
    <glyph glyph-name="emdash" unicode="&#x2014;" horiz-adv-x="913" 
d="M0 159v28h913v-28h-913z" />
    <glyph glyph-name="horizontal_bar" unicode="&#x2015;" horiz-adv-x="1023" 
d="M55 159v28h913v-28h-913z" />
    <glyph glyph-name="quoteleft" unicode="&#x2018;" horiz-adv-x="187" 
d="M94 440q-17 0 -22.5 8.5t-5.5 26.5q0 42 1 67t6 39.5t16 21.5t32 13v-28q-12 -4 -19 -8t-10 -11.5t-3.5 -21t-0.5 -36.5q21 0 27 -8t6 -28q0 -18 -5 -26.5t-22 -8.5z" />
    <glyph glyph-name="quoteright" unicode="&#x2019;" horiz-adv-x="187" 
d="M93.0059 610q16.999 0 22.498 -8.49902q5.5 -8.5 5.5 -26.499q0 -41.9971 -1 -66.9961q-1 -24.998 -5.99902 -39.4971q-5 -14.499 -15.999 -21.499q-11 -6.99902 -31.998 -12.999v27.998q11.999 4 18.998 8q7 3.99902 10 11.499t3.5 20.999t0.5 36.4971
q-20.999 0 -26.999 8q-5.99902 7.99902 -5.99902 27.998q0 17.999 4.99902 26.499q5 8.49902 21.999 8.49902z" />
    <glyph glyph-name="quotedblleft" unicode="&#x201c;" horiz-adv-x="297" 
d="M94 440q-17 0 -22.5 8.5t-5.5 26.5q0 42 1 67t6 39.5t16 21.5t32 13v-28q-12 -4 -19 -8t-10 -11.5t-3.5 -21t-0.5 -36.5q21 0 27 -8t6 -28q0 -18 -5 -26.5t-22 -8.5zM204 440q-17 0 -22.5 8.5t-5.5 26.5q0 42 1 67t6 39.5t16 21.5t32 13v-28q-12 -4 -19 -8t-10 -11.5
t-3.5 -21t-0.5 -36.5q21 0 27 -8t6 -28q0 -18 -5 -26.5t-22 -8.5z" />
    <glyph glyph-name="quotedblright" unicode="&#x201d;" horiz-adv-x="297" 
d="M93.0059 610q16.999 0 22.498 -8.49902q5.5 -8.5 5.5 -26.499q0 -41.9971 -1 -66.9961q-1 -24.998 -5.99902 -39.4971q-5 -14.499 -15.999 -21.499q-11 -6.99902 -31.998 -12.999v27.998q11.999 4 18.998 8q7 3.99902 10 11.499t3.5 20.999t0.5 36.4971
q-20.999 0 -26.999 8q-5.99902 7.99902 -5.99902 27.998q0 17.999 4.99902 26.499q5 8.49902 21.999 8.49902zM203.006 610q16.999 0 22.498 -8.49902q5.5 -8.5 5.5 -26.499q0 -41.9971 -1 -66.9961q-1 -24.998 -5.99902 -39.4971q-5 -14.499 -15.999 -21.499
q-11 -6.99902 -31.998 -12.999v27.998q11.999 4 18.998 8q7 3.99902 10 11.499t3.5 20.999t0.5 36.4971q-20.999 0 -26.999 8q-5.99902 7.99902 -5.99902 27.998q0 17.999 4.99902 26.499q5 8.49902 21.999 8.49902z" />
    <glyph glyph-name="bullet" unicode="&#x2022;" horiz-adv-x="404" 
d="M201 0q-30 0 -57 11.5t-46.5 31t-31 46.5t-11.5 57t11.5 57t31 47t46.5 31.5t57 11.5t57 -11.5t47.5 -31.5t32 -47t11.5 -57t-11.5 -57t-32 -46.5t-47.5 -31t-57 -11.5z" />
    <glyph glyph-name="ellipsis" unicode="&#x2026;" horiz-adv-x="627" 
d="M314 0q-17 0 -22.5 8.5t-5.5 26.5q0 20 5.5 28t22.5 8t22 -8t5 -28q0 -18 -5 -26.5t-22 -8.5zM534 0q-17 0 -22.5 8.5t-5.5 26.5q0 20 5.5 28t22.5 8t22 -8t5 -28q0 -18 -5 -26.5t-22 -8.5zM94 0q-17 0 -22.5 8.5t-5.5 26.5q0 20 5.5 28t22.5 8t22 -8t5 -28
q0 -18 -5 -26.5t-22 -8.5z" />
    <glyph glyph-name="line_seperator" unicode="&#x2028;" 
 />
    <glyph glyph-name="paragraph_seperator" unicode="&#x2029;" 
 />
    <glyph glyph-name="LTRembedding" unicode="&#x202a;" 
d="M-32 516h-62v27h62v-27zM-6 543h46l-37 37l19 19l72 -71l-72 -70l-19 21l37 37h-46v27z" />
    <glyph glyph-name="RTLembedding" unicode="&#x202b;" 
d="M31.998 516h61.9961v27h-61.9961v-27zM6 543h-45.998l36.998 37l-18.999 19l-71.9951 -71l71.9951 -70l18.999 21l-36.998 37h45.998v27z" />
    <glyph glyph-name="pop.directional.formatting_PDF" unicode="&#x202c;" 
d="M-51 509l-21 19l72 71l71 -71l-20 -19l-37 37v-95h-28v93z" />
    <glyph glyph-name="LTRoverride" unicode="&#x202d;" 
d="M-52 580l20 19l70 -71l-70 -70l-20 21l38 37h-102v27h102zM25 580l19 19l72 -71l-72 -70l-19 21l51 49z" />
    <glyph glyph-name="RTLoverride" unicode="&#x202e;" 
d="M51.9971 580l-19.999 19l-69.9961 -71l69.9961 -70l19.999 21l-37.998 37h101.994v27h-101.994zM-24.998 580l-18.999 19l-71.9961 -71l71.9961 -70l18.999 21l-50.9971 49z" />
    <glyph glyph-name="narrow_nbspace" unicode="&#x202f;" horiz-adv-x="55" 
 />
    <glyph glyph-name="guilsinglleft" unicode="&#x2039;" horiz-adv-x="237" 
d="M82 204q0 -37 4 -70t15 -65t30.5 -65t50.5 -70l-17 -17q-35 39 -56.5 76.5t-33.5 74t-16 71.5t-4 70t4 70t16 71.5t33.5 74t56.5 76.5l17 -17q-31 -37 -50.5 -70t-30.5 -66t-15 -68t-4 -76z" />
    <glyph glyph-name="guilsinglright" unicode="&#x203a;" horiz-adv-x="237" 
d="M155.005 204q0 -37 -4 -70q-3.99902 -33 -14.999 -65q-10.999 -32 -30.498 -65t-50.4971 -70l16.999 -17q34.998 39 56.4971 76.5q21.498 37.5 33.498 74q11.999 36.5 15.999 71.5q3.99902 35 3.99902 70t-3.99902 70q-4 35 -15.999 71.5q-12 36.5 -33.498 74
q-21.499 37.5 -56.4971 76.5l-16.999 -17q30.998 -37 50.4971 -70t30.498 -66q11 -33 14.999 -68q4 -35 4 -76z" />
    <glyph glyph-name="fraction" unicode="&#x2044;" horiz-adv-x="528" 
d="M451 566l22 -14l-396 -629l-22 14z" />
    <glyph glyph-name="reversed_pilcrow_paragraph" unicode="&#x204b;" horiz-adv-x="396" 
d="M66.0205 0h27.998v566h108.993v-566h27.998v358q32.998 0 53.9971 3.5t33.498 15.5t17.499 34.5q4.99902 22.5 4.99902 61.5t-4.99902 63q-5 24 -16.999 36.5t-33.498 17t-54.4971 4.5h-164.989v-594z" />
    <glyph glyph-name="word_joiner" unicode="&#x2060;" horiz-adv-x="880" 
 />
    <glyph glyph-name="Euro" unicode="&#x20ac;" horiz-adv-x="535" 
d="M7 381h81q14 125 77.5 195.5t167.5 70.5q59 0 99 -19t75 -59l-6 -7q-3 -6 -6 -6q-5 0 -14.5 11t-28 24t-47.5 24t-71 11q-93 0 -151 -62.5t-70 -182.5h291v-8q0 -10 -10 -10h-283q-1 -11 -2 -23t-1 -25v-20.5t2 -20.5h251v-8q0 -9 -9 -9h-240q11 -125 69.5 -184.5
t149.5 -59.5q46 0 76.5 12.5t50 28t30 28t16.5 12.5q1 0 6 -3l8 -7q-33 -41 -77.5 -66t-109.5 -25q-105 0 -168 65.5t-77 198.5h-79v17h78v41v25t1 23h-79v18z" />
    <glyph glyph-name="trademark" unicode="&#x2122;" horiz-adv-x="682" 
d="M46 640h214v-15h-96v-246h-21v246h-97v15zM596 640v-261h-16v224v12l-109 -186l-3 -3t-4 -1h-3q-4 0 -8 4l-113 186l3 -12v-224h-19v261h15q3 0 4.5 -0.5t4.5 -3.5l112 -181q0 -4 2 -8q2 2 2 3.5t1 4.5l110 181q0 4 7 4h14z" />
    <glyph glyph-name="estimated" unicode="&#x212e;" horiz-adv-x="774" 
d="M693 352q0 58 -21.5 108.5t-60.5 88t-94 59t-122 21.5q-65 0 -119.5 -21.5t-94.5 -58.5t-63 -88t-26 -109h601zM92 302q0 -52 21.5 -103.5t62.5 -93t100.5 -67.5t134.5 -26q85 0 149 32.5t110 89.5l14 -10q-46 -60 -115.5 -95t-163.5 -35q-80 0 -143.5 26.5t-108.5 71.5
t-69 104t-24 124q0 70 24.5 130t68.5 104t106 68.5t136 24.5q73 0 133 -23t103 -64.5t67 -98.5t25 -125h-631v-34z" />
    <glyph glyph-name="infinity" unicode="&#x221e;" horiz-adv-x="884" 
d="M442 173q-30 -44 -56.5 -75t-52 -50.5t-52.5 -28t-57 -8.5q-35 0 -65.5 11.5t-53.5 34.5t-36.5 57t-13.5 79t13.5 78.5t36.5 56.5t53.5 34.5t65.5 11.5q30 0 57 -8.5t52.5 -28t52 -50.5t56.5 -75q30 44 56.5 75t52.5 50.5t52.5 28t56.5 8.5q34 0 65 -11.5t54 -34.5
t36.5 -56.5t13.5 -78.5t-13.5 -79t-36.5 -57t-54 -34.5t-65 -11.5q-30 0 -56.5 8.5t-52.5 28t-52.5 50.5t-56.5 75zM454 193q44 -71 95 -113t105 -42q71 0 109.5 40.5t38.5 114.5q0 73 -38.5 113t-109.5 40q-54 0 -105 -41.5t-95 -111.5zM430 193q-43 70 -94.5 111.5
t-105.5 41.5q-71 0 -109.5 -40t-38.5 -113q0 -74 38.5 -114.5t109.5 -40.5q54 0 105.5 42t94.5 113z" />
    <glyph glyph-name="approxequal" unicode="&#x2248;" horiz-adv-x="512" 
d="M155 330q33 0 56 -10.5t44.5 -22.5t45.5 -22.5t59 -10.5q23 0 47 7.5t46 16.5l4 -24q-23 -10 -49.5 -18.5t-51.5 -8.5q-35 0 -58.5 10t-45 22.5t-44.5 22.5t-56 10q-23 0 -47 -7.5t-47 -16.5l-3 24q23 11 49 19.5t51 8.5zM155 154q33 0 56 -10.5t44.5 -22.5t45.5 -22.5
t59 -10.5q23 0 47 7.5t46 16.5l4 -24q-23 -10 -49.5 -18.5t-51.5 -8.5q-35 0 -58.5 10.5t-45 22.5t-44.5 22.5t-56 10.5q-23 0 -47 -8t-47 -17l-3 25q23 10 49 18.5t51 8.5z" />
    <glyph glyph-name="notequal" unicode="&#x2260;" horiz-adv-x="512" 
d="M228 94l-61 -160l-24 10l56 150h-144v27h155l57 148h-212v28h223l63 160l24 -10l-59 -150h151v-28h-161l-58 -148h219v-27h-229z" />
    <glyph glyph-name="lessequal" unicode="&#x2264;" horiz-adv-x="512" 
d="M421 165l-13 -24l-331 180v33l331 181l13 -25l-320 -172zM55 1v27h402v-27h-402z" />
    <glyph glyph-name="greaterequal" unicode="&#x2265;" horiz-adv-x="512" 
d="M69.0244 165l12.999 -24l330.979 180v33l-330.979 181l-12.999 -25l319.98 -172zM55 1v27h402v-27h-402z" />
    <glyph glyph-name="black_small_square" unicode="&#x25aa;" horiz-adv-x="370" 
d="M315 260v-260h-260v260h260z" />
    <glyph glyph-name="white_small_square" unicode="&#x25ab;" horiz-adv-x="370" 
d="M315 260v-260h-260v260h260zM82 28h205v199h-205v-199z" />
    <glyph glyph-name="black_upsmall_triangle" unicode="&#x25b4;" horiz-adv-x="449" 
d="M394 0h-339l169 294z" />
    <glyph glyph-name="white_upsmall_triangle" unicode="&#x25b5;" horiz-adv-x="449" 
d="M394 0h-339l169 294zM101 28h244l-122 216z" />
    <glyph glyph-name="black_rightsmall_triangle" unicode="&#x25b8;" horiz-adv-x="405" 
d="M55 -7v339l295 -169z" />
    <glyph glyph-name="white_rightsmall_triangle" unicode="&#x25b9;" horiz-adv-x="404" 
d="M349 163l-294 -170v339zM297 163l-215 122v-244z" />
    <glyph glyph-name="black_downsmall_triangle" unicode="&#x25be;" horiz-adv-x="449" 
d="M55 287h339l-170 -294z" />
    <glyph glyph-name="white_downsmall_triangle" unicode="&#x25bf;" horiz-adv-x="449" 
d="M394 287l-170 -294l-169 294h339zM223 43l122 217h-244z" />
    <glyph glyph-name="black_leftsmall_triangle" unicode="&#x25c2;" horiz-adv-x="404" 
d="M349 332v-339l-294 170z" />
    <glyph glyph-name="white_leftsmall_triangle" unicode="&#x25c3;" horiz-adv-x="404" 
d="M349 332v-339l-294 170zM321 41v244l-214 -122z" />
    <glyph glyph-name="dotted.ring" unicode="&#x25cc;" horiz-adv-x="638" 
d="M187 77h77v-77h-77v77zM374 77h77v-77h-77v77zM187 484h77v-77h-77v77zM374 484h77v-77h-77v77zM506 280h77v-76h-77v76zM55 280h77v-76h-77v76z" />
    <glyph glyph-name="white_bullet" unicode="&#x25e6;" horiz-adv-x="402" 
d="M55 145q0 30 11.5 57t31 46.5t46 31t56.5 11.5t56.5 -11.5t46.5 -31t31.5 -46.5t11.5 -57t-11.5 -56.5t-31.5 -46t-46.5 -31t-56.5 -11.5t-56.5 11.5t-46 31t-31 46t-11.5 56.5zM82 145q0 -25 9 -46.5t25 -37t37.5 -24.5t46.5 -9t46.5 9t37.5 24.5t25.5 37t9.5 46.5
t-9.5 46.5t-25.5 37.5t-37.5 25.5t-46.5 9.5t-46.5 -9.5t-37.5 -25.5t-25 -37.5t-9 -46.5z" />
    <glyph glyph-name="t1p" unicode="&#xfbb2;" 
d="M28 0h-56v44h56v-44z" />
    <glyph glyph-name="b1p" unicode="&#xfbb3;" 
d="M28 -44h-56v44h56v-44z" />
    <glyph glyph-name="t2p" unicode="&#xfbb4;" 
d="M82 0h-54v44h54v-44zM-28 0h-55v44h55v-44z" />
    <glyph glyph-name="b2p" unicode="&#xfbb5;" 
d="M82 -44h-49v44h49v-44zM-33 -44h-50v44h50v-44z" />
    <glyph glyph-name="t3p" unicode="&#xfbb6;" 
d="M28 99h-56v44h56v-44zM82 0h-54v44h54v-44zM-28 0h-55v44h55v-44z" />
    <glyph glyph-name="b3p" unicode="&#xfbb9;" 
d="M28 -143h-56v44h56v-44zM82 -44h-54v44h54v-44zM-28 -44h-55v44h55v-44z" />
    <glyph glyph-name="parantez_left" unicode="&#xfd3e;" horiz-adv-x="280" 
d="M82 215q0 -68 8.5 -122t26.5 -99t45 -83.5t64 -75.5l-17 -17q-35 35 -63.5 73.5t-48.5 85t-31 103.5t-11 129t11 129t31 103.5t48.5 84.5t63.5 73l17 -16q-37 -37 -64 -75.5t-45 -82t-26.5 -95t-8.5 -115.5z" />
    <glyph glyph-name="parantez_right" unicode="&#xfd3f;" horiz-adv-x="280" 
d="M198.005 203.013q0 67.9961 -8.49902 121.993q-8.5 53.9961 -26.499 98.9941q-17.999 44.9971 -44.9971 83.4941q-26.998 38.498 -63.9961 75.4961l16.999 16.999q34.998 -34.998 63.4961 -73.4961q28.498 -38.4971 48.4971 -84.9941q19.999 -46.498 30.998 -103.494
t10.999 -128.992q0 -71.9951 -10.999 -128.992q-10.999 -56.9961 -30.998 -103.493q-19.999 -46.498 -48.4971 -84.4951q-28.498 -37.998 -63.4961 -72.9961l-16.999 15.999q36.998 36.998 63.9961 75.4961q26.998 38.4971 44.9971 81.9951q17.999 43.4971 26.499 94.9941
q8.49902 51.4961 8.49902 115.492z" />
    <glyph glyph-name="zwnbspace" unicode="&#xfeff;" 
 />
    <glyph glyph-name="obj" unicode="&#xfffc;" horiz-adv-x="869" 
d="M847 555h-132v39h132v-39zM616 555h-129v39h129v-39zM847 342h-40v130h40v-130zM704 253q0 -50 -21 -74t-60 -24h-26v44h26q20 0 29 11t9 40v189h43v-186zM385 555h-131v39h131v-39zM847 0h-132v40h132v-40zM563 239q0 -38 -19.5 -61t-74.5 -23h-78v284h83q50 0 65.5 -21
t15.5 -54q0 -18 -8 -34.5t-25 -24.5q23 -9 32 -27t9 -39zM154 555h-132v39h132v-39zM616 0h-129v40h129v-40zM341 297q0 -72 -19.5 -109.5t-77.5 -37.5q-29 0 -47 9.5t-28 28t-13.5 46t-3.5 63.5q0 35 3.5 62.5t13.5 46t28 28.5t47 10q31 0 50 -10t29.5 -28.5t14 -46
t3.5 -62.5zM63 342h-41v130h41v-130zM385 0h-131v40h131v-40zM154 0h-132v40h132v-40zM517 361q0 19 -8.5 29t-42.5 10h-40v-79h39q32 0 42 9.5t10 30.5zM524 239q0 22 -12 33t-47 11h-39v-92h43q37 0 46 12.5t9 35.5zM297 297q0 27 -1 47.5t-6.5 34t-16 20t-29.5 6.5
q-36 0 -43.5 -26.5t-7.5 -81.5q0 -53 7.5 -80.5t43.5 -27.5q19 0 29.5 7t16 20.5t6.5 34t1 46.5zM847 122h-40v131h40v-131zM63 122h-41v131h41v-131z" />
    <glyph glyph-name="kashidas.Narrow" horiz-adv-x="82" 
d="M-22 13q0 7 4.5 11t17.5 4h82q23 0 23 -14t-23 -14h-82q-13 0 -17.5 3.5t-4.5 9.5z" />
    <glyph glyph-name="kashidas.Wide" horiz-adv-x="248" 
d="M248 28q12 0 16.5 -4t4.5 -10q0 -7 -4.5 -10.5t-16.5 -3.5h-248q-13 0 -17.5 3.5t-4.5 9.5q0 7 4.5 11t17.5 4h248z" />
    <glyph glyph-name="he.arab.isol" horiz-adv-x="682" 
d="M55 198q0 33 12 64t34.5 54.5t55.5 38t74 14.5t72 -14.5t51.5 -37.5t31 -52.5t10.5 -60.5q0 -54 -28 -96.5t-82 -79.5h198q54 0 84.5 25.5t30.5 67.5q0 20 -9 42.5t-29 45.5l-197 217l21 20l198 -220q25 -28 34.5 -54t9.5 -51q0 -54 -38 -87.5t-105 -33.5h-110
q-38 0 -69.5 0.5t-51.5 4.5q-33 -29 -71.5 -59t-87.5 -62l-17 25q38 23 76 50t67 52q-39 10 -69.5 29t-52 44t-32.5 54t-11 60zM226 341q-33 0 -60 -11.5t-45.5 -31t-28.5 -45.5t-10 -55q0 -35 15 -63.5t39.5 -49.5t55 -34.5t61.5 -17.5q14 10 34 25.5t38 36t31 45t13 53.5
q0 66 -38.5 107t-104.5 41z" />
    <glyph glyph-name=".seperator" horiz-adv-x="528" 
d="M435 528l-341 -500h341v500zM435 583h-341v-512zM462 0h-396v610h396v-610z" />
    <glyph glyph-name="sefr.tnum" horiz-adv-x="605" 
d="M302 391q33 0 64.5 -14.5t56.5 -38t40 -54.5t15 -64t-15 -63.5t-40 -54.5t-56.5 -38t-64.5 -14t-64.5 14t-56.5 38t-40 54.5t-15 63.5t15 64t40 54.5t56.5 38t64.5 14.5zM302 77q27 0 53.5 11.5t47.5 31t34.5 45.5t13.5 55q0 27 -13.5 52.5t-34.5 45.5t-47.5 32.5
t-53.5 12.5t-53.5 -12.5t-48 -32.5t-34.5 -45.5t-13 -52.5q0 -29 13 -55t34.5 -45.5t48 -31t53.5 -11.5z" />
    <glyph glyph-name="yek.tnum" horiz-adv-x="605" 
d="M314 -61v243q0 60 -4 106.5t-11 86.5t-16 75t-19 72l27 11q13 -41 22.5 -78.5t15.5 -77.5t9 -86t3 -104v-248h-27z" />
    <glyph glyph-name="do.tnum" horiz-adv-x="605" 
d="M322 253q-29 0 -56 13t-43 42q3 -26 4 -59t1 -62v-248h-27v243q0 60 -4 106.5t-11 86.5t-16 75t-19 72l27 11q9 -31 14.5 -53.5t10 -41.5t9.5 -36.5l11 -38.5q25 -83 99 -83q18 0 36.5 6t33.5 18t24.5 29.5t9.5 40.5q0 29 -4.5 70.5t-12.5 83.5l28 5q8 -37 12 -76.5
t4 -76.5q0 -29 -10.5 -52.5t-28.5 -40t-41.5 -25.5t-50.5 -9z" />
    <glyph glyph-name="se.tnum" horiz-adv-x="605" 
d="M332 533q8 -37 12 -76.5t4 -76.5q0 -8 -1 -20.5t-6 -27.5q14 -23 39.5 -37.5t50.5 -14.5q19 0 36.5 7.5t31.5 20t22.5 28.5t8.5 33q0 33 -4 75t-12 84l27 5q8 -37 12 -77t4 -82q0 -25 -10.5 -47t-28 -38.5t-40 -26t-47.5 -9.5q-29 0 -54 13t-51 42q-17 -25 -44.5 -40
t-64.5 -15q-29 0 -56 13t-43 42q3 -26 4 -59t1 -62v-248h-27v243q0 60 -4 106.5t-11 86.5t-16 75t-19 72l27 11q9 -31 14.5 -53.5t10 -41.5t9.5 -36.5l11 -38.5q25 -83 99 -83q18 0 36.5 6t33.5 18t24.5 29.5t9.5 40.5q0 29 -4.5 70.5t-12.5 83.5l28 5v0z" />
    <glyph glyph-name="char.tnum" horiz-adv-x="605" 
d="M332 215q-49 0 -95.5 17.5t-72.5 44.5q2 -20 2.5 -42t0.5 -48v-248h-27v243q0 60 -4 106.5t-11 86.5t-16 75t-19 72l27 11q13 -44 23 -85.5t19 -95.5q2 -12 6.5 -25.5t15.5 -26.5t30 -25t50 -22q-17 14 -27 31t-15 34t-6.5 33t-1.5 29q0 33 12.5 62t35 50.5t52.5 34
t65 12.5q25 0 51 -5.5t59 -21.5l-11 -25q-33 14 -55.5 19.5t-43.5 5.5q-31 0 -56 -10.5t-43 -29.5t-28 -44t-10 -54q0 -27 9.5 -51t24.5 -42t33.5 -28.5t36.5 -10.5q46 0 87.5 12.5t72.5 28.5l11 -25q-54 -24 -97 -33.5t-85 -9.5z" />
    <glyph glyph-name="panj.tnum" horiz-adv-x="605" 
d="M53 82q0 34 9 71.5t34.5 84.5t70.5 105.5t117 135.5l-51 45l18 20q95 -80 154 -144.5t92 -118t44.5 -98t11.5 -84.5q0 -44 -13 -75t-33.5 -51t-45.5 -29.5t-50 -9.5q-38 0 -66 14.5t-45 34.5q-20 -25 -50 -37t-59 -12q-63 0 -100.5 39t-37.5 109zM526 94q0 35 -9.5 74
t-34.5 84t-68.5 96.5t-110.5 110.5q-114 -110 -168.5 -203t-54.5 -168q0 -66 32.5 -96.5t78.5 -30.5q18 0 37.5 6.5t35.5 19t26 32.5t10 47v77h28v-77q0 -21 -4 -36t-9 -25q18 -20 42.5 -32t53.5 -12q22 0 43 8.5t37 25t25.5 41.5t9.5 58z" />
    <glyph glyph-name="shish.tnum" horiz-adv-x="605" 
d="M387 490q-25 12 -49 17t-44 5q-29 0 -53.5 -11.5t-42 -30.5t-27.5 -44t-10 -52q0 -63 37 -94.5t96 -31.5q41 0 81.5 11.5t79.5 33.5l15 -18q-35 -31 -70.5 -72t-69.5 -86.5t-64 -94t-55 -94.5l-24 15q17 32 41.5 70t52 77.5t56 77.5t55.5 69q-29 -10 -54 -13.5t-50 -3.5
q-38 0 -67 12t-48.5 32t-29 47.5t-9.5 57.5q0 31 11.5 61.5t32.5 54.5t50.5 39t65.5 15q27 0 49.5 -5.5t54.5 -21.5z" />
    <glyph glyph-name="haft.tnum" horiz-adv-x="605" 
d="M303 22q27 133 84.5 267.5t135.5 254.5l22 -18q-35 -53 -69 -115.5t-64.5 -135.5t-56 -157t-41.5 -179h-22q-17 95 -41.5 179t-55 157t-65 135.5t-69.5 115.5l22 18q78 -120 135.5 -254.5t84.5 -267.5z" />
    <glyph glyph-name="hasht.tnum" horiz-adv-x="605" 
d="M303 451q-27 -133 -84.5 -267.5t-135.5 -255.5l-22 19q35 53 69.5 115.5t65 135.5t55 156.5t41.5 178.5h22q16 -95 41.5 -178.5t56 -156.5t64.5 -135.5t69 -115.5l-22 -19q-78 121 -135.5 255.5t-84.5 267.5z" />
    <glyph glyph-name="noh.tnum" horiz-adv-x="605" 
d="M440 -61v306q-42 -23 -81.5 -29.5t-71.5 -6.5q-39 0 -67.5 10.5t-46.5 29t-26.5 43.5t-8.5 54q0 35 11 69.5t32 62t52 44.5t71 17q45 0 76 -19.5t50.5 -53t28.5 -78.5t9 -97v-352h-28zM440 275q0 54 -7.5 97.5t-24.5 74.5t-44 48t-66 17q-31 0 -55.5 -15t-42 -39
t-26.5 -53.5t-9 -58.5q0 -50 32.5 -79.5t95.5 -29.5q40 0 77 9t70 29z" />
    <glyph glyph-name="sefr.arab.tnum" horiz-adv-x="605" 
d="M302 391q33 0 64.5 -14.5t56.5 -38t40 -54.5t15 -64t-15 -63.5t-40 -54.5t-56.5 -38t-64.5 -14t-64.5 14t-56.5 38t-40 54.5t-15 63.5t15 64t40 54.5t56.5 38t64.5 14.5zM302 77q27 0 53.5 11.5t47.5 31t34.5 45.5t13.5 55q0 27 -13.5 52.5t-34.5 45.5t-47.5 32.5
t-53.5 12.5t-53.5 -12.5t-48 -32.5t-34.5 -45.5t-13 -52.5q0 -29 13 -55t34.5 -45.5t48 -31t53.5 -11.5z" />
    <glyph glyph-name="yek.arab.tnum" horiz-adv-x="605" 
d="M314 -61v243q0 60 -4 106.5t-11 86.5t-16 75t-19 72l27 11q13 -41 22.5 -78.5t15.5 -77.5t9 -86t3 -104v-248h-27z" />
    <glyph glyph-name="do.arab.tnum" horiz-adv-x="605" 
d="M322 253q-29 0 -56 13t-43 42q3 -26 4 -59t1 -62v-248h-27v243q0 60 -4 106.5t-11 86.5t-16 75t-19 72l27 11q9 -31 14.5 -53.5t10 -41.5t9.5 -36.5l11 -38.5q25 -83 99 -83q18 0 36.5 6t33.5 18t24.5 29.5t9.5 40.5q0 29 -4.5 70.5t-12.5 83.5l28 5q8 -37 12 -76.5
t4 -76.5q0 -29 -10.5 -52.5t-28.5 -40t-41.5 -25.5t-50.5 -9z" />
    <glyph glyph-name="se.arab.tnum" horiz-adv-x="605" 
d="M332 533q8 -37 12 -76.5t4 -76.5q0 -8 -1 -20.5t-6 -27.5q14 -23 39.5 -37.5t50.5 -14.5q19 0 36.5 7.5t31.5 20t22.5 28.5t8.5 33q0 33 -4 75t-12 84l27 5q8 -37 12 -77t4 -82q0 -25 -10.5 -47t-28 -38.5t-40 -26t-47.5 -9.5q-29 0 -54 13t-51 42q-17 -25 -44.5 -40
t-64.5 -15q-29 0 -56 13t-43 42q3 -26 4 -59t1 -62v-248h-27v243q0 60 -4 106.5t-11 86.5t-16 75t-19 72l27 11q9 -31 14.5 -53.5t10 -41.5t9.5 -36.5l11 -38.5q25 -83 99 -83q18 0 36.5 6t33.5 18t24.5 29.5t9.5 40.5q0 29 -4.5 70.5t-12.5 83.5l28 5v0z" />
    <glyph glyph-name="char.arab.tnum" horiz-adv-x="605" 
d="M332 215q-49 0 -95.5 17.5t-72.5 44.5q2 -20 2.5 -42t0.5 -48v-248h-27v243q0 60 -4 106.5t-11 86.5t-16 75t-19 72l27 11q13 -44 23 -85.5t19 -95.5q2 -12 6.5 -25.5t15.5 -26.5t30 -25t50 -22q-17 14 -27 31t-15 34t-6.5 33t-1.5 29q0 33 12.5 62t35 50.5t52.5 34
t65 12.5q25 0 51 -5.5t59 -21.5l-11 -25q-33 14 -55.5 19.5t-43.5 5.5q-31 0 -56 -10.5t-43 -29.5t-28 -44t-10 -54q0 -27 9.5 -51t24.5 -42t33.5 -28.5t36.5 -10.5q46 0 87.5 12.5t72.5 28.5l11 -25q-54 -24 -97 -33.5t-85 -9.5z" />
    <glyph glyph-name="panj.arab.tnum" horiz-adv-x="605" 
d="M53 82q0 34 9 71.5t34.5 84.5t70.5 105.5t117 135.5l-51 45l18 20q95 -80 154 -144.5t92 -118t44.5 -98t11.5 -84.5q0 -44 -13 -75t-33.5 -51t-45.5 -29.5t-50 -9.5q-38 0 -66 14.5t-45 34.5q-20 -25 -50 -37t-59 -12q-63 0 -100.5 39t-37.5 109zM526 94q0 35 -9.5 74
t-34.5 84t-68.5 96.5t-110.5 110.5q-114 -110 -168.5 -203t-54.5 -168q0 -66 32.5 -96.5t78.5 -30.5q18 0 37.5 6.5t35.5 19t26 32.5t10 47v77h28v-77q0 -21 -4 -36t-9 -25q18 -20 42.5 -32t53.5 -12q22 0 43 8.5t37 25t25.5 41.5t9.5 58z" />
    <glyph glyph-name="shish.arab.tnum" horiz-adv-x="605" 
d="M387 490q-25 12 -49 17t-44 5q-29 0 -53.5 -11.5t-42 -30.5t-27.5 -44t-10 -52q0 -63 37 -94.5t96 -31.5q41 0 81.5 11.5t79.5 33.5l15 -18q-35 -31 -70.5 -72t-69.5 -86.5t-64 -94t-55 -94.5l-24 15q17 32 41.5 70t52 77.5t56 77.5t55.5 69q-29 -10 -54 -13.5t-50 -3.5
q-38 0 -67 12t-48.5 32t-29 47.5t-9.5 57.5q0 31 11.5 61.5t32.5 54.5t50.5 39t65.5 15q27 0 49.5 -5.5t54.5 -21.5z" />
    <glyph glyph-name="haft.arab.tnum" horiz-adv-x="605" 
d="M303 22q27 133 84.5 267.5t135.5 254.5l22 -18q-35 -53 -69 -115.5t-64.5 -135.5t-56 -157t-41.5 -179h-22q-17 95 -41.5 179t-55 157t-65 135.5t-69.5 115.5l22 18q78 -120 135.5 -254.5t84.5 -267.5z" />
    <glyph glyph-name="hasht.arab.tnum" horiz-adv-x="605" 
d="M303 451q-27 -133 -84.5 -267.5t-135.5 -255.5l-22 19q35 53 69.5 115.5t65 135.5t55 156.5t41.5 178.5h22q16 -95 41.5 -178.5t56 -156.5t64.5 -135.5t69 -115.5l-22 -19q-78 121 -135.5 255.5t-84.5 267.5z" />
    <glyph glyph-name="noh.arab.tnum" horiz-adv-x="605" 
d="M440 -61v306q-42 -23 -81.5 -29.5t-71.5 -6.5q-39 0 -67.5 10.5t-46.5 29t-26.5 43.5t-8.5 54q0 35 11 69.5t32 62t52 44.5t71 17q45 0 76 -19.5t50.5 -53t28.5 -78.5t9 -97v-352h-28zM440 275q0 54 -7.5 97.5t-24.5 74.5t-44 48t-66 17q-31 0 -55.5 -15t-42 -39
t-26.5 -53.5t-9 -58.5q0 -50 32.5 -79.5t95.5 -29.5q40 0 77 9t70 29z" />
    <glyph glyph-name="Tvasla" 
d="M-106 28q44 86 80 120t72 34q33 0 57.5 -25.5t24.5 -62.5q0 -15 -5 -31.5t-17 -30.5t-32 -23t-51 -9h-134l-17 16v103l22 5v-96zM21 22q35 0 60 17t25 55q0 25 -17 45t-46 20q-18 0 -35 -11t-32.5 -29.5t-31 -43.5t-30.5 -53h107z" />
    <glyph glyph-name=".kolah" 
d="M-28 72q-17 0 -29.5 -3.5t-21.5 -23.5l-20 -45l-21 9l21 47q7 16 14.5 25t16 13.5t18.5 5t22 0.5h165v-28h-165z" />
    <glyph glyph-name=".shdd.an" 
d="M0 11q-8 -7 -14 -9t-14 -2h-25q-13 0 -29.5 4t-31.5 16.5t-25 36t-10 62.5v63h22v-77q0 -47 21 -65t53 -18h42v160h22v-160h42q32 0 53 18t21 65v77h21v-63q0 -39 -10 -62.5t-24.5 -36t-31 -16.5t-29.5 -4h-25q-9 0 -14.5 2t-13.5 9zM107 347l9 -21l-223 -95l-9 21z
M107 468l9 -21l-223 -95l-9 21z" />
    <glyph glyph-name="be.dls" horiz-adv-x="780" 
d="M214 0q-41 0 -70.5 12.5t-48 33.5t-27 49t-8.5 59v126h27v-121q0 -58 31 -94.5t102 -36.5h368q45 0 74.5 25.5t29.5 67.5v159h28v-153q0 -58 -37 -92.5t-95 -34.5h-374z" />
    <glyph glyph-name="be.dls.fina" horiz-adv-x="830" 
d="M588 28q50 0 77 25.5t27 67.5v159h28v-159q0 -27 9 -44.5t23 -28.5t31 -15.5t34 -4.5h13q13 0 17.5 -4t4.5 -10q0 -7 -4.5 -10.5t-17.5 -3.5h-13q-35 0 -66 14.5t-48 53.5q-20 -39 -51 -53.5t-64 -14.5h-374q-41 0 -70.5 12.5t-48 33.5t-27 49t-8.5 59v126h27v-121
q0 -58 31 -94.5t102 -36.5h368z" />
    <glyph glyph-name="fe.dls.medi" horiz-adv-x="539" 
d="M242 28q-63 25 -103 72t-40 109q0 33 12 64t34.5 54.5t55.5 38t74 14.5t72 -14.5t51.5 -37.5t31 -52.5t10.5 -60.5q0 -54 -30 -102t-97 -85h226q22 0 22 -14t-22 -14h-121q-45 0 -81 1.5t-57 9.5q-14 -4 -34.5 -6.5t-42 -3.5t-42 -1h-34.5h-127q-13 0 -17.5 3.5t-4.5 9.5
q0 7 4.5 11t17.5 4h242zM269 352q-33 0 -59 -11.5t-44.5 -31t-28.5 -45.5t-10 -55q0 -35 15.5 -63t38.5 -49t49.5 -35.5t49.5 -23.5q16 9 39 23.5t44 35t35.5 47.5t14.5 60q0 66 -38.5 107t-105.5 41z" />
    <glyph glyph-name="fe.dls.init" horiz-adv-x="495" 
d="M248 28q19 0 38 2.5t36 7.5q-78 24 -122.5 44.5t-67 42.5t-28 46.5t-5.5 54.5q0 28 11 57.5t32.5 53.5t53.5 39t73 15q37 0 68 -10.5t52.5 -34t33.5 -60t12 -88.5v-39q0 -74 -46.5 -116.5t-146.5 -42.5h-242q-13 0 -17.5 3.5t-4.5 9.5q0 7 4.5 11t17.5 4h248zM264 363
q-31 0 -56 -11.5t-43 -30t-28 -42t-10 -48.5t4.5 -45.5t26.5 -40.5t69 -41t132 -48q21 15 34.5 39t13.5 59v39q0 82 -34 126t-109 44z" />
    <glyph glyph-name="hezar.sep.up" horiz-adv-x="187" 
d="M93.0059 610q16.999 0 22.498 -8.49902q5.5 -8.5 5.5 -26.499q0 -41.9971 -1 -66.9961q-1 -24.998 -5.99902 -39.4971q-5 -14.499 -15.999 -21.499q-11 -6.99902 -31.998 -12.999v27.998q11.999 4 18.998 8q7 3.99902 10 11.499t3.5 20.999t0.5 36.4971
q-20.999 0 -26.999 8q-5.99902 7.99902 -5.99902 27.998q0 17.999 4.99902 26.499q5 8.49902 21.999 8.49902z" />
    <glyph glyph-name="asteris" horiz-adv-x="507" 
d="M144 226l-23 19l111 151l-177 61l9 27l176 -62v189h27v-189l176 62l9 -27l-177 -61l111 -151l-23 -19l-109 155z" />
    <glyph glyph-name="tooth.k.medi" horiz-adv-x="468" 
d="M0 0q-13 0 -17.5 3.5t-4.5 9.5q0 7 4.5 11t17.5 4h187q50 0 77 25.5t27 67.5v159h28v-159q0 -27 9 -44.5t23 -28.5t31 -15.5t34 -4.5h52q22 0 22 -14t-22 -14h-52q-35 0 -66 14.5t-48 53.5q-20 -39 -51 -53.5t-64 -14.5h-187z" />
    <glyph glyph-name="be.k.medi" horiz-adv-x="468" 
d="M0 0q-13 0 -17.5 3.5t-4.5 9.5q0 7 4.5 11t17.5 4h187q50 0 77 25.5t27 67.5v159h28v-159q0 -27 9 -44.5t23 -28.5t31 -15.5t34 -4.5h52q22 0 22 -14t-22 -14h-52q-35 0 -66 14.5t-48 53.5q-20 -39 -51 -53.5t-64 -14.5h-187zM215 -164h-56v44h56v-44z" />
    <glyph glyph-name="pe.k.medi" horiz-adv-x="468" 
d="M0 0q-13 0 -17.5 3.5t-4.5 9.5q0 7 4.5 11t17.5 4h187q50 0 77 25.5t27 67.5v159h28v-159q0 -27 9 -44.5t23 -28.5t31 -15.5t34 -4.5h52q22 0 22 -14t-22 -14h-52q-35 0 -66 14.5t-48 53.5q-20 -39 -51 -53.5t-64 -14.5h-187zM248 -263h-56v44h56v-44zM302 -164h-54v44
h54v-44zM192 -164h-55v44h55v-44z" />
    <glyph glyph-name="te.k.medi" horiz-adv-x="468" 
d="M0 0q-13 0 -17.5 3.5t-4.5 9.5q0 7 4.5 11t17.5 4h187q50 0 77 25.5t27 67.5v159h28v-159q0 -27 9 -44.5t23 -28.5t31 -15.5t34 -4.5h52q22 0 22 -14t-22 -14h-52q-35 0 -66 14.5t-48 53.5q-20 -39 -51 -53.5t-64 -14.5h-187zM313 418h-54v44h54v-44zM203 418h-55v44h55
v-44z" />
    <glyph glyph-name="the.k.medi" horiz-adv-x="468" 
d="M0 0q-13 0 -17.5 3.5t-4.5 9.5q0 7 4.5 11t17.5 4h187q50 0 77 25.5t27 67.5v159h28v-159q0 -27 9 -44.5t23 -28.5t31 -15.5t34 -4.5h52q22 0 22 -14t-22 -14h-52q-35 0 -66 14.5t-48 53.5q-20 -39 -51 -53.5t-64 -14.5h-187zM259 517h-56v44h56v-44zM313 418h-54v44h54
v-44zM203 418h-55v44h55v-44z" />
    <glyph glyph-name="nun.k.medi" horiz-adv-x="468" 
d="M0 0q-13 0 -17.5 3.5t-4.5 9.5q0 7 4.5 11t17.5 4h187q50 0 77 25.5t27 67.5v159h28v-159q0 -27 9 -44.5t23 -28.5t31 -15.5t34 -4.5h52q22 0 22 -14t-22 -14h-52q-35 0 -66 14.5t-48 53.5q-20 -39 -51 -53.5t-64 -14.5h-187zM281 418h-56v44h56v-44z" />
    <glyph glyph-name="ye.k.medi" horiz-adv-x="468" 
d="M0 0q-13 0 -17.5 3.5t-4.5 9.5q0 7 4.5 11t17.5 4h187q50 0 77 25.5t27 67.5v159h28v-159q0 -27 9 -44.5t23 -28.5t31 -15.5t34 -4.5h52q22 0 22 -14t-22 -14h-52q-35 0 -66 14.5t-48 53.5q-20 -39 -51 -53.5t-64 -14.5h-187zM319 -164h-49v44h49v-44zM204 -164h-50v44
h50v-44z" />
    <glyph glyph-name="ie.k.medi" horiz-adv-x="468" 
d="M0 0q-13 0 -17.5 3.5t-4.5 9.5q0 7 4.5 11t17.5 4h187q50 0 77 25.5t27 67.5v159h28v-159q0 -27 9 -44.5t23 -28.5t31 -15.5t34 -4.5h52q22 0 22 -14t-22 -14h-52q-35 0 -66 14.5t-48 53.5q-20 -39 -51 -53.5t-64 -14.5h-187zM330 440l-185 -94l-11 21l78 39
q-20 2 -34 10.5t-23 21.5t-13.5 28t-4.5 29q0 42 25.5 68t67.5 26h47l-5 -22h-37q-36 0 -56 -21.5t-20 -50.5q0 -33 22.5 -52.5t49.5 -19.5q17 0 39 11.5t51 25.5z" />
    <glyph glyph-name="tooth.k.init" horiz-adv-x="418" 
d="M0 0q-13 0 -17.5 3.5t-4.5 9.5q0 7 4.5 11t17.5 4h226q45 0 74.5 25.5t29.5 67.5v159h28v-153q0 -58 -37.5 -92.5t-94.5 -34.5h-226z" />
    <glyph glyph-name="be.k.init" horiz-adv-x="413" 
d="M0 0q-13 0 -17.5 3.5t-4.5 9.5q0 7 4.5 11t17.5 4h226q45 0 74.5 25.5t29.5 67.5v159h28v-153q0 -58 -37.5 -92.5t-94.5 -34.5h-226zM138 -164h-56v44h56v-44z" />
    <glyph glyph-name="pe.k.init" horiz-adv-x="413" 
d="M0 0q-13 0 -17.5 3.5t-4.5 9.5q0 7 4.5 11t17.5 4h226q45 0 74.5 25.5t29.5 67.5v159h28v-153q0 -58 -37.5 -92.5t-94.5 -34.5h-226zM182 -263h-56v44h56v-44zM236 -164h-54v44h54v-44zM126 -164h-55v44h55v-44z" />
    <glyph glyph-name="te.k.init" horiz-adv-x="413" 
d="M0 0q-13 0 -17.5 3.5t-4.5 9.5q0 7 4.5 11t17.5 4h226q45 0 74.5 25.5t29.5 67.5v159h28v-153q0 -58 -37.5 -92.5t-94.5 -34.5h-226zM324 418h-54v44h54v-44zM214 418h-55v44h55v-44z" />
    <glyph glyph-name="the.k.init" horiz-adv-x="413" 
d="M0 0q-13 0 -17.5 3.5t-4.5 9.5q0 7 4.5 11t17.5 4h226q45 0 74.5 25.5t29.5 67.5v159h28v-153q0 -58 -37.5 -92.5t-94.5 -34.5h-226zM270 517h-56v44h56v-44zM324 418h-54v44h54v-44zM214 418h-55v44h55v-44z" />
    <glyph glyph-name="nun.k.init" horiz-adv-x="413" 
d="M0 0q-13 0 -17.5 3.5t-4.5 9.5q0 7 4.5 11t17.5 4h226q45 0 74.5 25.5t29.5 67.5v159h28v-153q0 -58 -37.5 -92.5t-94.5 -34.5h-226zM297 418h-56v44h56v-44z" />
    <glyph glyph-name="ye.k.init" horiz-adv-x="413" 
d="M0 0q-13 0 -17.5 3.5t-4.5 9.5q0 7 4.5 11t17.5 4h226q45 0 74.5 25.5t29.5 67.5v159h28v-153q0 -58 -37.5 -92.5t-94.5 -34.5h-226zM241 -164h-49v44h49v-44zM126 -164h-50v44h50v-44z" />
    <glyph glyph-name="ie.k.init" horiz-adv-x="413" 
d="M0 0q-13 0 -17.5 3.5t-4.5 9.5q0 7 4.5 11t17.5 4h226q45 0 74.5 25.5t29.5 67.5v159h28v-153q0 -58 -37.5 -92.5t-94.5 -34.5h-226zM363 440l-185 -94l-11 21l78 39q-20 2 -34 10.5t-23 21.5t-13.5 28t-4.5 29q0 42 25.5 68t67.5 26h47l-5 -22h-37q-36 0 -56 -21.5
t-20 -50.5q0 -33 22.5 -52.5t49.5 -19.5q17 0 39 11.5t51 25.5z" />
    <glyph glyph-name="re.c.fina" horiz-adv-x="257" 
d="M147 116q0 -38 26.5 -63t72.5 -25h11q22 0 22 -14t-22 -14h-11q-29 0 -55.5 11t-43.5 36v-31q0 -62 -18.5 -110t-50.5 -81t-75 -50t-93 -17h-25l-5 27h25q55 0 96 19t67 51t39 74t13 87v264h27v-164z" />
    <glyph glyph-name="re.c" horiz-adv-x="207" 
d="M-120 -215h25q55 0 96 19t67 51t39 74t13 87v264h27v-264q0 -62 -18.5 -110t-50.5 -81t-75 -50t-93 -17h-25z" />
    <glyph glyph-name="ze.c.fina" horiz-adv-x="257" 
d="M147 116q0 -38 26.5 -63t72.5 -25h11q22 0 22 -14t-22 -14h-11q-29 0 -55.5 11t-43.5 36v-31q0 -62 -18.5 -110t-50.5 -81t-75 -50t-93 -17h-25l-5 27h25q55 0 96 19t67 51t39 74t13 87v264h27v-164zM153 418h-56v44h56v-44z" />
    <glyph glyph-name="ze.c" horiz-adv-x="207" 
d="M-120 -215h25q55 0 96 19t67 51t39 74t13 87v264h27v-264q0 -62 -18.5 -110t-50.5 -81t-75 -50t-93 -17h-25zM153 418h-56v44h56v-44z" />
    <glyph glyph-name="je.c.fina" horiz-adv-x="257" 
d="M147 116q0 -38 26.5 -63t72.5 -25h11q22 0 22 -14t-22 -14h-11q-29 0 -55.5 11t-43.5 36v-31q0 -62 -18.5 -110t-50.5 -81t-75 -50t-93 -17h-25l-5 27h25q55 0 96 19t67 51t39 74t13 87v264h27v-164zM148 517h-56v44h56v-44zM202 418h-54v44h54v-44zM92 418h-55v44h55
v-44z" />
    <glyph glyph-name="je.c" horiz-adv-x="207" 
d="M-120 -215h25q55 0 96 19t67 51t39 74t13 87v264h27v-264q0 -62 -18.5 -110t-50.5 -81t-75 -50t-93 -17h-25zM148 517h-56v44h56v-44zM202 418h-54v44h54v-44zM92 418h-55v44h55v-44z" />
    <glyph glyph-name=".tv" 
d="M86 198l19 -11l-96 -187h-18l-96 187l19 11l86 -170z" />
    <glyph glyph-name="la.tv" horiz-adv-x="476" 
d="M71 620h28v-592h175q46 0 75.5 25.5t29.5 67.5v499h28v-493q0 -58 -37.5 -92.5t-95.5 -34.5h-203v620zM327 841l19 -11l-96 -187h-18l-96 187l19 11l86 -170z" />
    <glyph glyph-name="la.tv.fina" horiz-adv-x="516" 
d="M71 0v620h28v-592h175q50 0 77.5 25.5t27.5 67.5v499h28v-499q0 -27 9 -44.5t23 -28.5t31.5 -15.5t35.5 -4.5h11q12 0 16.5 -4t4.5 -10q0 -7 -4.5 -10.5t-16.5 -3.5h-11q-38 0 -68.5 14.5t-47.5 53.5q-20 -39 -51.5 -53.5t-64.5 -14.5h-203zM327 841l19 -11l-96 -187h-18
l-96 187l19 11l86 -170z" />
    <glyph glyph-name="ye.tv.k.medi" horiz-adv-x="468" 
d="M0 0q-13 0 -17.5 3.5t-4.5 9.5q0 7 4.5 11t17.5 4h187q50 0 77 25.5t27 67.5v159h28v-159q0 -27 9 -44.5t23 -28.5t31 -15.5t34 -4.5h52q22 0 22 -14t-22 -14h-52q-35 0 -66 14.5t-48 53.5q-20 -39 -51 -53.5t-64 -14.5h-187zM319 -164h-49v44h49v-44zM204 -164h-50v44
h50v-44zM317 567l19 -11l-96 -187h-18l-96 187l19 11l86 -170z" />
    <glyph glyph-name="ye.tv.k.init" horiz-adv-x="413" 
d="M0 0q-13 0 -17.5 3.5t-4.5 9.5q0 7 4.5 11t17.5 4h226q45 0 74.5 25.5t29.5 67.5v159h28v-153q0 -58 -37.5 -92.5t-94.5 -34.5h-226zM241 -164h-49v44h49v-44zM126 -164h-50v44h50v-44zM317 567l19 -11l-96 -187h-18l-96 187l19 11l86 -170z" />
    <glyph glyph-name="re.bv.c.fina" horiz-adv-x="257" 
d="M147 116q0 -38 26.5 -63t72.5 -25h11q22 0 22 -14t-22 -14h-11q-29 0 -55.5 11t-43.5 36v-31q0 -62 -18.5 -110t-50.5 -81t-75 -50t-93 -17h-25l-5 27h25q55 0 96 19t67 51t39 74t13 87v264h27v-164zM123 -285l19 -11l-96 -187h-18l-96 187l19 11l86 -170z" />
    <glyph glyph-name="re.bv.c" horiz-adv-x="207" 
d="M-120 -215h25q55 0 96 19t67 51t39 74t13 87v264h27v-264q0 -62 -18.5 -110t-50.5 -81t-75 -50t-93 -17h-25zM123 -285l19 -11l-96 -187h-18l-96 187l19 11l86 -170z" />
    <glyph glyph-name="zero.onum" horiz-adv-x="462" 
d="M231 391q33 0 64.5 -14.5t56.5 -38t40 -54.5t15 -64t-15 -63.5t-40 -54.5t-56.5 -38t-64.5 -14t-64.5 14t-56.5 38t-40 54.5t-15 63.5t15 64t40 54.5t56.5 38t64.5 14.5zM231 77q27 0 53.5 11.5t47.5 31t34.5 45.5t13.5 55q0 27 -13.5 52.5t-34.5 45.5t-47.5 32.5
t-53.5 12.5t-53.5 -12.5t-48 -32.5t-34.5 -45.5t-13 -52.5q0 -29 13 -55t34.5 -45.5t48 -31t53.5 -11.5z" />
    <glyph glyph-name="one.onum" horiz-adv-x="187" 
d="M94 -61v243q0 60 -4 106.5t-11 86.5t-16 75t-19 72l27 11q13 -41 22.5 -78.5t15.5 -77.5t9 -86t3 -104v-248h-27z" />
    <glyph glyph-name="two.onum" horiz-adv-x="402" 
d="M215 253q-29 0 -56 13t-43 42q3 -26 4 -59t1 -62v-248h-27v243q0 60 -4 106.5t-11 86.5t-16 75t-19 72l27 11q9 -31 14.5 -53.5t10 -41.5t9.5 -36.5l11 -38.5q25 -83 99 -83q18 0 36.5 6t33.5 18t24.5 29.5t9.5 40.5q0 29 -4.5 70.5t-12.5 83.5l28 5q8 -37 12 -76.5
t4 -76.5q0 -29 -10.5 -52.5t-28.5 -40t-41.5 -25.5t-50.5 -9z" />
    <glyph glyph-name="three.onum" horiz-adv-x="610" 
d="M330 533q8 -37 12 -76.5t4 -76.5q0 -8 -1 -20.5t-6 -27.5q14 -23 39.5 -37.5t50.5 -14.5q19 0 36.5 7.5t31.5 20t22.5 28.5t8.5 33q0 33 -4 75t-12 84l27 5q8 -37 12 -77t4 -82q0 -25 -10.5 -47t-28 -38.5t-40 -26t-47.5 -9.5q-29 0 -54 13t-51 42q-17 -25 -44.5 -40
t-64.5 -15q-29 0 -56 13t-43 42q3 -26 4 -59t1 -62v-248h-27v243q0 60 -4 106.5t-11 86.5t-16 75t-19 72l27 11q9 -31 14.5 -53.5t10 -41.5t9.5 -36.5l11 -38.5q25 -83 99 -83q18 0 36.5 6t33.5 18t24.5 29.5t9.5 40.5q0 29 -4.5 70.5t-12.5 83.5l28 5v0z" />
    <glyph glyph-name="four.onum" horiz-adv-x="522" 
d="M286 215q-49 0 -95.5 17.5t-72.5 44.5q2 -20 2.5 -42t0.5 -48v-248h-27v243q0 60 -4 106.5t-11 86.5t-16 75t-19 72l27 11q13 -44 23 -85.5t19 -95.5q2 -12 6.5 -25.5t15.5 -26.5t30 -25t50 -22q-17 14 -27 31t-15 34t-6.5 33t-1.5 29q0 33 12.5 62t35 50.5t52.5 34
t65 12.5q25 0 51 -5.5t59 -21.5l-11 -25q-33 14 -55.5 19.5t-43.5 5.5q-31 0 -56 -10.5t-43 -29.5t-28 -44t-10 -54q0 -27 9.5 -51t24.5 -42t33.5 -28.5t36.5 -10.5q46 0 87.5 12.5t72.5 28.5l11 -25q-54 -24 -97 -33.5t-85 -9.5z" />
    <glyph glyph-name="five.onum" horiz-adv-x="610" 
d="M55 82q0 34 9 71.5t34.5 84.5t70.5 105.5t117 135.5l-51 45l18 20q95 -80 154 -144.5t92 -118t44.5 -98t11.5 -84.5q0 -44 -13 -75t-33.5 -51t-45.5 -29.5t-50 -9.5q-38 0 -66 14.5t-45 34.5q-20 -25 -50 -37t-59 -12q-63 0 -100.5 39t-37.5 109zM528 94q0 35 -9.5 74
t-34.5 84t-68.5 96.5t-110.5 110.5q-114 -110 -168.5 -203t-54.5 -168q0 -66 32.5 -96.5t78.5 -30.5q18 0 37.5 6.5t35.5 19t26 32.5t10 47v77h28v-77q0 -21 -4 -36t-9 -25q18 -20 42.5 -32t53.5 -12q22 0 43 8.5t37 25t25.5 41.5t9.5 58z" />
    <glyph glyph-name="six.onum" horiz-adv-x="435" 
d="M308 490q-25 12 -49 17t-44 5q-29 0 -53.5 -11.5t-42 -30.5t-27.5 -44t-10 -52q0 -63 37 -94.5t96 -31.5q41 0 81.5 11.5t79.5 33.5l15 -18q-35 -31 -70.5 -72t-69.5 -86.5t-64 -94t-55 -94.5l-24 15q17 32 41.5 70t52 77.5t56 77.5t55.5 69q-29 -10 -54 -13.5t-50 -3.5
q-38 0 -67 12t-48.5 32t-29 47.5t-9.5 57.5q0 31 11.5 61.5t32.5 54.5t50.5 39t65.5 15q27 0 49.5 -5.5t54.5 -21.5z" />
    <glyph glyph-name="seven.onum" horiz-adv-x="550" 
d="M275 22q27 133 84.5 267.5t135.5 254.5l22 -18q-35 -53 -69 -115.5t-64.5 -135.5t-56 -157t-41.5 -179h-22q-17 95 -41.5 179t-55 157t-65 135.5t-69.5 115.5l22 18q78 -120 135.5 -254.5t84.5 -267.5z" />
    <glyph glyph-name="eight.onum" horiz-adv-x="550" 
d="M275 451q-27 -133 -84.5 -267.5t-135.5 -255.5l-22 19q35 53 69.5 115.5t65 135.5t55 156.5t41.5 178.5h22q16 -95 41.5 -178.5t56 -156.5t64.5 -135.5t69 -115.5l-22 -19q-78 121 -135.5 255.5t-84.5 267.5z" />
    <glyph glyph-name="nine.onum" horiz-adv-x="446" 
d="M352 -61v306q-42 -23 -81.5 -29.5t-71.5 -6.5q-39 0 -67.5 10.5t-46.5 29t-26.5 43.5t-8.5 54q0 35 11 69.5t32 62t52 44.5t71 17q45 0 76 -19.5t50.5 -53t28.5 -78.5t9 -97v-352h-28zM352 275q0 54 -7.5 97.5t-24.5 74.5t-44 48t-66 17q-31 0 -55.5 -15t-42 -39
t-26.5 -53.5t-9 -58.5q0 -50 32.5 -79.5t95.5 -29.5q40 0 77 9t70 29z" />
    <glyph glyph-name="zero.tnum" horiz-adv-x="605" 
d="M302 391q33 0 64.5 -14.5t56.5 -38t40 -54.5t15 -64t-15 -63.5t-40 -54.5t-56.5 -38t-64.5 -14t-64.5 14t-56.5 38t-40 54.5t-15 63.5t15 64t40 54.5t56.5 38t64.5 14.5zM302 77q27 0 53.5 11.5t47.5 31t34.5 45.5t13.5 55q0 27 -13.5 52.5t-34.5 45.5t-47.5 32.5
t-53.5 12.5t-53.5 -12.5t-48 -32.5t-34.5 -45.5t-13 -52.5q0 -29 13 -55t34.5 -45.5t48 -31t53.5 -11.5z" />
    <glyph glyph-name="one.tnum" horiz-adv-x="605" 
d="M314 -61v243q0 60 -4 106.5t-11 86.5t-16 75t-19 72l27 11q13 -41 22.5 -78.5t15.5 -77.5t9 -86t3 -104v-248h-27z" />
    <glyph glyph-name="two.tnum" horiz-adv-x="605" 
d="M322 253q-29 0 -56 13t-43 42q3 -26 4 -59t1 -62v-248h-27v243q0 60 -4 106.5t-11 86.5t-16 75t-19 72l27 11q9 -31 14.5 -53.5t10 -41.5t9.5 -36.5l11 -38.5q25 -83 99 -83q18 0 36.5 6t33.5 18t24.5 29.5t9.5 40.5q0 29 -4.5 70.5t-12.5 83.5l28 5q8 -37 12 -76.5
t4 -76.5q0 -29 -10.5 -52.5t-28.5 -40t-41.5 -25.5t-50.5 -9z" />
    <glyph glyph-name="three.tnum" horiz-adv-x="605" 
d="M333 533q8 -37 12 -76.5t4 -76.5q0 -8 -1 -20.5t-6 -27.5q14 -23 39.5 -37.5t50.5 -14.5q19 0 36.5 7.5t31.5 20t22.5 28.5t8.5 33q0 33 -4 75t-12 84l27 5q8 -37 12 -77t4 -82q0 -25 -10.5 -47t-28 -38.5t-40 -26t-47.5 -9.5q-29 0 -54 13t-51 42q-17 -25 -44.5 -40
t-64.5 -15q-29 0 -56 13t-43 42q3 -26 4 -59t1 -62v-248h-27v243q0 60 -4 106.5t-11 86.5t-16 75t-19 72l27 11q9 -31 14.5 -53.5t10 -41.5t9.5 -36.5l11 -38.5q25 -83 99 -83q18 0 36.5 6t33.5 18t24.5 29.5t9.5 40.5q0 29 -4.5 70.5t-12.5 83.5l28 5v0z" />
    <glyph glyph-name="four.tnum" horiz-adv-x="605" 
d="M332 215q-49 0 -95.5 17.5t-72.5 44.5q2 -20 2.5 -42t0.5 -48v-248h-27v243q0 60 -4 106.5t-11 86.5t-16 75t-19 72l27 11q13 -44 23 -85.5t19 -95.5q2 -12 6.5 -25.5t15.5 -26.5t30 -25t50 -22q-17 14 -27 31t-15 34t-6.5 33t-1.5 29q0 33 12.5 62t35 50.5t52.5 34
t65 12.5q25 0 51 -5.5t59 -21.5l-11 -25q-33 14 -55.5 19.5t-43.5 5.5q-31 0 -56 -10.5t-43 -29.5t-28 -44t-10 -54q0 -27 9.5 -51t24.5 -42t33.5 -28.5t36.5 -10.5q46 0 87.5 12.5t72.5 28.5l11 -25q-54 -24 -97 -33.5t-85 -9.5z" />
    <glyph glyph-name="five.tnum" horiz-adv-x="605" 
d="M53 82q0 34 9 71.5t34.5 84.5t70.5 105.5t117 135.5l-51 45l18 20q95 -80 154 -144.5t92 -118t44.5 -98t11.5 -84.5q0 -44 -13 -75t-33.5 -51t-45.5 -29.5t-50 -9.5q-38 0 -66 14.5t-45 34.5q-20 -25 -50 -37t-59 -12q-63 0 -100.5 39t-37.5 109zM526 94q0 35 -9.5 74
t-34.5 84t-68.5 96.5t-110.5 110.5q-114 -110 -168.5 -203t-54.5 -168q0 -66 32.5 -96.5t78.5 -30.5q18 0 37.5 6.5t35.5 19t26 32.5t10 47v77h28v-77q0 -21 -4 -36t-9 -25q18 -20 42.5 -32t53.5 -12q22 0 43 8.5t37 25t25.5 41.5t9.5 58z" />
    <glyph glyph-name="six.tnum" horiz-adv-x="605" 
d="M387 490q-25 12 -49 17t-44 5q-29 0 -53.5 -11.5t-42 -30.5t-27.5 -44t-10 -52q0 -63 37 -94.5t96 -31.5q41 0 81.5 11.5t79.5 33.5l15 -18q-35 -31 -70.5 -72t-69.5 -86.5t-64 -94t-55 -94.5l-24 15q17 32 41.5 70t52 77.5t56 77.5t55.5 69q-29 -10 -54 -13.5t-50 -3.5
q-38 0 -67 12t-48.5 32t-29 47.5t-9.5 57.5q0 31 11.5 61.5t32.5 54.5t50.5 39t65.5 15q27 0 49.5 -5.5t54.5 -21.5z" />
    <glyph glyph-name="seven.tnum" horiz-adv-x="605" 
d="M302 22q27 133 84.5 267.5t135.5 254.5l22 -18q-35 -53 -69 -115.5t-64.5 -135.5t-56 -157t-41.5 -179h-22q-17 95 -41.5 179t-55 157t-65 135.5t-69.5 115.5l22 18q78 -120 135.5 -254.5t84.5 -267.5z" />
    <glyph glyph-name="eight.tnum" horiz-adv-x="605" 
d="M302 451q-27 -133 -84.5 -267.5t-135.5 -255.5l-22 19q35 53 69.5 115.5t65 135.5t55 156.5t41.5 178.5h22q16 -95 41.5 -178.5t56 -156.5t64.5 -135.5t69 -115.5l-22 -19q-78 121 -135.5 255.5t-84.5 267.5z" />
    <glyph glyph-name="nine.tnum" horiz-adv-x="605" 
d="M439 -61v306q-42 -23 -81.5 -29.5t-71.5 -6.5q-39 0 -67.5 10.5t-46.5 29t-26.5 43.5t-8.5 54q0 35 11 69.5t32 62t52 44.5t71 17q45 0 76 -19.5t50.5 -53t28.5 -78.5t9 -97v-352h-28zM439 275q0 54 -7.5 97.5t-24.5 74.5t-44 48t-66 17q-31 0 -55.5 -15t-42 -39
t-26.5 -53.5t-9 -58.5q0 -50 32.5 -79.5t95.5 -29.5q40 0 77 9t70 29z" />
    <glyph glyph-name=".ttfautohint" horiz-adv-x="774" 
d="M0 0z" />
    </font>
</defs>
</svg>
