<?xml version="1.0" encoding="UTF-8"?>
<svg id="Layer_1" data-name="Layer 1" xmlns="http://www.w3.org/2000/svg" viewBox="0 0 1116.2 187.3">
  <defs>
    <style>
      .cls-1 {
        fill: #010101;
      }
    </style>
  </defs>
  <path class="cls-1" d="M33.6,115.3c-1.7,5.6-2.5,10.6-2.5,15,0,6.5,1.6,11.2,4.8,13.9,3.2,2.8,8.9,4.1,17.1,4.1h10.3c6,0,10.4-.4,13.2-1.2,2.8-.8,4.8-2.3,5.8-4.5,1.1-2.2,1.6-5.4,1.6-9.9v-52h31.5v52c0,15.5-4.2,27.9-12.7,37.3-8.5,9.3-21.6,14-39.4,14h-10.3c-11.3,0-20.9-2.4-28.9-7.1-8-4.7-14-11.1-18-19.3-4-8.1-6.1-17.3-6.1-27.5,0-6.9,1.2-14.4,3.7-22.5,2.5-8.1,5.3-15.4,8.5-21.8l27.4,13.1c-2.3,5.5-4.3,10.8-6,16.4Zm14.1-61.8h14.1c6.3,0,11,.1,14.1,.2v27.2h-28.2v-27.4Z"/>
  <path class="cls-1" d="M149.7,136.9c-5.9-3.7-10.3-8.7-13.3-15.1-2.9-6.4-4.4-13.4-4.4-21.2V24.4h31.5V100.1c0,2.9,.4,4.7,1.2,5.5s2.8,1.2,6.1,1.2h9.1l1.3,17.6-1.3,18.1h-8.3c-8.6,0-15.9-1.9-21.9-5.6Z"/>
  <path class="cls-1" d="M256.6,42l-38.7,17.1,15.6,19.9c6.2,7.9,10.9,13.6,14,17.1,3.2,3.5,6.1,6.2,8.9,8s5.7,2.7,8.8,2.7h2.2l1.7,17.4-1.7,18.3h-2.2c-5.6,0-10.8-1-15.4-3.1-4.6-2-9.5-5.4-14.4-10-3,4.1-6.8,7.3-11.5,9.6s-9.9,3.5-15.8,3.5h-33v-35.7h33c.8,0,1.4-.2,1.8-.6s.7-.9,.7-1.4c0-.8-.3-1.5-1-2.3l-28.4-32.9,6-35,56.7-25.1,12.7,32.5Z"/>
  <path class="cls-1" d="M257.2,157.2h48.8v24.8h-48.8v-24.8Zm8.5-50.4h17.4c3.9,0,6.6-.6,8.2-1.9,1.6-1.3,2.2-3.2,1.9-5.9-.7-5.6-1.9-13.2-3.7-22.7l29.7-7.5c3.8,15.9,5.6,27.8,5.6,35.5,0,6.5-1.4,12.7-4.1,18.5-2.8,5.8-6.9,10.5-12.5,14.2s-12.4,5.5-20.5,5.5h-22.1v-35.7h.1Z"/>
  <path class="cls-1" d="M375.1,115.3c-1.7,5.6-2.5,10.6-2.5,15,0,6.5,1.6,11.2,4.8,13.9,3.2,2.8,8.9,4.1,17.1,4.1h10.3c6,0,10.4-.4,13.2-1.2,2.8-.8,4.8-2.3,5.8-4.5,1.1-2.2,1.6-5.4,1.6-9.9v-52h31.5v52c0,15.5-4.2,27.9-12.7,37.3-8.5,9.3-21.6,14-39.4,14h-10.3c-11.3,0-20.9-2.4-28.9-7.1-8-4.7-14-11.1-18-19.3-4-8.1-6.1-17.3-6.1-27.5,0-6.9,1.2-14.4,3.7-22.5s5.3-15.4,8.5-21.8l27.4,13.1c-2.3,5.5-4.4,10.8-6,16.4Zm14.1-61.8h14.1c6.3,0,11,.1,14.1,.2v27.2h-28.2v-27.4Z"/>
  <path class="cls-1" d="M475.2,24.4h31.5v118h-31.5V24.4Z"/>
  <path class="cls-1" d="M566.1,80.9v21.6c0,1.7,.6,2.8,1.8,3.4,1.2,.6,2.9,.9,5.1,.9h2.8l1.2,18.1-1.2,17.6h-3.7c-2.4,0-4.8-.4-7.1-1.3-2.3,13.5-7.9,24-16.8,31.6-8.9,7.6-20.7,11.4-35.3,11.4h-10.5v-35.7h10.5c6.4,0,11.1-.5,14-1.5s4.9-2.9,6-5.7,1.6-7.4,1.6-13.7v-46.6h31.6v-.1Z"/>
  <path class="cls-1" d="M565.8,157.2h48.8v24.8h-48.8v-24.8Zm8.5-50.4h17.4c3.9,0,6.6-.6,8.2-1.9,1.6-1.3,2.2-3.2,1.9-5.9-.7-5.6-1.9-13.2-3.7-22.7l29.7-7.5c3.8,15.9,5.6,27.8,5.6,35.5,0,6.5-1.4,12.7-4.1,18.5-2.8,5.8-6.9,10.5-12.5,14.2s-12.4,5.5-20.5,5.5h-22.1v-35.7h.1Z"/>
  <path class="cls-1" d="M651.8,24.4h31.5v118h-31.5V24.4Z"/>
  <path class="cls-1" d="M742.3,137.3c-5.9-3.4-10.4-8.1-13.5-14-3.2-5.9-4.7-12.5-4.7-19.8,0-2.8,.4-6.3,1.2-10.5,1-5.1,2.5-11.7,4.5-19.9l29.2,8.1c-1.9,7.3-3.1,12.8-3.7,16.6-.1,.4-.2,1.1-.2,1.8,0,2.2,.7,4,2.1,5.2,1.4,1.3,3.3,1.9,5.9,1.9h65.6c3,0,5-.3,5.9-.8,.9-.6,1.4-1.7,1.4-3.5v-21.6h31.5v21.6c0,1.8,.4,2.9,1.2,3.5s2.2,.8,4.2,.8h3l1.5,18.8-1.5,16.9h-4.2c-3.7,0-7.3-.6-11-1.8s-7-3-10.1-5.3c-2.5,2.4-5.6,4.2-9.1,5.4s-7.8,1.7-12.8,1.7h-66.1c-7.7,.1-14.5-1.6-20.3-5.1Zm32.5-87h48.8v24.9h-48.8v-24.9Z"/>
  <path class="cls-1" d="M874.2,106.8h14.8c3.9,0,6.6-.6,8.2-1.9,1.6-1.3,2.2-3.2,1.9-5.9-.4-4.9-1.6-12.5-3.5-22.7l29.5-7.5c3.9,16.5,5.8,28.3,5.8,35.5,0,6.4-1.5,12.6-4.4,18.4-2.9,5.9-7.2,10.6-12.8,14.3s-12.3,5.5-20,5.5h-19.6v-35.7h.1Zm10.8-79.2h14.1c6.3,0,11,.1,14.1,.2v27.2h-28.2V27.6h0Z"/>
  <path class="cls-1" d="M987.3,151.1c2.8-.4,4.8-1.3,6.1-2.6s2.2-3.3,2.7-6.1h-9.8c-12.5,0-22.2-3.6-29.1-10.8-6.9-7.2-10.4-17.2-10.4-29.9,0-14.4,3.5-25.7,10.5-33.9,7-8.2,16.6-12.3,28.8-12.3,8.4,0,15.8,1.9,22.1,5.7,6.3,3.8,11.2,9.4,14.6,16.8s5.1,16.2,5.1,26.6v2h9.5l1.8,18.3-1.8,17.4h-9.8c-1.1,13.4-6.1,24.2-14.9,32.5s-21.4,12.5-37.9,12.5h-24.4v-35.7h24.4c5.6,.2,9.7-.1,12.5-.5Zm-1-42.5h10.1v-9c0-8-3.4-12-10.3-12-3.3,0-5.8,1.1-7.6,3.2-1.7,2.2-2.6,4.9-2.6,8.2,.1,6.5,3.5,9.6,10.4,9.6Z"/>
  <path class="cls-1" d="M1035.6,106.8h22.6c-5.4-2.8-9.6-6.3-12.5-10.6s-4.3-9.9-4.3-16.8c0-12.4,3.3-22.1,10-29,6.7-7,15.6-10.5,26.8-10.5,11.8,0,21.1,3.6,27.9,10.9,6.7,7.2,10.1,17.7,10.1,31.5v7.3c0,16-4.1,28.9-12.2,38.5s-21.6,14.4-40.4,14.4h-28.1v-35.7h.1ZM1064,0h28.2V27.4h-28.2V0Zm7.4,82.6c1.2,1.3,3,2.5,5.6,3.6l10.1,4.1v-11.3c0-3-.7-5.4-2.1-7.4-1.4-1.9-3.6-2.9-6.7-2.9s-5.3,.9-6.6,2.7c-1.3,1.8-2,3.9-2,6.5-.1,1.9,.5,3.5,1.7,4.7Z"/>
</svg>