<?xml version="1.0" encoding="UTF-8"?>
<!-- Generator: Adobe Illustrator 27.0.1, SVG Export Plug-In . SVG Version: 6.00 Build 0)  -->
<svg version="1.1" id="Layer_1" xmlns="http://www.w3.org/2000/svg" xmlns:xlink="http://www.w3.org/1999/xlink" x="0px" y="0px" viewBox="0 0 1078.3 243.6" style="enable-background:new 0 0 1078.3 243.6;" xml:space="preserve">
<g>
	<path d="M115.4,117.9h15c1.3,0,2,6.7,2,20c0,8.7-0.2,14.2-0.6,16.5c-0.4,2.3-0.9,3.5-1.4,3.5h-11c-9.1,0-16.3-1.5-21.8-4.4   c-5.5-2.9-10.2-8-14.2-15.2l-9,4.6c-8.1,4.1-14,8.3-17.6,12.5c-3.6,4.2-5.4,9-5.4,14.5c0,5.5,1.7,9.5,5.2,12.1   c3.5,2.6,8.7,3.9,15.8,3.9h44.9l-3,40H70.5c-18.8,0-33-4.3-42.5-13c-9.6-8.7-14.4-21.3-14.4-38c0-25,13.6-44,40.9-56.9l19-9   c-0.5-2-1.3-3.3-2.3-4c-1-0.7-2.6-1-4.7-1H21.5l3-38h51.9c6.3,0,11.7,1.2,16.4,3.5c4.7,2.3,9,6.7,13,13.1c4,6.4,7.7,15.5,11,27.4   l-12.4,8H115.4z M40.5,51.9V23h38v29H40.5z"/>
	<path d="M127.4,198.8v-29h38v29H127.4z M177.3,146.7c-7.4,7.4-17.3,11.1-29.9,11.1h-17c-1.3,0-2-6.7-2-20c0-8.5,0.2-14,0.6-16.4   c0.4-2.4,0.9-3.6,1.4-3.6h17c1.1,0,2-0.3,2.8-0.9c0.8-0.6,1.2-1.4,1.2-2.3V82.9h37v34C188.3,129.4,184.6,139.3,177.3,146.7z"/>
	<path d="M249.2,188.3c-9.9-10.3-14.9-24.5-14.9-42.4v-42.9h38v41.9c0,6.5,1.5,11.3,4.6,14.4c3.1,3.1,7.9,4.6,14.4,4.6h8   c6.4,0,11.3-1.4,14.8-4.2c3.5-2.8,5.2-6.7,5.2-11.8V82.9h38v61.9c0,11.3-2.3,21.4-7,30.4c-4.7,8.9-11.4,15.9-20.2,21   c-8.8,5.1-19,7.6-30.8,7.6h-9C272.8,203.8,259.1,198.6,249.2,188.3z M268.2,87.9v-29h38v29H268.2z"/>
	<path d="M424.5,121.5c0.3,2.4,0.5,7.9,0.5,16.4c0,8.5-0.2,14-0.5,16.4c-0.3,2.4-0.8,3.6-1.5,3.6h-10c-12.8,0-22.5-3.5-29.1-10.6   c-6.6-7.1-9.9-17.2-9.9-30.4V30h38v83.9c0,1.5,0.3,2.5,0.9,3.1c0.6,0.6,1.6,0.9,3.1,0.9h7C423.7,117.9,424.2,119.1,424.5,121.5z"/>
	<path d="M470.9,117c0.7-0.6,1.1-1.3,1.1-2.1c0-1.3-1-3-3-5l-38-37v-28l81.9-30l9,38l-40,15l16,16c10.3,10.3,18.3,17.7,24.1,22.5   c5.8,4.7,10.5,7.8,14.2,9.3c3.7,1.5,7.9,2.2,12.7,2.2c1.3,0,2,6.7,2,20c0,13.3-0.7,20-2,20c-8.7,0-15.4-0.3-20.3-0.9   c-4.9-0.6-8.9-1.7-12.1-3.4c-3.2-1.7-6.3-4.2-9.2-7.7c-2.8,3.6-7.1,6.5-12.8,8.7c-5.7,2.2-12.3,3.3-19.6,3.3H423c-1.3,0-2-6.7-2-20   c0-8.5,0.2-14,0.6-16.4c0.4-2.4,0.9-3.6,1.4-3.6H468C469.2,117.9,470.2,117.6,470.9,117z"/>
	<path d="M594.8,169.8v29h-59.9v-29H594.8z M595.7,146.7c-7.4,7.4-17.3,11.1-29.9,11.1h-17c-1.3,0-2-6.7-2-20c0-8.5,0.2-14,0.6-16.4   c0.4-2.4,0.9-3.6,1.4-3.6h17c1.1,0,2-0.3,2.8-0.9c0.8-0.6,1.2-1.4,1.2-2.3V82.9h37v34C606.8,129.4,603.1,139.3,595.7,146.7z"/>
	<path d="M750.6,114.9v-32h38v32c0,2,1.3,3,4,3h4c1.3,0,2,6.7,2,20c0,13.3-0.7,20-2,20h-6c-9.9,0-17.2-2.3-22-7   c-2.5,2.5-5.5,4.3-8.8,5.4c-3.3,1.1-7.7,1.6-13.2,1.6h-54.9c-12.5,0-22.1-3.4-28.9-10.3c-6.7-6.9-10.1-16.7-10.1-29.7v-35h38v30   c0,1.6,0.4,2.8,1.1,3.7c0.7,0.9,2,1.3,3.9,1.3h50.9C749.3,117.9,750.6,116.9,750.6,114.9z M750.6,42v29h-59.9V42H750.6z"/>
	<path d="M843.4,146.7c-7.4,7.4-17.3,11.1-29.9,11.1h-17c-1.3,0-2-6.7-2-20c0-8.5,0.2-14,0.6-16.4c0.4-2.4,0.9-3.6,1.4-3.6h17   c1.1,0,2-0.3,2.8-0.9c0.8-0.6,1.2-1.4,1.2-2.3V82.9h37v34C854.5,129.4,850.8,139.3,843.4,146.7z M810.6,70.9V42h38v29H810.6z"/>
	<path d="M970.4,137.8c0,13.3-0.7,20-2,20h-12c-1.5,14.5-6.8,25.8-16,33.9c-9.2,8.1-21.2,12.1-36,12.1h-30l-3-39h40   c2.9,0,5.2-0.6,6.7-1.9c1.5-1.3,2.3-3,2.3-5.1h-5c-15.4,0-26.5-3.2-33.1-9.7c-6.6-6.5-9.9-17.2-9.9-32.3c0-8.5,1.8-16.2,5.3-23.1   c3.5-6.9,8.5-12.2,14.8-16.1c6.3-3.9,13.6-5.8,21.9-5.8c13.6,0,24.1,4.1,31.7,12.3c7.5,8.2,11.3,19.7,11.3,34.7h11   C969.7,117.9,970.4,124.5,970.4,137.8z M910,119.3c1.1,1.1,2.9,1.6,5.4,1.6h6v-6c0-5.3-2.3-8-6.8-8c-2,0-3.5,0.6-4.6,1.9   c-1.1,1.3-1.6,3-1.6,5.1C908.4,116.4,909,118.2,910,119.3z"/>
	<path d="M980.4,104.9c0-6.9,1.6-13.6,4.9-20.1c3.3-6.5,8.1-11.7,14.6-15.8c6.5-4.1,14.3-6.1,23.5-6.1c13.4,0,23.6,3.9,30.6,11.7   c6.9,7.8,10.4,19.2,10.4,34.3v8c0,12.9-4.2,23-12.7,30.2c-8.5,7.2-20.2,10.8-35.3,10.8h-47.9c-1.3,0-2-6.7-2-20   c0-8.5,0.2-14,0.6-16.4c0.4-2.4,0.9-3.6,1.4-3.6h14C981,113.9,980.4,109.5,980.4,104.9z M1004.3,51.9V23h38v29H1004.3z M1029.1,115   c0.1-1.7,0.2-3.6,0.2-5.7c0-2.9-0.6-5.2-1.7-6.9c-1.1-1.7-2.9-2.5-5.3-2.5c-1.7,0-3.2,0.6-4.3,1.7c-1.1,1.1-1.7,2.6-1.7,4.3   c0,3.1,1,5.8,3.1,8.1c2.1,2.3,5,4,8.9,4.9C1028.7,117.9,1029,116.6,1029.1,115z"/>
</g>
</svg>