<?xml version="1.0" standalone="yes"?>
<svg xmlns="http://www.w3.org/2000/svg" width="500" height="500">
<path style="fill:#ffffff; stroke:none;" d="M0 0L0 500L500 500L500 0L0 0z"/>
<path style="fill:#a5a7a5; stroke:none;" d="M27 30L27 114L366 114L447 114C451.92 114 469.938 116.68 472.397 111.682C474.702 106.998 473 98.1489 473 93L473 49C473 44.8934 475.075 32.765 470.682 30.6034C462.323 26.49 444.323 30 435 30L346 30L27 30z"/>
<path style="fill:#a8aaa8; stroke:none;" d="M472 30L473 31L472 30M30 31L31 32L30 31M30 112L31 113L30 112M472 113L473 114L472 113z"/>
<path style="fill:#a5a7a5; stroke:none;" d="M252 144L252 278L252 312L253.028 325.397L267 327L306 327L468 327L469 264L469 144L252 144z"/>
<path style="fill:#a8aaa8; stroke:none;" d="M109 154L110 155L109 154z"/>
<path style="fill:#a5a7a5; stroke:none;" d="M109 155L109 157L136 158L190 158L227 157L227 155L190 154L136 154L109 155z"/>
<path style="fill:#a8aaa8; stroke:none;" d="M226 154L227 155L226 154M109 157L110 158L109 157M226 157L227 158L226 157z"/>
<path style="fill:#d8d9d8; stroke:none;" d="M56 168L57 169L56 168z"/>
<path style="fill:#a8aaa8; stroke:none;" d="M57 168L58 169L57 168z"/>
<path style="fill:#a5a7a5; stroke:none;" d="M57 172L226 172L226 168L97 168C87.0207 168 77.0154 167.792 67.0394 168.05C62.6998 168.162 58.5662 167.273 57 172z"/>
<path style="fill:#a8aaa8; stroke:none;" d="M63 168L64 169L63 168z"/>
<path style="fill:#d8d9d8; stroke:none;" d="M226 168L227 169L226 168z"/>
<path style="fill:#bfbfbf; stroke:none;" d="M56 169L57 170L56 169z"/>
<path style="fill:#a8aaa8; stroke:none;" d="M61.3333 169.667L61.6667 170.333L61.3333 169.667z"/>
<path style="fill:#bfbfbf; stroke:none;" d="M226 169L226 172L227 172L226 169z"/>
<path style="fill:#a8aaa8; stroke:none;" d="M56.3333 170.667L56.6667 171.333L56.3333 170.667z"/>
<path style="fill:#bfbfbf; stroke:none;" d="M56.3333 179.667L56.6667 180.333L56.3333 179.667z"/>
<path style="fill:#a8aaa8; stroke:none;" d="M57 179L58 180L57 179z"/>
<path style="fill:#a5a7a5; stroke:none;" d="M57 180L57 182C74.2296 186.102 95.3024 183 113 183L226 183C224.44 178.299 220.367 179.002 216 179L187 179L99 179C85.9965 179 69.475 176.313 57 180z"/>
<path style="fill:#a8aaa8; stroke:none;" d="M225 179L226 180L225 179z"/>
<path style="fill:#d8d9d8; stroke:none;" d="M226 179L227 180L226 179z"/>
<path style="fill:#a8aaa8; stroke:none;" d="M59.3333 180.667L59.6667 181.333L59.3333 180.667M61 180L62 181L61 180z"/>
<path style="fill:#bfbfbf; stroke:none;" d="M226 180L226 183L227 183L226 180z"/>
<path style="fill:#a8aaa8; stroke:none;" d="M56 181L59 183L59 182L56 181M63 181L64 182L63 181M224 181L225 182L224 181M132.667 291.333L133.333 291.667L132.667 291.333z"/>
<path style="fill:#a5a7a5; stroke:none;" d="M225 293C229.384 291.094 216.804 291 215 291L183 291L157 291C152.341 291 135.473 288.452 132.5 292.333C130.453 295.006 130.974 313.742 134 314.833C140.339 317.12 151.23 315 158 315L205 315C210.666 315 219.689 316.749 225 314.833C229.28 313.29 227.659 295.659 225 293z"/>
<path style="fill:#a8aaa8; stroke:none;" d="M226 291L227 292L226 291M225.667 293.333L226.333 293.667L225.667 293.333M133.333 294.667L133.667 295.333L133.333 294.667M224 295L225 296L224 295M135 313L136 314L135 313M132 314L133 315L132 314M226 314L227 315L226 314M255 320L256 321L255 320M464 320L465 321L464 320M253 321L254 322L253 321M466.333 321.667L466.667 322.333L466.333 321.667M256 323L256 324L464 324L444 323L402 323L256 323M468 324L468 327L469 327L468 324M464 325L464 326L467 326L464 325M252 326L253 327L252 326M44 380L45 381L44 380z"/>
<path style="fill:#a5a7a5; stroke:none;" d="M45.6034 381.028C42.3987 383.566 42.5073 401.522 46.3179 403.397C51.4383 405.916 61.3572 404 67 404L116 404C121.088 404 133.275 406.237 137.397 402.972C140.601 400.434 140.493 382.478 136.682 380.603C131.562 378.084 121.643 380 116 380L67 380C61.9124 380 49.7254 377.763 45.6034 381.028z"/>
<path style="fill:#a8aaa8; stroke:none;" d="M138 380L139 381L138 380M155.333 380.667L155.667 381.333L155.333 380.667z"/>
<path style="fill:#a5a7a5; stroke:none;" d="M156.742 381.028C153.157 383.929 153.392 402.199 158.228 403.682C164.495 405.603 173.461 404 180 404L226 404C231.202 404 244.087 406.347 248.258 402.972C251.843 400.071 251.608 381.801 246.772 380.318C240.505 378.397 231.539 380 225 380L179 380C173.798 380 160.913 377.653 156.742 381.028z"/>
<path style="fill:#a8aaa8; stroke:none;" d="M249.333 380.667L249.667 381.333L249.333 380.667M266 380L267 381L266 380z"/>
<path style="fill:#a5a7a5; stroke:none;" d="M270 402L271 402C273.582 404.955 278.293 404 282 404L309 404L334 404C339.846 404 354.71 406.685 359.397 402.972C362.601 400.434 362.493 382.478 358.682 380.603C353.779 378.191 344.396 380 339 380L292 380C286.627 380 274.702 377.764 271 382C262.015 376.356 265.426 406.832 270 402z"/>
<path style="fill:#a8aaa8; stroke:none;" d="M270.333 380.667L270.667 381.333L270.333 380.667M360 380L361 381L360 380M373 380L374 381L373 380z"/>
<path style="fill:#a5a7a5; stroke:none;" d="M374.603 381.028C371.399 383.566 371.507 401.522 375.318 403.397C380.438 405.916 390.357 404 396 404L445 404C450.088 404 462.275 406.237 466.397 402.972C469.601 400.434 469.493 382.478 465.682 380.603C460.562 378.084 450.643 380 445 380L396 380C390.912 380 378.725 377.763 374.603 381.028z"/>
<path style="fill:#a8aaa8; stroke:none;" d="M467 380L468 381L467 380M158.667 381.333L159.333 381.667L158.667 381.333M137 383L138 384L137 383M374 383L375 384L374 383M137 400L138 401L137 400M374 400L375 401L374 400M155.333 402.667L155.667 403.333L155.333 402.667M158.667 402.333L159.333 402.667L158.667 402.333M249.333 402.667L249.667 403.333L249.333 402.667M270.333 402.667L270.667 403.333L270.333 402.667M44 403L45 404L44 403M138 403L139 404L138 403M266 403L267 404L266 403M360 403L361 404L360 403M373 403L374 404L373 403M467 403L468 404L467 403z"/>
<path style="fill:#a5a7a5; stroke:none;" d="M345 424C347.343 431.061 363.726 428 370 428L440 428C446.06 428 460.717 430.88 463 424L345 424z"/>
<path style="fill:#a8aaa8; stroke:none;" d="M351 424L352 425L351 424M456 424L457 425L456 424M350 426L351 427L350 426M457 426L458 427L457 426M345 427L346 428L345 427M462 427L463 428L462 427M44 444L45 445L44 444z"/>
<path style="fill:#a5a7a5; stroke:none;" d="M44 448L463 448C460.749 441.219 446.951 444 441 444L374 444L122 444L63 444C57.3875 444 46.1392 441.555 44 448z"/>
<path style="fill:#a8aaa8; stroke:none;" d="M462 444L463 445L462 444M457 445L458 446L457 445M456 447L457 448L456 447M44 455L45 456L44 455z"/>
<path style="fill:#a5a7a5; stroke:none;" d="M44 456L44 458C53.9627 460.945 66.631 459 77 459L142 459L357 459L431 459C439.073 459 453.248 461.729 460 457L463 458L463 456L423 455L339 455L137 455L75 455L44 456z"/>
<path style="fill:#a8aaa8; stroke:none;" d="M462 455L463 456L462 455M461 456L462 457L461 456M47 457L48 458L47 457M459.333 457.667L459.667 458.333L459.333 457.667M44 458L45 459L44 458M461.667 458.333L462.333 458.667L461.667 458.333M44 466L45 467L44 466z"/>
<path style="fill:#a5a7a5; stroke:none;" d="M44 467L44 469L85 470L170 470L370 470L432 470L463 469L463 467L431 466L370 466L171 466L85 466L44 467z"/>
<path style="fill:#a8aaa8; stroke:none;" d="M458 466L459 467L458 466M462 466L463 467L462 466M460.333 467.667L460.667 468.333L460.333 467.667M44 469L45 470L44 469M458 469L459 470L458 469M462 469L463 470L462 469z"/>
</svg>
