<svg xmlns="http://www.w3.org/2000/svg" width="578" height="108" viewBox="0 0 578 108">
  <g id="bg-0098" transform="translate(-122 -2701)" opacity="0.05">
    <g id="Layer_2" data-name="Layer 2" transform="translate(652 2761)" opacity="0.43">
      <g id="invisible_box" data-name="invisible box">
        <rect id="Rectangle_260" data-name="Rectangle 260" width="48" height="48" fill="none"/>
      </g>
      <g id="icons_Q2" data-name="icons Q2">
        <path id="Path_376" data-name="Path 376" d="M24,6A18,18,0,1,1,6,24,18,18,0,0,1,24,6m0-4A21.9,21.9,0,1,0,39.586,8.414,22,22,0,0,0,24,2Z" fill="#fff"/>
        <path id="Path_377" data-name="Path 377" d="M18.6,32.4l-6-5.9a2.1,2.1,0,0,1-.2-2.7,1.9,1.9,0,0,1,3-.2L20,28.2,32.6,15.6a2,2,0,0,1,2.8,2.8l-14,14a1.9,1.9,0,0,1-2.8,0Z" fill="#fff"/>
      </g>
    </g>
    <g id="Layer_2-2" data-name="Layer 2" transform="translate(475 2761)">
      <g id="invisible_box-2" data-name="invisible box">
        <rect id="Rectangle_262" data-name="Rectangle 262" width="48" height="48" fill="none"/>
      </g>
      <g id="icons_Q2-2" data-name="icons Q2">
        <g id="Group_4038" data-name="Group 4038">
          <path id="Path_379" data-name="Path 379" d="M23.1,6.8,40,23.7V40H23.7L6.8,23.1,23.1,6.8m0-4.8a2,2,0,0,0-1.4.6L2.6,21.7a1.9,1.9,0,0,0,0,2.8L22.1,44H42a2,2,0,0,0,2-2V22.1L24.5,2.6A2,2,0,0,0,23.1,2Z" fill="#fff"/>
          <circle id="Ellipse_162" data-name="Ellipse 162" cx="4" cy="4" r="4" transform="translate(27 27)" fill="#fff"/>
        </g>
      </g>
    </g>
    <g id="Layer_2-3" data-name="Layer 2" transform="translate(299 2761)" opacity="0.51">
      <g id="invisible_box-3" data-name="invisible box">
        <rect id="Rectangle_265" data-name="Rectangle 265" width="48" height="48" fill="none"/>
      </g>
      <g id="Icons">
        <path id="Path_382" data-name="Path 382" d="M46,15a2.9,2.9,0,0,0-3-3H38.3a4.2,4.2,0,0,0,.4-1,7,7,0,0,0-.6-5.3,6.7,6.7,0,0,0-4.3-3.4A7.1,7.1,0,0,0,25,7l-1,3.4L23,7a7.1,7.1,0,0,0-8.8-4.7A6.7,6.7,0,0,0,9.9,5.7,7,7,0,0,0,9.3,11a4.2,4.2,0,0,0,.4,1H5a2.9,2.9,0,0,0-3,3V26H4V43a2.9,2.9,0,0,0,3,3H41a2.9,2.9,0,0,0,3-3V26h2Zm-4,7H31V16H42ZM21,22V16h6v6Zm6,4V42H21V26ZM32.7,6.1a3.2,3.2,0,0,1,1.9,1.5,2.9,2.9,0,0,1,.3,2.2,3.1,3.1,0,0,1-3,2.2H27.7l1.1-3.8a3.3,3.3,0,0,1,3.9-2.1ZM13.1,9.8a2.9,2.9,0,0,1,.3-2.2,3.2,3.2,0,0,1,1.9-1.5,3.3,3.3,0,0,1,3.9,2.1L20.3,12H16.1a3.1,3.1,0,0,1-3-2.2ZM6,16H17v6H6ZM8,26h9V42H8ZM40,42H31V26h9Z" fill="#fff"/>
      </g>
    </g>
    <g id="Layer_2-4" data-name="Layer 2" transform="translate(122 2761)" opacity="0.43">
      <g id="invisible_box-4" data-name="invisible box">
        <rect id="Rectangle_266" data-name="Rectangle 266" width="48" height="48" fill="none"/>
      </g>
      <g id="icons_Q2-3" data-name="icons Q2">
        <path id="Path_383" data-name="Path 383" d="M44.3,10A3.3,3.3,0,0,0,42,9H11.5l-.4-3.4A3,3,0,0,0,8.1,3H5A2,2,0,0,0,5,7H7.2l3.2,26.9A5.9,5.9,0,0,0,7.5,39a6,6,0,0,0,6,6,6.2,6.2,0,0,0,5.7-4H29.8a6.2,6.2,0,0,0,5.7,4,6,6,0,0,0,0-12,6.2,6.2,0,0,0-5.7,4H19.2a6,6,0,0,0-4.9-3.9L14.1,31H39.4a3,3,0,0,0,2.9-2.6L45,12.6a3.6,3.6,0,0,0-.7-2.6ZM37.5,39a2,2,0,1,1-2-2A2,2,0,0,1,37.5,39Zm-22,0a2,2,0,1,1-2-2A2,2,0,0,1,15.5,39Zm23-12H13.6L12,13H40.8Z" fill="#fff"/>
      </g>
    </g>
    <g id="Layer_2-5" data-name="Layer 2" transform="translate(387 2701)">
      <g id="invisible_box-5" data-name="invisible box">
        <rect id="Rectangle_263" data-name="Rectangle 263" width="48" height="48" fill="none"/>
        <rect id="Rectangle_264" data-name="Rectangle 264" width="48" height="48" fill="none"/>
      </g>
      <g id="icons_Q2-4" data-name="icons Q2">
        <path id="Path_380" data-name="Path 380" d="M20.6,23.4l-4-3.9a2.1,2.1,0,0,1-.2-2.7,1.9,1.9,0,0,1,3-.2L22,19.2l6.6-6.6a2,2,0,0,1,2.8,2.8l-8,8a1.9,1.9,0,0,1-2.8,0Z" fill="#fff"/>
        <path id="Path_381" data-name="Path 381" d="M40,18A16,16,0,1,0,15,31.2V43.9A2.1,2.1,0,0,0,17,46a1.5,1.5,0,0,0,1.1-.4L24,41l5.9,4.6A1.5,1.5,0,0,0,31,46a2.1,2.1,0,0,0,2-2.1V31.2A16,16,0,0,0,40,18ZM12,18A12,12,0,1,1,24,30,12,12,0,0,1,12,18ZM29,39.8l-4.4-3.4a.9.9,0,0,0-1.2,0L19,39.8V33.2a16.9,16.9,0,0,0,5,.8,16.9,16.9,0,0,0,5-.8Z" fill="#fff"/>
      </g>
    </g>
    <g id="Layer_2-6" data-name="Layer 2" transform="translate(206 2701)" opacity="0.43">
      <g id="invisible_box-6" data-name="invisible box">
        <rect id="Rectangle_267" data-name="Rectangle 267" width="48" height="48" fill="none"/>
      </g>
      <g id="icons_Q2-5" data-name="icons Q2">
        <path id="Path_384" data-name="Path 384" d="M44.3,10A3.3,3.3,0,0,0,42,9H35a2,2,0,0,0-2,2h0a2,2,0,0,0,2,2h5.8L38.5,27H13.6L12,13h7a2,2,0,0,0,2-2h0a2,2,0,0,0-2-2H11.5l-.4-3.4A3,3,0,0,0,8.1,3h-3A2.1,2.1,0,0,0,3,4.7,2,2,0,0,0,5,7H7.2l3.2,26.9a5.9,5.9,0,0,0-2.8,6.3,6.1,6.1,0,0,0,4.6,4.7,6.2,6.2,0,0,0,7-3.9H29.8a6,6,0,1,0,5.7-8,6.2,6.2,0,0,0-5.7,4H19.2a6,6,0,0,0-4.9-3.9L14.1,31H39.4a3,3,0,0,0,2.9-2.6L45,12.6a3.6,3.6,0,0,0-.7-2.6ZM35.5,37a2,2,0,1,1-2,2A2,2,0,0,1,35.5,37Zm-20,2a2,2,0,1,1-2-2A2,2,0,0,1,15.5,39Z" fill="#fff"/>
        <path id="Path_385" data-name="Path 385" d="M20.4,16.8a2.1,2.1,0,0,0,.2,2.7l5,4.9a1.9,1.9,0,0,0,2.8,0l5-4.9a2.1,2.1,0,0,0,.2-2.7,1.9,1.9,0,0,0-3-.2L29,18.2V9a2,2,0,0,0-4,0v9.2l-1.6-1.6a1.9,1.9,0,0,0-3,.2Z" fill="#fff"/>
      </g>
    </g>
    <g id="Layer_2-7" data-name="Layer 2" transform="translate(567 2701)" opacity="0.47">
      <g id="invisible_box-7" data-name="invisible box">
        <rect id="Rectangle_261" data-name="Rectangle 261" width="48" height="48" fill="none"/>
      </g>
      <g id="icons_Q2-6" data-name="icons Q2">
        <path id="Path_378" data-name="Path 378" d="M32.1,13l9.3,11L32.1,35H6V13H32.1m1.4-4H4a2,2,0,0,0-2,2V37a2,2,0,0,0,2,2H33.5a.9.9,0,0,0,.8-.4L45.6,25.2a2.1,2.1,0,0,0,0-2.4L34.3,9.4A.9.9,0,0,0,33.5,9Z" fill="#fff"/>
      </g>
    </g>
  </g>
</svg>
