<svg xmlns="http://www.w3.org/2000/svg" width="30.92" height="30.92" viewBox="0 0 30.92 30.92">
  <g id="calling" transform="translate(0)">
    <g id="Group" transform="translate(17.621)" opacity="0.4">
      <g id="Calling-2" data-name="Calling" transform="translate(0 0)">
        <path id="Fill-1" d="M1.975,3.5a1.33,1.33,0,0,0-.5,2.612,5.352,5.352,0,0,1,4.242,4.252v0a1.328,1.328,0,0,0,1.3,1.075,1.443,1.443,0,0,0,.256-.023A1.337,1.337,0,0,0,8.314,9.852,8,8,0,0,0,1.975,3.5" transform="translate(-0.398 1.897)" fill="#ff8a66"/>
        <path id="Fill-3" d="M1.876.012A1.264,1.264,0,0,0,.91.284a1.334,1.334,0,0,0,.671,2.371,10.686,10.686,0,0,1,9.47,9.49,1.325,1.325,0,0,0,1.315,1.182,1.235,1.235,0,0,0,.151-.009,1.31,1.31,0,0,0,.888-.491,1.324,1.324,0,0,0,.28-.978A13.32,13.32,0,0,0,1.876.012" transform="translate(-0.396 0)" fill="#ff8a66"/>
      </g>
    </g>
    <g id="Call" transform="translate(0 1.546)">
      <path id="Stroke-1" d="M13.963,15.417c6.167,6.165,7.566-.967,11.493,2.957,3.786,3.785,5.961,4.543,1.165,9.338-.6.483-4.418,6.292-17.832-7.119S1.177,3.359,1.66,2.758C6.468-2.05,7.213.138,11,3.923,14.925,7.848,7.8,9.252,13.963,15.417Z" transform="translate(0 0)" fill="#ff8a66" fill-rule="evenodd"/>
    </g>
  </g>
</svg>
