<svg xmlns="http://www.w3.org/2000/svg" width="1162.002" height="40.968" viewBox="0 0 1162.002 40.968">
  <path id="shape-eleven-01" d="M-2111.205-13751.033c-156.458,0-360.8-.2-624.7-.608a105.151,105.151,0,0,1-20.382-1.741,48.277,48.277,0,0,1-13.321-4.528,35.974,35.974,0,0,1-8.615-6.39,78.016,78.016,0,0,1-6.266-7.324,77.609,77.609,0,0,0-6.325-7.385,36.208,36.208,0,0,0-8.741-6.448,49.179,49.179,0,0,0-13.566-4.562,107.984,107.984,0,0,0-20.8-1.731l-1.412,0-1.662,0v-.244h1162a125.5,125.5,0,0,0-21.6,1.713,61.848,61.848,0,0,0-14.667,4.364,47.5,47.5,0,0,0-10.072,6.158,101.211,101.211,0,0,0-7.8,7.083l-.015.016c-4.91,4.787-9.986,9.737-18.163,13.56a66.321,66.321,0,0,1-15.011,4.785,130.665,130.665,0,0,1-22.057,2.324C-1805.213-13751.357-1915.169-13751.033-2111.205-13751.033Z" transform="translate(2837.001 13792.001)" fill="#fff"/>
</svg>
