<svg xmlns="http://www.w3.org/2000/svg" width="324.001" height="40.002" viewBox="0 0 324.001 40.002">
  <path id="shape-01" d="M-700.142-11150H-809.625a124.552,124.552,0,0,1-22.252-1.743,62.723,62.723,0,0,1-15.152-4.591c-8.259-3.8-13.431-8.928-18.433-13.89-9.675-9.6-19.68-19.523-52.538-19.773l324,0c-34.312.2-43.62,10.271-52.621,20.014l0,0h0a91.189,91.189,0,0,1-7.325,7.338,43.265,43.265,0,0,1-9.748,6.4,57.7,57.7,0,0,1-14.59,4.527A120.912,120.912,0,0,1-700.142-11150Z" transform="translate(918 11190.001)" fill="#fff"/>
</svg>
